<?xml version="1.0" standalone="no"?>
<!DOCTYPE svg PUBLIC "-//W3C//DTD SVG 20010904//EN"
 "http://www.w3.org/TR/2001/REC-SVG-20010904/DTD/svg10.dtd">
<svg version="1.0" xmlns="http://www.w3.org/2000/svg"
 width="709.000000pt" height="433.000000pt" viewBox="0 0 709.000000 433.000000"
 preserveAspectRatio="xMidYMid meet">

<g transform="translate(0.000000,433.000000) scale(0.100000,-0.100000)"
fill="#000000" stroke="none">
<path d="M0 2165 l0 -2165 3545 0 3545 0 0 2165 0 2165 -3545 0 -3545 0 0
-2165z m3590 2114 c0 -5 -7 -9 -15 -9 -8 0 -15 7 -15 15 0 9 6 12 15 9 8 -4
15 -10 15 -15z m-225 -19 c3 -6 -1 -13 -10 -16 -19 -8 -30 0 -20 15 8 14 22
14 30 1z m70 -10 c7 -23 35 -27 35 -6 0 21 19 30 35 16 8 -6 19 -9 25 -5 12 7
56 -32 47 -41 -3 -3 -22 -1 -42 5 -25 7 -42 7 -54 -1 -12 -7 -26 -5 -55 12
-27 17 -34 25 -24 31 20 13 26 11 33 -11z m405 6 c0 -3 -4 -8 -10 -11 -5 -3
-10 -1 -10 4 0 6 5 11 10 11 6 0 10 -2 10 -4z m-55 -16 c-3 -5 -10 -10 -16
-10 -5 0 -9 5 -9 10 0 6 7 10 16 10 8 0 12 -4 9 -10z m85 -48 c0 -24 0 -24
-26 -7 -20 13 -28 14 -34 5 -4 -7 -13 -9 -19 -5 -21 12 6 31 44 31 30 0 35 -3
35 -24z m-449 1 c12 -15 12 -16 -3 -10 -10 3 -20 2 -23 -3 -3 -5 -18 -4 -35 2
-17 5 -27 14 -24 19 9 16 71 10 85 -8z m197 -21 c2 -7 -3 -12 -12 -12 -9 0
-16 7 -16 16 0 17 22 14 28 -4z m293 -5 c-13 -13 -26 -3 -16 12 3 6 11 8 17 5
6 -4 6 -10 -1 -17z m-576 3 c3 -5 2 -10 -4 -10 -5 0 -13 5 -16 10 -3 6 -2 10
4 10 5 0 13 -4 16 -10z m153 -23 c3 -16 1 -17 -17 -7 -25 13 -28 33 -4 28 10
-2 19 -11 21 -21z m-208 3 c0 -5 7 -10 15 -10 8 0 15 -4 15 -10 0 -17 -26 -11
-45 10 -16 18 -16 20 -2 20 10 0 17 -4 17 -10z m550 1 c0 -5 6 -11 13 -14 6
-2 3 -3 -8 -1 -10 2 -27 -4 -37 -13 -9 -8 -24 -13 -33 -10 -24 10 -18 27 9 27
14 0 28 5 31 10 8 13 25 13 25 1z m-620 -16 c0 -8 -7 -15 -15 -15 -8 0 -15 7
-15 15 0 8 7 15 15 15 8 0 15 -7 15 -15z m224 -11 c4 -11 1 -14 -11 -12 -9 2
-18 9 -21 16 -6 18 25 15 32 -4z m536 -9 c0 -8 -4 -15 -9 -15 -5 0 -14 7 -21
15 -10 13 -9 15 9 15 12 0 21 -6 21 -15z m-804 -6 c8 -14 -18 -31 -30 -19 -9
9 0 30 14 30 5 0 12 -5 16 -11z m211 -22 c-2 -7 -28 -14 -58 -15 -58 -4 -59 0
-7 28 35 19 73 11 65 -13z m473 1 c0 -7 -11 -18 -25 -25 -28 -13 -30 -11 -13
17 14 22 38 27 38 8z m160 -32 c0 -3 -4 -8 -10 -11 -5 -3 -10 -1 -10 4 0 6 5
11 10 11 6 0 10 -2 10 -4z m-575 -26 c3 -5 -1 -10 -9 -10 -8 0 -18 5 -21 10
-3 6 1 10 9 10 8 0 18 -4 21 -10z m291 -2 c68 -59 146 -148 143 -164 -9 -39
66 -144 103 -144 22 0 23 -13 2 -31 -14 -12 -20 -9 -40 16 -13 17 -24 33 -24
38 0 4 -7 7 -15 7 -20 0 -9 -51 25 -115 15 -27 32 -72 40 -100 7 -27 18 -56
24 -64 7 -9 12 -91 13 -230 l1 -216 -50 -47 c-35 -32 -49 -52 -44 -63 3 -10
-4 -26 -18 -42 -14 -15 -33 -41 -42 -59 -10 -18 -33 -41 -51 -51 -18 -10 -33
-21 -33 -26 0 -4 -4 -5 -10 -2 -5 3 -21 -2 -35 -11 -20 -13 -28 -14 -40 -4
-10 8 -19 9 -27 3 -18 -14 -76 -24 -82 -14 -3 5 -16 7 -28 5 -17 -2 -34 10
-68 49 -25 29 -60 64 -77 78 -18 13 -33 31 -33 39 0 8 -8 20 -17 26 -10 6 -24
29 -32 50 -7 21 -29 72 -48 112 -34 71 -36 72 -67 67 -17 -3 -35 -2 -41 2 -24
19 -53 72 -60 111 -4 23 -13 45 -21 50 -18 10 -8 112 12 112 11 0 11 5 2 25
-10 21 -8 27 7 39 18 13 20 10 37 -36 12 -35 14 -56 8 -68 -7 -12 -4 -29 9
-55 18 -38 18 -38 23 -11 3 15 4 74 1 132 -3 83 0 112 13 140 16 34 16 36 -5
58 -27 28 -30 96 -4 96 15 0 15 1 0 18 -23 25 -21 32 7 32 14 0 28 5 31 10 3
6 15 10 26 10 16 0 19 6 17 27 -2 19 2 28 15 31 14 3 16 0 8 -21 -8 -22 -7
-24 10 -20 12 4 19 14 19 30 0 24 2 25 47 20 26 -3 57 0 71 6 17 8 29 8 44 -2
17 -10 22 -10 32 5 8 10 20 15 30 11 10 -4 16 -1 16 8 0 9 9 15 23 15 14 0 26
9 32 23 6 12 17 22 25 23 33 2 38 5 43 24 3 12 14 20 26 20 12 0 21 5 21 10 0
6 -4 10 -10 10 -5 0 -10 5 -10 10 0 13 8 13 26 -2z m-590 -35 c-11 -11 -19 6
-11 24 8 17 8 17 12 0 3 -10 2 -21 -1 -24z m230 11 c17 -14 17 -15 1 -10 -10
3 -25 6 -33 6 -8 0 -14 5 -14 10 0 15 24 12 46 -6z m634 -5 c0 -6 -4 -7 -10
-4 -5 3 -10 11 -10 16 0 6 5 7 10 4 6 -3 10 -11 10 -16z m-65 -9 c3 -5 -1 -10
-9 -10 -9 0 -16 5 -16 10 0 6 4 10 9 10 6 0 13 -4 16 -10z m98 -25 c4 -8 2
-17 -3 -20 -6 -4 -10 3 -10 14 0 25 6 27 13 6z m-793 -15 c0 -5 -7 -10 -15
-10 -8 0 -15 5 -15 10 0 6 7 10 15 10 8 0 15 -4 15 -10z m790 -76 c0 -8 -5
-12 -10 -9 -6 4 -8 11 -5 16 9 14 15 11 15 -7z m20 -110 c0 -8 -4 -12 -10 -9
-5 3 -10 10 -10 16 0 5 5 9 10 9 6 0 10 -7 10 -16z m-890 -145 c0 -5 -7 -9
-15 -9 -15 0 -20 12 -9 23 8 8 24 -1 24 -14z m947 -56 c4 -9 1 -19 -5 -21 -17
-5 -42 -32 -42 -44 0 -6 11 -3 25 6 35 23 40 21 53 -23 17 -54 15 -76 -8 -121
-19 -37 -19 -42 -5 -70 8 -16 15 -31 15 -33 0 -11 -61 -28 -86 -25 -29 3 -29
4 -27 63 1 33 -2 98 -7 144 -10 91 -3 121 30 121 11 0 20 5 20 10 0 17 30 11
37 -7z m83 -239 c0 -8 -9 -14 -20 -14 -22 0 -28 26 -7 33 16 6 27 -1 27 -19z
m-20 -137 c30 -62 51 -69 86 -29 24 27 29 28 58 19 89 -29 101 -37 119 -85 10
-26 36 -83 58 -127 52 -107 52 -153 1 -146 -8 1 -16 -6 -19 -17 -2 -11 -15
-24 -28 -30 -26 -12 -61 -69 -50 -80 4 -4 20 8 36 27 28 34 55 36 31 3 -7 -9
-21 -37 -32 -62 -11 -25 -27 -58 -35 -73 -8 -16 -15 -37 -15 -47 0 -10 -4 -22
-10 -25 -17 -10 -11 -90 9 -138 11 -25 17 -55 14 -66 -6 -23 7 -27 39 -10 17
9 19 17 13 47 -4 21 -15 45 -26 55 -37 35 -25 96 53 263 15 34 28 66 28 71 0
6 14 29 30 52 l31 42 42 -26 c23 -14 77 -43 119 -65 101 -51 188 -115 188
-139 0 -11 12 -23 29 -31 37 -15 50 -50 57 -150 4 -49 12 -84 24 -101 11 -16
15 -31 10 -39 -5 -7 -4 -24 1 -36 7 -20 5 -154 -3 -158 -2 -1 -20 -11 -40 -21
-21 -11 -38 -23 -38 -27 0 -5 -11 -8 -24 -8 -14 0 -28 -4 -31 -10 -3 -5 -1
-10 4 -10 6 0 11 -4 11 -10 0 -5 -9 -10 -19 -10 -11 0 -33 -11 -49 -25 -17
-14 -33 -25 -37 -25 -3 0 -13 -7 -21 -14 -18 -18 -58 -4 -113 40 -20 16 -42
27 -50 26 -10 -3 -10 0 -2 10 68 83 77 101 35 73 -31 -20 -44 -12 -21 13 10
10 17 28 17 39 0 11 18 39 40 62 71 72 32 67 -41 -5 -72 -72 -87 -71 -43 3 14
25 24 47 21 49 -10 11 -35 -10 -50 -42 -23 -47 -21 -96 3 -127 14 -18 19 -34
14 -51 -8 -33 -21 -33 -35 -2 -9 20 -16 23 -33 16 -14 -5 -28 -3 -41 7 -15 10
-35 12 -83 7 -45 -4 -71 -3 -88 7 -21 11 -30 10 -61 -5 -42 -20 -34 -43 10
-27 15 6 27 8 27 6 0 -3 0 -7 0 -10 0 -3 -1 -4 -2 -3 -2 1 -13 -7 -26 -17
l-22 -20 22 -17 c22 -17 22 -19 5 -32 -16 -12 -17 -20 -8 -53 6 -21 20 -49 31
-61 25 -27 26 -42 1 -42 -12 0 -23 9 -27 23 -13 43 -68 126 -87 131 -15 4 -18
9 -12 23 5 10 7 29 6 43 -1 14 -2 50 -4 82 -1 31 -5 60 -9 64 -13 12 -9 24 7
24 19 0 37 41 24 55 -5 5 -9 17 -9 27 0 10 -13 36 -29 58 -16 22 -32 55 -35
72 -4 18 -15 44 -25 57 -16 22 -23 23 -52 15 -18 -5 -34 -15 -37 -22 -2 -7 21
-38 52 -70 102 -104 128 -158 91 -186 -12 -9 -13 -18 -6 -43 14 -47 2 -139
-19 -158 -17 -15 -19 -14 -40 14 -17 25 -25 29 -39 21 -35 -18 -60 -8 -76 32
-15 37 -35 51 -35 24 0 -17 -63 -66 -85 -66 -8 0 -33 11 -55 25 -40 25 -84 32
-108 16 -21 -13 12 -34 55 -36 51 -1 56 -25 6 -25 -21 0 -47 -7 -57 -15 -11
-8 -31 -15 -44 -15 -21 0 -23 2 -12 15 17 20 8 27 -20 17 -18 -7 -33 -3 -64
19 -37 25 -45 26 -86 18 -25 -6 -51 -10 -57 -11 -7 -1 -13 -5 -13 -9 0 -5 -12
-4 -26 1 -33 13 -34 13 -34 -7 0 -25 -61 -67 -72 -50 -6 9 -8 8 -8 -2 0 -12
-3 -12 -12 -3 -9 9 -4 23 20 62 l32 51 -66 166 c-36 92 -74 200 -84 241 -23
90 -45 122 -35 49 5 -28 3 -52 -3 -60 -15 -18 -25 -82 -17 -107 10 -31 25 -7
25 38 0 52 23 34 41 -34 9 -32 26 -84 39 -114 29 -71 59 -162 60 -177 0 -7 -7
-13 -16 -13 -9 0 -12 -5 -8 -12 6 -9 3 -9 -9 0 -29 24 -64 95 -77 154 -6 32
-16 60 -21 63 -5 4 -9 17 -9 31 0 13 -5 24 -11 24 -7 0 -9 -9 -5 -22 4 -13 13
-57 21 -98 8 -41 24 -99 36 -128 24 -59 20 -71 -15 -52 -14 7 -34 10 -46 7
-27 -7 -41 15 -79 131 -47 142 -70 190 -95 198 -11 4 -34 18 -50 31 -16 13
-31 22 -33 19 -7 -7 16 -46 28 -46 13 0 59 -46 59 -60 0 -11 -43 18 -114 77
-23 19 -47 31 -56 28 -9 -3 -37 8 -62 25 -35 23 -47 38 -51 63 -3 17 -1 36 4
41 5 6 9 23 9 38 0 24 21 81 37 98 7 8 92 -90 135 -157 37 -56 58 -77 58 -55
0 12 -50 84 -85 122 -18 19 -44 53 -57 75 -22 36 -23 44 -13 80 10 33 21 46
66 72 68 40 153 81 158 77 2 -2 3 -38 2 -80 -2 -73 1 -82 44 -170 45 -89 69
-123 81 -111 3 3 -14 43 -39 89 -44 80 -46 87 -51 188 -6 99 -5 103 9 72 8
-18 20 -67 26 -108 9 -63 15 -80 37 -99 26 -23 27 -23 30 -4 2 11 -4 32 -13
45 -19 29 -40 97 -50 162 -7 44 -7 44 16 31 13 -7 29 -19 34 -26 6 -9 23 -13
40 -11 26 3 30 -1 33 -24 2 -16 5 -28 6 -28 2 0 24 9 50 21 38 16 46 24 41 40
-5 15 -2 19 18 19 14 0 30 -7 37 -15 10 -12 16 -13 26 -4 27 22 15 -9 -17 -46
-23 -26 -27 -35 -15 -35 20 0 21 -24 2 -43 -8 -8 -14 -23 -13 -34 0 -10 -12
-49 -28 -86 -28 -67 -29 -91 -1 -68 19 16 93 186 102 234 10 60 21 31 26 -71
2 -52 9 -97 16 -104 7 -7 12 -20 12 -30 0 -10 7 -30 16 -43 18 -28 11 -66 -8
-47 -7 7 -30 12 -53 12 -32 0 -57 -11 -118 -50 -42 -28 -77 -53 -77 -58 0 -14
70 -52 96 -52 14 0 32 7 41 15 14 14 13 15 -11 9 -20 -5 -26 -2 -26 10 0 12 9
16 33 15 53 -2 65 -8 76 -39 5 -17 14 -30 19 -30 14 0 23 30 17 51 -4 10 -3
23 0 29 10 16 32 -12 44 -56 6 -22 17 -48 25 -59 20 -26 20 -49 1 -65 -9 -7
-13 -15 -10 -18 2 -3 29 15 59 39 29 24 62 50 72 56 18 12 18 13 -3 29 -13 9
-23 24 -23 34 0 9 -18 38 -40 63 -22 25 -40 50 -40 55 0 28 21 16 61 -33 24
-30 47 -55 51 -55 15 0 8 31 -16 68 -14 20 -28 55 -32 77 -4 25 -21 58 -46 88
-41 49 -68 112 -45 105 7 -3 16 -14 21 -25 6 -12 22 -28 38 -38 15 -9 33 -25
38 -35 6 -11 25 -27 42 -36 18 -9 38 -23 46 -30 16 -16 42 -19 42 -4 0 6 -6
10 -14 10 -14 0 -86 62 -86 74 0 3 11 6 25 6 47 0 140 30 180 59 44 31 132
150 166 224 29 63 46 49 29 -25 -7 -29 -16 -61 -21 -70 -5 -10 -9 -28 -9 -40
0 -26 -58 -186 -75 -208 -27 -33 -43 -78 -32 -89 7 -7 2 -13 -17 -21 -39 -14
-56 -13 -56 6 0 14 -7 15 -39 10 -28 -4 -42 -2 -51 9 -7 8 -20 15 -30 15 -9 0
-25 9 -35 20 -10 11 -24 20 -30 20 -19 0 25 -82 47 -88 19 -5 26 -32 8 -32 -5
0 -9 -12 -9 -27 2 -24 2 -25 6 -5 2 12 9 20 14 17 5 -4 9 2 9 12 0 15 8 18 45
18 49 0 57 -8 25 -25 -11 -6 -20 -15 -20 -20 0 -17 30 -11 68 15 20 14 48 25
62 25 14 1 36 9 48 20 20 16 22 24 15 47 -7 21 -2 46 23 116 18 48 35 91 39
95 4 4 12 -1 19 -11 7 -9 16 -17 20 -17 12 0 6 28 -9 40 -25 21 -17 100 18
177 5 12 7 35 5 53 -5 33 8 52 18 26 8 -20 34 -21 34 -1 0 8 -3 15 -7 15 -5 0
-18 15 -30 33 -19 28 -23 47 -23 114 l0 81 38 -5 c27 -4 42 -1 51 11 7 9 16
16 20 16 3 0 17 -24 31 -53z m-850 -783 c0 -8 -4 -12 -10 -9 -5 3 -10 10 -10
16 0 5 5 9 10 9 6 0 10 -7 10 -16z m183 -9 c10 -14 16 -25 13 -25 -15 0 -56
25 -60 36 -9 24 28 15 47 -11z m-733 -90 c80 -40 121 -135 99 -233 -14 -66
-36 -90 -84 -94 l-40 -3 -1 60 c-1 115 -68 185 -175 185 -73 0 -125 -15 -181
-53 -51 -34 -68 -61 -68 -110 0 -30 -5 -34 -70 -65 -39 -18 -70 -38 -70 -43 0
-7 22 -8 64 -4 65 7 68 6 99 -37 11 -16 18 -15 83 18 62 31 82 36 145 37 153
2 194 -57 177 -252 -6 -73 -67 -318 -89 -362 -10 -19 -136 -47 -149 -33 -4 5
13 72 37 149 38 120 45 153 46 231 2 106 -9 128 -73 139 -58 10 -141 -31 -96
-48 7 -3 25 -29 40 -58 50 -101 30 -232 -47 -306 -63 -62 -120 -87 -202 -91
-86 -4 -131 16 -160 70 -22 42 -29 45 -52 22 -20 -19 -35 -6 -52 45 l-11 33
145 143 c80 78 145 146 145 149 0 4 -40 4 -89 1 -87 -7 -89 -7 -105 18 -19 28
-15 59 15 118 20 40 35 49 83 49 32 0 34 2 44 56 17 83 66 145 165 208 139 89
320 115 427 61z m764 -8 c10 -28 2 -47 -13 -31 -5 5 -13 22 -17 38 -9 37 17
32 30 -7z m-580 -109 c9 -12 16 -32 16 -44 0 -12 7 -27 15 -34 9 -7 13 -20 10
-27 -2 -8 0 -24 6 -35 17 -32 -3 -38 -43 -12 -42 27 -48 43 -18 51 11 3 20 11
20 18 0 8 -9 17 -20 20 -13 4 -20 15 -20 30 0 13 -3 30 -6 39 -9 25 22 20 40
-6z m-280 -119 c9 -53 -14 -70 -49 -35 -31 31 -31 45 -4 75 18 19 24 21 34 9
7 -7 16 -29 19 -49z m2376 -29 c0 -25 -10 -30 -66 -36 -26 -2 -52 -7 -58 -10
-6 -3 0 4 13 15 13 12 31 21 40 21 10 0 26 8 37 19 22 21 34 18 34 -9z m-590
-59 c0 -18 34 -31 84 -31 70 0 136 -44 163 -109 13 -30 13 -39 -2 -77 -18 -47
-110 -140 -188 -189 -26 -17 -47 -34 -47 -40 0 -13 72 -85 85 -85 20 0 42 32
61 89 21 59 30 65 117 76 l57 7 0 -36 c0 -54 21 -127 38 -133 24 -10 42 26 42
81 0 38 -10 72 -40 136 -43 91 -50 142 -26 188 23 43 58 70 120 92 58 19 58
19 97 0 21 -11 39 -27 39 -34 0 -8 -20 -29 -44 -47 -66 -50 -83 -86 -69 -146
6 -26 21 -73 32 -103 26 -71 27 -155 2 -196 -11 -18 -36 -45 -57 -60 -34 -27
-44 -29 -122 -29 -81 0 -84 1 -112 31 -15 17 -29 37 -32 44 -2 8 -24 -7 -56
-38 -76 -77 -107 -71 -206 36 -22 24 -45 50 -51 58 -9 13 -14 13 -44 -2 -71
-35 -143 -39 -155 -7 -13 33 60 132 128 174 29 18 72 13 102 -11 17 -15 26 -9
97 59 97 93 89 131 -28 131 -39 0 -86 5 -104 11 -28 10 -31 15 -31 50 0 37 18
86 42 117 6 6 32 12 59 12 41 0 49 -3 49 -19z m1364 -27 c43 -40 41 -46 -30
-91 -24 -15 -51 -42 -60 -59 -17 -31 -17 -34 19 -135 55 -153 51 -203 -20
-277 -22 -23 -103 -53 -158 -59 -65 -7 -131 21 -158 67 -18 30 -37 32 -37 5 0
-7 -19 -30 -42 -49 -35 -31 -49 -36 -90 -36 -54 0 -110 24 -146 62 -65 71 -44
177 90 443 70 138 67 135 159 135 93 0 96 -6 45 -77 -49 -69 -152 -269 -170
-332 -23 -80 -21 -109 9 -123 33 -15 69 1 90 41 21 42 45 147 45 203 0 46 1
47 38 57 20 6 51 11 68 11 l31 0 5 -92 c4 -61 13 -113 28 -151 21 -55 23 -58
53 -55 68 7 73 104 13 248 -39 94 -43 127 -21 169 28 55 132 126 190 130 6 1
28 -15 49 -35z m-2807 0 c5 -13 15 -15 54 -10 64 9 92 0 112 -34 31 -52 23
-91 -41 -177 -119 -162 -130 -190 -97 -253 33 -64 72 -56 119 24 32 55 46 114
33 143 -14 31 63 182 123 242 92 92 216 93 277 2 19 -29 23 -47 23 -117 0 -46
-4 -105 -9 -131 -5 -26 -17 -99 -27 -160 -9 -62 -22 -117 -28 -121 -6 -5 -39
-19 -74 -30 -54 -18 -64 -19 -69 -6 -7 19 3 82 38 241 16 73 29 153 29 177 0
131 -65 127 -125 -7 -21 -48 -24 -67 -19 -111 15 -122 -72 -268 -176 -296
-142 -39 -300 40 -300 150 0 48 52 133 132 216 35 36 67 72 71 80 11 20 -16
28 -61 19 -61 -14 -122 -11 -133 5 -15 23 -4 90 21 133 21 35 25 37 71 37 36
0 51 -4 56 -16z m1019 -13 c62 -28 97 -80 102 -152 3 -33 -1 -80 -8 -105 -24
-86 -166 -287 -240 -343 -27 -19 -34 -20 -82 -10 -99 21 -99 23 -26 94 134
130 211 254 212 343 1 46 -3 55 -28 77 -52 45 -109 27 -146 -46 -20 -38 -21
-39 -77 -39 l-56 0 6 36 c10 59 60 103 161 140 75 28 128 29 182 5z m-2306 -7
c97 -29 163 -125 163 -240 0 -101 -45 -160 -182 -244 -49 -29 -52 -40 -12 -40
72 0 111 -34 111 -95 0 -37 -6 -50 -35 -80 -38 -37 -66 -51 -185 -92 -41 -14
-85 -31 -97 -39 -33 -21 -39 -18 -89 31 -40 38 -45 47 -34 61 27 32 75 46 184
56 61 5 115 13 120 18 5 5 6 16 2 25 -5 15 -18 16 -94 12 -48 -3 -100 -8 -115
-12 l-28 -8 3 64 3 63 118 63 c66 34 128 70 139 80 28 25 48 67 48 100 -1 37
-35 111 -63 136 -73 65 -193 62 -278 -5 -57 -46 -50 -142 14 -185 74 -51 128
-17 154 95 20 86 34 91 82 27 l33 -45 -33 -57 c-75 -124 -153 -178 -249 -171
-184 13 -231 248 -77 383 109 96 272 136 397 99z m3350 -168 c0 -45 -13 -88
-22 -76 -27 36 -38 64 -32 87 10 49 12 52 33 46 18 -5 21 -13 21 -57z m-2185
-36 c14 -16 16 -23 7 -32 -7 -7 -12 -21 -12 -33 0 -12 -15 -36 -34 -54 -19
-18 -37 -47 -41 -64 -4 -18 -9 -26 -12 -18 -5 11 -7 11 -14 0 -16 -27 5 163
23 199 14 28 58 29 83 2z m1535 10 c0 -5 -4 -10 -10 -10 -5 0 -7 -7 -4 -15 7
-18 -5 -22 -68 -28 -45 -4 -48 -2 -48 19 0 18 8 26 33 33 44 13 97 13 97 1z
m-170 -14 c0 -8 -4 -18 -10 -21 -5 -3 -10 3 -10 14 0 12 5 21 10 21 6 0 10 -6
10 -14z m-382 -29 c12 -9 17 -47 7 -47 -3 0 -14 5 -25 12 -27 17 -36 3 -21
-37 10 -30 10 -38 -5 -57 -11 -16 -15 -18 -10 -5 7 21 -20 35 -37 18 -16 -16
-37 -14 -37 4 0 14 -29 21 -67 16 -6 -1 -14 3 -18 9 -3 6 3 10 15 10 18 0 21
4 16 24 -6 24 -5 25 46 21 62 -5 87 5 63 25 -8 7 -15 16 -15 21 0 10 71 -1 88
-14z m-137 -137 c15 0 10 -37 -7 -54 -20 -21 -34 -20 -34 0 0 9 -8 23 -17 30
-17 13 -17 13 0 14 9 0 17 5 17 11 0 6 7 8 16 5 9 -3 20 -6 25 -6z m-936 -109
c-6 -28 -11 -31 -42 -31 -34 0 -35 1 -21 23 15 21 59 50 66 42 2 -2 1 -17 -3
-34z m-627 -318 c-29 -56 -44 -106 -59 -198 -23 -135 -23 -144 -1 -168 13 -15
17 -35 15 -96 -2 -80 -43 -260 -68 -298 -14 -20 -79 -42 -91 -31 -2 3 10 47
27 99 37 110 48 208 28 245 -21 40 -63 58 -104 44 -47 -15 -52 -28 -23 -54 67
-58 64 -151 -9 -236 -105 -122 -284 -102 -322 37 -11 38 -3 66 27 101 24 27
28 27 35 2 8 -30 19 -25 76 31 68 67 65 83 -19 89 -64 5 -65 6 -68 36 -4 39
30 84 64 84 13 0 24 -4 24 -10 0 -5 16 -10 35 -10 42 0 85 -19 85 -37 0 -15
26 -18 35 -3 9 15 73 40 120 49 l40 7 8 84 c7 84 31 183 50 208 14 19 104 42
95 25z m-1631 -39 c11 -29 -18 -129 -72 -241 -37 -77 -49 -113 -40 -113 8 0
17 5 20 11 19 29 124 41 166 18 37 -19 48 -34 58 -79 24 -109 -92 -286 -210
-320 -80 -23 -158 -5 -198 46 -20 25 -22 37 -18 89 2 36 17 89 35 130 108 250
134 313 152 373 24 79 29 88 55 95 36 9 46 7 52 -9z m5157 -40 c-2 -58 -29
-137 -81 -237 -20 -37 -34 -70 -31 -72 2 -3 22 4 43 15 82 42 177 18 205 -50
26 -64 -18 -188 -93 -264 -57 -56 -96 -76 -162 -83 -103 -11 -175 39 -175 121
0 55 9 81 83 246 33 74 77 185 98 245 28 85 42 113 60 122 42 23 54 13 53 -43z
m-1854 -14 c41 -11 94 -20 118 -20 45 0 48 -5 30 -45 -16 -36 -45 -40 -109
-15 -30 11 -84 24 -120 27 -64 5 -67 5 -84 -21 -10 -15 -15 -29 -11 -33 3 -3
41 -7 83 -8 94 -2 150 -18 197 -57 120 -99 64 -404 -88 -478 -64 -31 -162 -38
-219 -16 -70 26 -100 65 -105 134 -5 71 4 88 109 200 l75 81 32 -19 c18 -11
32 -22 32 -26 0 -18 -31 -57 -90 -114 -106 -101 -112 -131 -36 -175 76 -45
163 -27 232 47 53 56 67 93 62 168 -4 79 -31 127 -91 160 -35 20 -46 21 -171
14 -129 -6 -134 -6 -145 14 -19 36 -14 62 11 59 18 -2 29 10 55 58 47 89 93
102 233 65z m510 0 c41 -11 96 -20 123 -20 53 0 59 -12 26 -54 -24 -31 -51
-33 -110 -7 -24 10 -74 25 -112 32 -79 15 -120 6 -125 -29 -5 -31 31 -42 138
-42 49 0 101 -5 117 -11 151 -57 164 -332 23 -476 -72 -73 -156 -91 -271 -57
-77 23 -119 70 -119 132 0 31 8 59 23 83 27 44 161 189 175 189 5 0 21 -9 36
-21 34 -26 28 -37 -70 -131 -83 -80 -100 -108 -83 -139 49 -93 237 -69 313 39
39 55 49 158 21 213 -42 81 -117 114 -237 106 -97 -6 -144 8 -154 47 -19 76
72 165 171 165 22 1 74 -8 115 -19z m1890 0 c41 -11 94 -20 118 -20 46 0 48
-3 30 -43 -18 -39 -46 -42 -131 -13 -115 40 -197 32 -197 -18 0 -22 2 -23 78
-18 97 5 152 -9 202 -54 66 -60 87 -164 54 -275 -30 -101 -86 -184 -144 -214
-48 -25 -159 -38 -208 -24 -43 12 -72 46 -72 84 0 19 -27 19 -60 0 -33 -19
-69 -19 -76 0 -16 42 95 137 135 115 11 -5 26 -10 34 -10 22 0 94 61 114 97
16 30 16 34 1 49 -10 10 -40 18 -82 21 -83 7 -97 21 -71 69 10 19 22 34 27 34
4 0 8 5 8 10 0 6 -14 10 -30 10 -32 0 -38 7 -42 50 -2 16 2 25 12 26 8 0 20 2
26 2 6 1 21 25 35 54 42 89 97 105 239 68z m563 -1 c45 -12 103 -21 130 -22
26 0 47 -5 47 -10 0 -5 -9 -22 -21 -38 -25 -36 -47 -36 -130 -5 -113 42 -219
43 -219 2 0 -33 41 -46 141 -46 108 0 140 -11 187 -65 44 -49 59 -125 43 -213
-22 -121 -81 -220 -155 -259 -42 -22 -149 -35 -198 -24 -46 11 -66 30 -75 74
-7 32 -5 32 -64 11 -81 -29 -102 -1 -48 61 44 50 81 68 114 55 42 -16 51 -13
99 35 77 77 69 115 -23 115 -63 0 -89 9 -96 32 -8 24 18 65 51 80 20 9 27 8
38 -7 8 -12 33 -21 71 -26 97 -13 140 -65 111 -133 -14 -34 -90 -102 -143
-130 -39 -20 -41 -29 -8 -61 48 -49 150 -29 217 42 38 40 58 94 58 155 0 76
-31 124 -100 161 -49 25 -64 28 -135 27 -119 -4 -133 -2 -155 20 -62 62 38
189 148 190 19 0 70 -9 115 -21z m-5403 -104 c84 -43 125 -124 125 -245 0
-131 -49 -229 -147 -291 -49 -32 -57 -34 -143 -34 -104 0 -161 21 -183 68 -25
52 18 108 145 190 42 27 68 59 56 71 -3 3 -41 6 -83 6 -84 0 -107 12 -95 49
13 41 95 81 95 46 0 -12 15 -15 75 -15 63 0 78 -3 96 -21 40 -40 7 -92 -106
-174 -67 -48 -91 -81 -81 -118 8 -32 56 -42 135 -26 115 22 172 85 179 194 5
81 -9 124 -59 174 -66 66 -191 91 -276 56 -42 -18 -53 -19 -53 -5 0 20 57 71
95 86 54 19 178 14 225 -11z m1644 -131 c5 -13 16 -15 51 -12 72 9 104 -28 73
-85 -6 -12 -30 -47 -52 -77 -73 -96 -82 -140 -42 -187 24 -27 26 -27 52 -13
15 8 38 35 51 60 20 38 23 53 17 102 -6 53 -4 62 21 98 75 109 205 151 251 82
25 -36 25 -155 0 -285 -20 -103 -24 -110 -93 -131 -31 -10 -30 9 3 151 19 80
25 124 20 156 -20 135 -87 83 -121 -93 -21 -107 -32 -138 -63 -172 -73 -80
-262 -38 -264 58 0 44 16 74 81 142 59 63 78 97 60 108 -16 10 -112 -7 -151
-27 -50 -26 -67 -24 -108 9 -89 73 -151 70 -226 -10 -69 -73 -83 -144 -38
-198 36 -42 74 -60 128 -60 36 0 48 5 65 26 38 48 22 148 -26 160 -30 8 -47
-7 -63 -56 -7 -22 -16 -40 -20 -40 -4 0 -17 11 -29 24 l-23 25 22 36 c48 77
118 108 180 80 51 -23 74 -69 68 -139 -10 -112 -91 -180 -215 -179 -157 1
-232 108 -168 238 35 73 123 167 180 194 78 37 110 31 268 -47 4 -2 7 4 7 13
0 23 49 65 75 65 13 0 26 -7 29 -16z m1653 2 c5 -8 39 -18 86 -24 154 -20 149
-43 -43 -204 -73 -61 -94 -92 -79 -119 12 -23 66 -33 122 -25 74 12 88 32 116
168 24 116 42 159 81 192 36 30 56 32 89 10 l23 -16 -25 -27 c-45 -49 -69 -92
-98 -174 -16 -45 -29 -83 -29 -84 0 -1 14 0 31 4 21 4 34 1 40 -8 14 -22 11
-27 -32 -72 -33 -34 -46 -61 -72 -144 -32 -103 -32 -103 -64 -103 -38 0 -38 0
-18 99 9 40 17 78 18 85 1 6 -7 10 -18 8 -81 -12 -157 -13 -188 -3 -50 17 -87
57 -87 95 0 40 29 69 137 140 54 35 78 57 78 71 0 18 -8 20 -65 23 -73 3 -90
13 -90 52 0 26 20 52 50 63 24 9 29 8 37 -7z m-3899 -12 c8 -15 18 -15 95 -4
63 9 90 9 106 1 31 -17 26 -38 -12 -56 -56 -26 -142 -111 -172 -167 -34 -65
-30 -118 10 -144 50 -32 99 6 127 99 14 45 25 43 51 -6 16 -32 17 -42 7 -67
-17 -41 -62 -77 -113 -91 -54 -14 -131 8 -171 50 -57 60 -30 138 82 243 67 63
70 70 21 53 -78 -28 -119 -16 -119 34 0 50 67 92 88 55z m4505 -8 c55 -23 72
-51 72 -115 -1 -45 -8 -70 -38 -126 -40 -75 -107 -155 -146 -175 -22 -11 -91
-6 -91 7 0 3 34 42 77 87 84 89 112 140 113 201 0 58 -22 85 -70 85 -37 0 -80
-28 -80 -52 0 -13 -48 -28 -65 -22 -23 9 -18 30 15 67 46 53 143 73 213 43z"/>
<path d="M3810 3550 c0 -5 17 -10 37 -12 28 -2 41 -9 50 -28 11 -22 13 -22 19
-6 10 26 -19 50 -66 52 -22 1 -40 -2 -40 -6z"/>
<path d="M3700 3518 c-41 -11 -100 -64 -100 -90 0 -26 34 -40 72 -30 22 6 32
14 30 25 -4 22 13 30 28 12 18 -22 55 -18 74 8 12 15 18 18 22 10 8 -18 33
-16 40 2 8 19 -13 45 -36 45 -10 0 -23 7 -30 15 -14 17 -48 18 -100 3z m-34
-95 c-10 -10 -19 5 -10 18 6 11 8 11 12 0 2 -7 1 -15 -2 -18z"/>
<path d="M3221 3473 c-31 -26 -14 -43 26 -27 22 10 31 19 27 29 -8 20 -27 19
-53 -2z"/>
<path d="M3301 3481 c-7 -5 -10 -14 -6 -21 4 -7 -5 -22 -25 -38 -22 -19 -29
-32 -25 -44 9 -22 45 -24 45 -3 0 21 16 19 40 -5 24 -24 54 -14 65 20 8 24 25
17 25 -10 0 -17 5 -19 33 -14 36 7 58 29 50 50 -8 20 -69 50 -120 58 -23 3
-47 8 -55 11 -7 3 -19 1 -27 -4z"/>
<path d="M3775 3380 c-16 -7 -17 -9 -3 -9 9 -1 20 4 23 9 7 11 7 11 -20 0z"/>
<path d="M3160 3237 c0 -8 7 -18 16 -21 11 -4 14 -1 12 11 -4 21 -28 30 -28
10z"/>
<path d="M3195 3180 c3 -5 8 -10 11 -10 2 0 4 5 4 10 0 6 -5 10 -11 10 -5 0
-7 -4 -4 -10z"/>
<path d="M3627 3146 c-4 -9 -13 -16 -22 -16 -8 0 -15 -4 -15 -9 0 -14 97 -8
111 6 16 16 12 20 -32 28 -28 5 -38 3 -42 -9z"/>
<path d="M3501 3131 c-16 -10 -8 -41 11 -41 21 1 51 28 43 39 -8 13 -35 14
-54 2z"/>
<path d="M3582 3081 c-10 -6 -11 -13 -1 -34 7 -15 15 -27 19 -27 15 0 19 14 9
27 -9 10 -8 13 5 13 21 0 21 16 0 24 -19 7 -16 7 -32 -3z"/>
<path d="M3765 3060 c3 -5 13 -10 21 -10 8 0 12 5 9 10 -3 6 -13 10 -21 10 -8
0 -12 -4 -9 -10z"/>
<path d="M3715 3050 c-3 -5 1 -10 9 -10 9 0 16 5 16 10 0 6 -4 10 -9 10 -6 0
-13 -4 -16 -10z"/>
<path d="M3956 3043 c-6 -14 -5 -15 5 -6 7 7 10 15 7 18 -3 3 -9 -2 -12 -12z"/>
<path d="M3510 3040 c0 -5 4 -10 9 -10 6 0 13 5 16 10 3 6 -1 10 -9 10 -9 0
-16 -4 -16 -10z"/>
<path d="M3475 3020 c-3 -5 1 -10 9 -10 9 0 16 5 16 10 0 6 -4 10 -9 10 -6 0
-13 -4 -16 -10z"/>
<path d="M3665 3009 c-62 -4 -123 -15 -140 -23 -16 -8 -43 -16 -60 -18 -22 -2
-31 -9 -33 -24 -3 -19 1 -20 55 -17 76 6 93 11 73 23 -18 11 -7 15 57 24 31 4
44 2 50 -8 7 -13 17 -13 71 0 50 12 67 12 78 3 8 -7 17 -9 21 -5 8 8 -37 56
-51 55 -6 -1 -60 -5 -121 -10z"/>
<path d="M3661 2891 c-8 -5 -41 -13 -73 -16 -53 -6 -59 -9 -56 -29 3 -19 8
-21 69 -19 74 2 117 15 126 39 10 27 -35 44 -66 25z"/>
<path d="M3810 2845 c0 -8 5 -15 10 -15 6 0 10 7 10 15 0 8 -4 15 -10 15 -5 0
-10 -7 -10 -15z"/>
<path d="M4040 3451 c-7 -14 -7 -22 2 -27 6 -4 14 -2 16 4 7 21 22 13 42 -20
l20 -33 0 37 c0 27 -6 40 -19 48 -29 15 -49 12 -61 -9z"/>
<path d="M4145 3081 c-19 -8 -19 -8 2 -19 24 -13 56 -6 50 12 -5 14 -26 17
-52 7z"/>
<path d="M4310 3080 c0 -5 5 -10 10 -10 6 0 10 5 10 10 0 6 -4 10 -10 10 -5 0
-10 -4 -10 -10z"/>
<path d="M4122 2795 c-19 -19 -22 -27 -13 -44 15 -28 14 -52 -6 -73 -24 -27
-7 -35 20 -10 16 15 22 31 20 50 -5 35 9 55 31 46 14 -5 17 -14 12 -37 -6 -29
-5 -29 17 -14 12 8 20 21 18 29 -2 7 -4 23 -4 36 1 15 -5 22 -17 22 -11 0 -22
5 -25 10 -10 15 -28 10 -53 -15z"/>
<path d="M3165 2720 c-3 -5 -1 -10 4 -10 6 0 11 5 11 10 0 6 -2 10 -4 10 -3 0
-8 -4 -11 -10z"/>
<path d="M3205 2709 c-4 -6 -5 -13 -2 -16 7 -7 27 6 27 18 0 12 -17 12 -25 -2z"/>
<path d="M3146 2614 c4 -44 13 -96 20 -118 8 -21 14 -48 14 -59 0 -19 1 -20
16 -6 14 14 14 21 1 65 -9 27 -19 80 -24 118 -5 42 -13 71 -21 74 -10 3 -12
-12 -6 -74z"/>
<path d="M2898 2675 c-7 -8 22 -148 33 -159 5 -6 9 -21 9 -34 0 -13 4 -21 9
-18 4 3 0 49 -10 103 -18 92 -28 120 -41 108z"/>
<path d="M2790 2657 c0 -8 7 -18 16 -21 11 -4 14 -1 12 11 -4 21 -28 30 -28
10z"/>
<path d="M3760 2615 c-13 -14 -20 -28 -15 -32 4 -5 10 -2 12 5 3 7 16 17 29
22 13 5 24 14 24 20 0 18 -26 11 -50 -15z"/>
<path d="M2790 2602 c0 -12 19 -26 26 -19 2 2 -2 10 -11 17 -9 8 -15 8 -15 2z"/>
<path d="M3091 2595 c1 -19 18 -51 18 -35 0 8 -4 22 -9 30 -5 8 -9 11 -9 5z"/>
<path d="M4468 2593 c-19 -5 -24 -18 -9 -28 11 -6 61 15 61 27 0 8 -22 9 -52
1z"/>
<path d="M4336 2564 c-9 -22 3 -32 14 -14 12 19 12 30 1 30 -5 0 -12 -7 -15
-16z"/>
<path d="M4680 2542 c0 -12 19 -26 26 -19 2 2 -2 10 -11 17 -9 8 -15 8 -15 2z"/>
<path d="M4745 2510 c-21 -23 -4 -27 19 -4 18 17 20 24 8 24 -5 0 -17 -9 -27
-20z"/>
<path d="M3715 2500 c-3 -5 3 -10 15 -10 12 0 18 5 15 10 -3 6 -10 10 -15 10
-5 0 -12 -4 -15 -10z"/>
<path d="M4652 2498 c-16 -21 -38 -80 -45 -123 l-7 -40 20 37 c23 43 53 128
47 134 -2 3 -9 -1 -15 -8z"/>
<path d="M2900 2403 c1 -21 24 -55 32 -47 9 9 -7 57 -20 62 -7 2 -12 -5 -12
-15z"/>
<path d="M4146 2355 c4 -8 16 -15 28 -15 21 1 21 1 2 15 -25 19 -37 19 -30 0z"/>
<path d="M3660 2330 c0 -5 5 -10 10 -10 6 0 10 5 10 10 0 6 -4 10 -10 10 -5 0
-10 -4 -10 -10z"/>
<path d="M3906 2236 c7 -19 38 -22 32 -3 -3 6 -12 13 -21 15 -12 2 -15 -1 -11
-12z"/>
<path d="M4840 2177 c-26 -16 -30 -23 -18 -25 18 -3 73 22 83 38 11 17 -28 9
-65 -13z"/>
<path d="M3820 2160 c11 -20 40 -28 40 -10 0 9 -31 30 -45 30 -3 0 -1 -9 5
-20z"/>
<path d="M4010 2160 c6 -11 16 -20 22 -20 6 0 3 9 -7 20 -10 11 -20 20 -22 20
-2 0 1 -9 7 -20z"/>
<path d="M3411 2150 c-13 -11 -28 -20 -35 -20 -6 0 -24 -14 -40 -30 -24 -25
-26 -31 -13 -36 11 -4 35 11 72 43 51 45 65 63 48 63 -5 -1 -19 -10 -32 -20z"/>
<path d="M4044 2085 c-3 -14 -3 -33 0 -42 6 -15 8 -15 16 -3 13 20 13 70 0 70
-5 0 -12 -11 -16 -25z"/>
<path d="M2206 1624 c-36 -36 -66 -70 -66 -76 0 -22 43 -79 70 -93 16 -8 45
-15 64 -15 88 0 114 144 41 223 -14 15 -30 27 -34 27 -5 0 -38 -30 -75 -66z"/>
<path d="M1752 576 c-16 -19 -41 -42 -56 -51 -34 -23 -33 -47 5 -79 68 -57
159 -15 159 73 0 43 -31 91 -60 91 -10 0 -31 -15 -48 -34z"/>
<path d="M444 678 c-68 -52 -105 -114 -112 -189 -4 -42 -2 -49 22 -64 85 -56
234 49 244 171 6 78 -13 104 -77 104 -35 0 -57 -6 -77 -22z"/>
<path d="M5610 679 c-83 -48 -151 -211 -105 -249 9 -7 37 -15 63 -17 40 -4 53
-1 88 25 100 73 143 192 88 247 -22 21 -92 19 -134 -6z"/>
<path d="M6090 843 c-61 -11 -43 -39 32 -51 165 -26 165 -137 2 -244 -66 -44
-68 -46 -56 -64 51 -73 192 -49 257 44 25 36 30 55 33 115 3 60 -1 80 -20 117
-38 75 -127 105 -248 83z"/>
</g>
</svg>
