<?xml version="1.0" standalone="no"?>
<!DOCTYPE svg PUBLIC "-//W3C//DTD SVG 20010904//EN"
 "http://www.w3.org/TR/2001/REC-SVG-20010904/DTD/svg10.dtd">
<svg version="1.0" xmlns="http://www.w3.org/2000/svg"
 width="1200.000000pt" height="1600.000000pt" viewBox="0 0 1200.000000 1600.000000"
 preserveAspectRatio="xMidYMid meet">
<metadata>
Created by potrace 1.16, written by Peter Selinger 2001-2019
</metadata>
<g transform="translate(0.000000,1600.000000) scale(0.100000,-0.100000)"
fill="#000000" stroke="none">
<path d="M3936 15565 c-11 -11 -16 -35 -16 -75 l0 -59 63 -36 c35 -19 76 -35
90 -35 15 0 41 -9 59 -20 39 -24 114 -26 142 -5 11 8 29 15 40 14 20 0 20 -1
-1 -9 -31 -12 -29 -45 2 -67 57 -40 118 -104 150 -157 47 -78 124 -164 167
-187 25 -13 40 -28 44 -47 3 -15 8 -34 10 -42 2 -8 21 -26 41 -40 20 -14 41
-29 47 -35 6 -5 27 -19 46 -29 56 -31 150 -104 150 -117 0 -17 -22 -9 -55 19
-54 45 -141 104 -182 122 -53 24 -130 95 -153 141 -19 36 -36 54 -177 184 -46
42 -65 68 -74 101 -16 54 -27 64 -98 92 -65 26 -79 27 -103 5 -18 -16 -24 -15
-116 23 l-97 40 -3 42 c-2 29 -9 45 -23 52 -13 8 -19 21 -19 47 l0 35 -67 -4
c-56 -4 -73 -1 -96 15 -41 28 -306 36 -364 11 -21 -9 -74 -20 -118 -23 -77 -6
-80 -7 -103 -41 -14 -21 -42 -43 -71 -56 -27 -12 -52 -27 -56 -34 -7 -11 19
-96 36 -114 4 -5 19 -8 33 -8 31 0 39 -22 31 -80 -6 -46 4 -66 42 -86 32 -17
54 -15 79 9 l23 21 28 -53 c15 -29 37 -61 48 -71 115 -105 133 -118 188 -132
70 -18 74 -20 92 -55 8 -16 27 -33 42 -38 125 -47 213 -56 213 -24 0 13 -18
26 -60 45 -33 15 -60 31 -60 35 0 4 -21 29 -47 54 -26 26 -44 50 -40 54 4 4
27 -13 50 -38 27 -30 59 -51 92 -63 87 -30 92 -33 112 -73 18 -34 24 -38 62
-41 23 -2 49 2 56 8 17 14 14 83 -5 105 -21 26 -4 28 40 5 23 -12 81 -36 129
-55 81 -30 168 -86 262 -164 20 -17 52 -38 70 -46 71 -33 202 -143 219 -185 9
-22 19 -30 39 -30 14 0 44 -12 66 -25 49 -30 69 -31 102 -5 31 24 56 25 88 4
36 -23 69 -15 73 19 2 15 5 27 8 27 2 0 22 -11 44 -25 22 -14 42 -25 45 -25
12 0 241 -114 247 -124 4 -6 8 -20 8 -32 0 -17 11 -24 58 -37 31 -9 73 -19 92
-22 30 -5 90 -48 90 -65 0 -8 -108 -5 -145 4 -58 15 -285 139 -285 157 0 5
-12 22 -28 38 -19 21 -41 31 -76 36 -45 7 -50 6 -72 -21 l-23 -29 -27 29 c-25
27 -31 28 -85 23 -81 -9 -107 -23 -111 -60 -3 -27 -8 -32 -55 -46 -43 -12 -53
-20 -53 -37 0 -31 -25 -37 -63 -14 -39 24 -80 25 -162 3 -50 -13 -76 -15 -131
-7 -73 9 -92 27 -36 32 42 4 51 26 22 58 -26 26 -19 30 28 13 42 -15 77 3 62
31 -11 21 -79 60 -103 60 -8 0 -22 9 -32 20 -10 11 -27 20 -39 20 -11 0 -40 8
-63 18 -35 14 -43 22 -43 44 0 17 -11 35 -31 52 -27 23 -36 25 -84 20 -46 -6
-62 -3 -108 19 -29 15 -67 41 -84 59 -81 85 -86 88 -136 88 -51 0 -66 10 -123
86 l-21 28 -42 -27 c-22 -15 -41 -33 -41 -41 0 -25 49 -61 138 -101 88 -38 90
-40 95 -77 7 -51 18 -62 80 -82 63 -20 138 -89 142 -131 2 -15 11 -35 19 -44
21 -23 20 -31 -4 -31 -11 0 -20 -7 -20 -15 0 -9 -8 -27 -17 -41 -12 -19 -14
-30 -6 -42 8 -13 1 -20 -41 -40 -28 -13 -65 -37 -83 -54 -29 -28 -35 -29 -75
-22 -56 10 -67 8 -103 -25 -16 -15 -47 -34 -67 -44 -23 -10 -48 -33 -64 -58
-25 -41 -26 -47 -22 -147 6 -123 15 -137 86 -128 23 3 42 2 42 -3 0 -5 16 -32
36 -61 28 -41 33 -54 23 -66 -14 -17 -15 -80 -1 -159 7 -38 7 -64 1 -69 -5 -6
-9 -22 -9 -36 0 -33 -30 -117 -53 -150 -9 -13 -17 -34 -17 -45 0 -27 -39 -89
-72 -115 -24 -18 -26 -24 -17 -48 13 -34 4 -68 -29 -112 -18 -24 -27 -48 -28
-75 0 -30 -11 -56 -42 -101 -23 -34 -49 -67 -57 -74 -8 -7 -15 -21 -15 -31 0
-19 -34 -44 -49 -35 -14 9 -93 -30 -128 -63 -27 -24 -32 -35 -27 -58 5 -25 1
-31 -31 -46 -31 -15 -43 -16 -72 -6 -32 10 -37 9 -63 -16 -18 -18 -42 -29 -65
-31 -46 -3 -65 -19 -65 -55 0 -19 -5 -29 -15 -29 -11 0 -15 -13 -15 -54 0 -57
11 -76 34 -56 12 9 15 1 18 -42 2 -29 1 -58 -4 -64 -5 -6 -7 -60 -6 -120 1
-60 -2 -136 -6 -169 -7 -51 -5 -69 12 -110 11 -28 25 -76 32 -107 11 -50 11
-66 -5 -125 -10 -37 -21 -99 -25 -138 -12 -112 -31 -156 -76 -180 l-39 -20 -1
-93 c-1 -85 -3 -94 -27 -122 -15 -17 -34 -30 -42 -30 -8 0 -19 -9 -25 -19 -8
-17 -14 -18 -39 -8 -22 8 -36 8 -55 -1 -24 -10 -26 -16 -20 -50 5 -32 2 -43
-21 -71 -27 -31 -28 -35 -22 -117 5 -81 4 -86 -17 -94 -33 -12 -43 -30 -49
-91 -3 -31 -13 -71 -22 -89 -11 -21 -20 -71 -24 -139 -4 -59 -10 -112 -14
-118 -4 -6 -2 -23 5 -37 10 -22 8 -29 -9 -49 -11 -12 -23 -34 -27 -49 -3 -14
-19 -39 -35 -55 -16 -16 -32 -43 -36 -61 -3 -18 -15 -37 -26 -42 -11 -6 -19
-21 -19 -35 0 -17 -9 -29 -30 -40 -35 -18 -38 -41 -10 -87 11 -18 20 -43 20
-55 0 -12 9 -27 20 -33 17 -9 20 -21 20 -89 0 -58 4 -82 15 -91 21 -18 19 -36
-14 -94 -16 -28 -29 -64 -29 -79 1 -34 -37 -77 -67 -77 -39 0 -45 -17 -25 -79
10 -31 21 -68 24 -83 4 -15 29 -54 56 -87 42 -50 50 -67 50 -100 0 -23 -9 -55
-20 -73 -23 -39 -27 -131 -8 -202 10 -39 10 -48 -4 -63 -9 -10 -23 -38 -31
-63 l-16 -45 -2 70 c-2 39 -1 79 0 90 7 44 0 138 -11 158 -17 33 -27 37 -110
37 -50 0 -79 4 -84 12 -5 7 -8 92 -7 190 1 162 0 178 -18 194 -16 15 -19 31
-19 112 0 88 2 98 32 150 26 47 32 67 34 127 2 94 8 109 46 126 53 23 59 109
7 109 -10 0 -21 -4 -24 -10 -3 -5 -13 -10 -22 -10 -22 0 -9 44 28 95 38 52 60
100 66 144 2 20 16 62 29 94 31 71 30 130 -2 135 -18 3 -28 -10 -58 -75 -21
-43 -48 -89 -60 -103 -13 -14 -29 -41 -35 -61 -7 -20 -27 -51 -46 -68 -31 -28
-35 -36 -34 -79 1 -45 -2 -52 -45 -93 -44 -42 -46 -47 -48 -102 0 -33 3 -62 9
-65 27 -18 24 -53 -7 -104 -28 -44 -33 -63 -34 -123 -1 -39 4 -84 11 -103 9
-21 11 -54 8 -96 -4 -47 -2 -75 10 -103 18 -42 20 -51 30 -172 6 -64 15 -97
36 -138 17 -32 29 -71 29 -92 0 -20 5 -52 11 -71 6 -19 11 -85 10 -146 -2 -71
2 -114 8 -119 6 -3 11 -16 11 -29 0 -13 9 -49 21 -82 43 -123 59 -211 79 -434
6 -69 15 -135 20 -148 13 -30 13 -81 0 -119 -8 -23 -7 -41 4 -74 10 -28 12
-47 6 -53 -6 -6 -10 -43 -10 -84 0 -61 5 -83 29 -130 16 -31 35 -73 42 -92 15
-42 24 -144 14 -168 -6 -15 -8 -15 -15 3 -5 11 -9 43 -9 71 -1 29 -8 65 -16
80 -8 16 -15 36 -15 44 0 8 -9 33 -21 54 -11 22 -23 64 -26 95 -7 88 -11 101
-33 101 -40 0 -65 -95 -38 -143 15 -27 29 -124 33 -232 1 -44 13 -123 25 -175
28 -121 36 -224 20 -254 -10 -19 -6 -41 23 -137 19 -63 43 -157 52 -209 9 -52
21 -116 26 -142 11 -47 1 -88 -21 -88 -6 0 -10 -17 -10 -39 0 -23 -8 -48 -20
-64 -31 -40 -17 -90 53 -178 35 -45 57 -116 57 -184 0 -73 -16 -83 -63 -40
-29 27 -37 41 -37 68 0 19 -7 51 -15 70 -8 20 -15 56 -15 81 0 60 -8 76 -36
76 -39 0 -48 -31 -28 -103 9 -34 20 -85 24 -114 5 -28 11 -56 14 -62 4 -5 11
-35 17 -65 5 -31 16 -68 24 -83 9 -17 15 -57 15 -100 0 -73 27 -170 56 -204
17 -19 19 -151 4 -180 -7 -12 -21 -19 -40 -19 -31 0 -38 -7 -59 -60 -22 -57
-24 -104 -7 -138 9 -17 16 -51 16 -75 0 -25 7 -64 15 -87 11 -30 13 -62 9
-109 -6 -62 -4 -69 25 -117 29 -46 71 -179 71 -223 0 -10 11 -32 25 -51 14
-19 25 -40 25 -48 0 -8 16 -56 35 -107 25 -67 33 -102 29 -125 -5 -22 -2 -36
11 -50 10 -11 19 -36 22 -55 2 -20 15 -61 28 -92 14 -30 25 -69 25 -85 0 -16
7 -43 16 -60 12 -23 14 -45 9 -89 -5 -44 -3 -65 7 -82 36 -56 57 -145 67 -287
10 -123 15 -150 33 -175 14 -19 23 -46 24 -75 1 -25 15 -87 33 -138 17 -51 31
-101 31 -110 0 -9 7 -30 16 -47 9 -18 16 -64 18 -120 4 -89 39 -217 71 -255
17 -21 75 -142 75 -158 0 -26 42 -105 70 -131 16 -14 31 -37 34 -51 10 -55 85
-167 193 -292 39 -46 76 -76 113 -95 30 -15 79 -44 108 -66 30 -22 61 -37 73
-35 14 2 28 -9 47 -36 15 -22 46 -49 69 -61 23 -11 53 -31 66 -43 13 -12 35
-22 50 -22 14 0 50 -11 79 -24 117 -52 194 -90 216 -107 16 -12 41 -17 85 -17
41 0 78 -7 110 -21 63 -27 81 -26 101 4 9 14 22 25 30 25 19 0 46 -33 46 -57
0 -28 31 -53 65 -53 16 0 49 -7 73 -17 36 -14 51 -14 97 -4 42 9 59 10 76 0
15 -7 44 -9 87 -5 61 6 67 5 93 -20 28 -26 30 -27 116 -20 114 9 201 28 253
55 25 13 59 21 89 21 39 0 59 7 99 34 36 24 67 36 109 41 64 8 83 18 83 46 0
31 28 49 76 49 41 0 49 5 99 55 36 36 64 55 79 55 13 0 40 7 59 15 20 8 61 15
90 15 53 0 87 13 196 76 25 14 35 16 38 7 7 -19 38 -16 58 7 13 15 16 29 11
58 -3 22 -3 42 1 45 11 11 43 -24 43 -47 0 -16 10 -24 40 -34 58 -18 78 -15
135 17 29 16 70 33 91 36 21 4 64 15 94 25 50 16 62 17 127 4 79 -15 89 -14
174 16 33 11 70 20 83 20 26 0 42 15 48 45 3 17 10 20 43 17 27 -1 55 6 85 22
43 22 45 25 43 63 -2 31 2 44 22 63 24 23 26 23 39 5 11 -16 11 -21 0 -33 -48
-48 31 -57 147 -16 41 14 97 29 124 34 28 4 70 15 94 24 24 9 58 16 77 16 52
0 84 17 99 53 16 38 86 92 130 100 30 5 191 72 211 89 7 4 14 21 17 37 5 25
13 30 57 41 36 9 56 20 71 41 11 16 32 32 47 35 47 12 95 41 149 91 54 49 158
99 233 110 49 8 89 30 119 65 14 17 40 37 57 44 18 8 49 31 69 51 41 43 103
83 222 143 100 51 200 155 241 251 11 25 42 70 70 100 54 59 75 99 66 123 -3
9 4 19 17 26 38 21 68 63 69 97 0 21 10 44 30 66 32 37 36 56 20 88 -14 25 4
63 73 154 39 52 60 93 82 160 17 53 41 104 58 124 28 32 29 38 24 100 -5 60
-3 68 25 109 24 35 29 51 25 80 -4 32 0 42 31 74 l36 38 -18 36 -17 37 38 74
c20 41 40 96 43 121 4 43 8 48 38 57 28 8 32 13 32 46 0 44 -25 69 -69 69 -26
0 -32 4 -29 18 2 13 13 17 43 17 35 0 40 3 48 32 5 17 17 33 27 36 13 3 19 20
24 67 7 58 6 64 -18 89 -19 20 -26 38 -26 68 0 59 -8 73 -40 73 -34 0 -63 -25
-56 -49 12 -44 17 -121 7 -121 -10 0 -16 26 -26 119 -3 29 -8 57 -10 62 -3 4
14 9 37 11 55 4 65 24 77 153 5 53 18 127 27 165 16 61 17 78 5 144 -7 42 -9
81 -5 88 7 12 22 120 29 208 1 25 9 57 16 73 11 24 10 33 -6 65 -13 25 -20 67
-23 133 -4 88 -6 98 -27 107 -23 11 -35 47 -35 105 0 17 -4 44 -10 61 -5 17
-16 58 -25 91 -9 33 -20 73 -25 89 -7 21 -6 32 2 37 14 9 6 62 -20 120 -30 67
-45 149 -31 165 8 9 10 41 7 89 -4 66 -9 80 -37 115 -18 23 -31 50 -31 67 0
29 -48 107 -142 232 -60 79 -98 160 -98 207 0 29 -8 44 -40 77 -52 51 -70 41
-52 -30 6 -27 14 -75 18 -108 4 -33 13 -72 20 -87 8 -15 14 -45 14 -68 0 -37
6 -46 60 -98 38 -37 60 -66 60 -81 0 -24 24 -76 48 -103 20 -24 23 -48 26
-243 3 -166 3 -171 30 -213 15 -23 31 -40 36 -37 18 11 22 -18 10 -78 -11 -57
-10 -66 9 -111 22 -51 21 -67 -2 -47 -16 13 -40 66 -59 131 -11 40 -16 45 -41
45 -21 -1 -26 3 -21 15 25 58 1 137 -44 142 -14 2 -27 9 -30 15 -2 9 5 11 27
7 44 -9 61 9 61 66 0 49 -9 60 -51 60 -30 0 -22 15 13 25 33 10 52 45 25 45
-8 0 -20 6 -26 14 -10 11 -8 16 8 21 37 11 43 39 16 65 -17 16 -25 34 -25 56
0 19 -9 44 -24 61 -13 15 -33 47 -44 70 -25 47 -56 73 -90 73 -33 0 -72 -29
-72 -53 0 -14 -3 -18 -10 -11 -7 7 -6 22 5 47 8 20 15 46 15 57 0 29 -92 142
-134 164 -32 17 -36 24 -36 58 0 36 -3 40 -42 58 -55 25 -73 25 -115 -1 -31
-20 -35 -20 -58 -5 -31 21 -44 20 -75 -4 -30 -23 -40 -25 -40 -6 0 7 11 21 25
30 17 11 25 26 25 46 0 25 4 29 33 32 27 2 33 8 35 31 2 15 5 27 7 27 1 0 41
-21 89 -46 47 -25 95 -44 108 -42 19 3 24 -4 36 -47 20 -72 35 -99 57 -104 31
-5 45 -21 45 -50 0 -35 17 -51 53 -51 28 0 29 1 22 38 -3 20 -7 67 -9 103 -1
37 -8 74 -15 82 -8 10 -10 27 -6 46 7 35 -16 55 -77 65 -26 5 -46 18 -68 44
-16 20 -30 40 -30 45 0 5 -17 34 -38 65 -21 32 -42 66 -48 77 -8 14 -25 21
-60 25 -45 5 -50 8 -59 38 -5 19 -29 56 -52 83 -36 43 -41 54 -36 82 9 47 21
67 49 77 32 13 32 49 -1 80 -14 13 -25 32 -25 41 0 19 -28 39 -55 39 -8 0 -21
-11 -27 -25 -9 -20 -18 -25 -50 -25 -32 0 -40 -4 -48 -26 -6 -15 -20 -38 -31
-53 -18 -22 -20 -34 -14 -81 4 -30 13 -62 20 -70 7 -8 16 -26 20 -39 4 -13 23
-41 43 -63 35 -39 35 -41 17 -54 -22 -16 -125 -19 -125 -4 0 6 20 10 45 10 56
0 58 12 11 77 -75 106 -83 154 -40 256 14 34 28 64 29 65 2 2 23 8 46 13 24 6
48 14 55 19 6 6 21 41 34 79 24 69 24 70 5 91 -15 17 -29 21 -67 19 -47 -3
-50 -1 -109 57 -88 87 -102 112 -94 177 4 29 2 71 -4 93 -6 21 -11 71 -12 109
-2 39 -8 79 -16 90 -7 11 -13 38 -13 60 0 53 -11 67 -46 63 -26 -3 -29 -7 -32
-42 -2 -21 4 -56 12 -77 22 -53 20 -104 -3 -126 -10 -10 -24 -36 -32 -58 -12
-38 -13 -39 -20 -15 -4 14 -7 38 -8 53 -1 15 -8 30 -16 33 -21 8 -55 71 -55
103 0 37 -17 51 -62 51 -45 0 -97 20 -117 43 -11 14 -11 20 -1 32 10 12 24 14
63 9 l50 -7 -7 69 c-4 37 -4 65 1 61 10 -11 71 -170 88 -232 24 -84 73 -128
104 -92 9 11 8 27 -3 70 -12 46 -13 74 -4 156 l11 100 -31 36 c-18 20 -32 42
-32 50 0 7 -5 26 -12 42 -7 15 -13 42 -13 58 -4 97 -7 114 -23 133 -15 17 -20
45 -25 131 -4 60 -12 121 -19 136 -10 23 -16 26 -45 22 -27 -5 -33 -3 -33 13
0 35 -12 50 -40 50 -39 0 -47 17 -16 32 35 15 33 33 -10 85 -20 25 -33 50 -30
58 8 23 22 18 45 -14 21 -29 64 -121 56 -121 -2 0 1 -13 6 -30 10 -28 40 -47
58 -36 20 12 21 68 2 105 -12 23 -16 42 -11 51 10 15 2 68 -12 86 -12 16 -38
119 -38 150 0 35 -28 80 -59 94 -25 11 -25 12 -6 22 46 24 54 68 13 68 -11 0
-22 8 -25 20 -7 27 -12 25 -44 -12 -32 -39 -48 -31 -31 15 7 19 12 48 12 65 0
31 -2 32 -41 32 -31 0 -47 -6 -69 -29 -16 -16 -46 -33 -67 -38 -45 -10 -53
-32 -26 -71 10 -15 20 -43 23 -62 5 -32 8 -35 43 -38 40 -3 46 -12 22 -32 -12
-10 -29 -6 -92 25 -67 33 -83 37 -127 31 -41 -4 -60 -1 -109 21 -55 25 -62 32
-84 82 -14 31 -21 57 -16 58 64 23 81 67 42 109 -19 21 -20 24 -5 30 19 7 21
27 4 54 -15 23 -4 37 16 21 8 -7 25 -9 42 -5 26 7 27 6 21 -23 -7 -36 15 -73
44 -73 11 0 22 8 25 18 3 9 13 34 24 55 23 45 18 61 -28 105 l-34 33 7 72 c3
39 11 79 16 89 5 9 9 35 9 57 0 36 -7 49 -55 101 -55 59 -55 60 -55 124 0 73
-12 89 -62 84 l-33 -3 3 -69 c2 -37 10 -84 18 -102 13 -30 13 -35 -1 -40 -33
-13 -46 16 -44 90 2 39 0 77 -5 84 -4 7 -25 24 -47 38 -45 28 -44 48 1 31 25
-9 36 -9 58 4 36 20 38 68 4 85 -13 6 -31 27 -40 45 -21 43 -50 48 -82 14 -27
-29 -42 -31 -60 -10 -11 13 -10 18 8 31 27 19 28 55 3 103 -11 20 -22 48 -25
63 -4 15 -26 50 -51 78 -30 34 -45 60 -45 78 0 16 -5 33 -12 40 -15 15 -64 16
-73 2 -10 -16 -25 -1 -25 23 0 15 -10 26 -30 35 -16 8 -44 32 -62 55 -17 23
-40 50 -50 60 -10 10 -18 24 -18 31 0 25 -35 46 -75 43 -31 -1 -40 2 -43 16
-2 12 3 17 20 17 13 0 32 6 42 13 25 18 8 57 -43 97 -25 20 -41 42 -43 59 -3
25 -6 26 -58 26 l-55 0 3 -62 c3 -62 2 -63 -23 -63 -14 0 -28 -7 -31 -15 -4
-8 -15 -15 -25 -15 -15 0 -19 7 -19 34 0 19 -6 38 -12 42 -9 6 -5 10 12 14 14
3 26 14 28 24 5 23 -17 66 -33 66 -7 0 -15 14 -19 32 -8 42 -33 68 -66 68 -55
0 -64 38 -21 88 31 36 32 36 51 -21 7 -21 39 -66 75 -104 60 -63 66 -67 92
-57 44 15 42 53 -6 127 -22 34 -43 75 -47 90 -4 17 -19 34 -38 45 -29 15 -30
17 -8 20 17 3 22 10 22 31 0 33 -14 48 -50 53 -19 2 -31 16 -52 58 -15 30 -27
67 -27 82 -1 29 -14 41 -46 44 -30 2 -45 -15 -45 -52 0 -19 -5 -34 -11 -34 -8
0 -10 17 -5 55 5 49 4 55 -15 66 -12 6 -37 9 -55 6 -29 -5 -34 -3 -34 14 0 11
-7 22 -15 25 -27 11 -16 26 14 19 22 -5 30 -2 36 12 6 15 13 11 49 -31 37 -42
47 -48 70 -42 36 9 34 39 -8 87 -34 40 -46 79 -46 154 0 22 -7 62 -15 89 -8
27 -15 62 -15 77 0 18 -14 44 -39 73 -23 26 -41 60 -46 83 -12 65 -40 80 -90
47 -22 -14 -25 -24 -25 -72 l0 -55 -23 21 c-13 12 -35 22 -49 22 -17 0 -32 9
-43 26 -15 23 -21 26 -56 20 -21 -3 -39 -3 -40 1 0 5 -2 31 -3 60 l-3 52 46
-5 c44 -6 62 -18 86 -58 23 -38 105 -18 105 25 0 12 -26 51 -58 87 -77 89
-122 147 -122 160 0 6 -22 29 -49 52 -26 22 -60 63 -75 90 -15 28 -31 50 -36
50 -5 0 -25 14 -43 30 -20 17 -46 30 -61 30 -17 0 -26 5 -26 16 0 34 -171 232
-209 241 -28 6 -89 37 -133 66 -15 10 -45 42 -67 70 -70 91 -126 147 -147 147
-19 0 -101 56 -159 109 -16 15 -60 49 -97 75 -37 25 -73 55 -80 65 -8 11 -41
41 -73 68 -100 80 -229 195 -239 212 -5 9 -25 35 -45 57 -20 23 -54 71 -76
105 -22 35 -46 70 -52 77 -7 7 -16 25 -20 40 -7 30 -72 130 -97 151 -9 8 -19
31 -22 52 -5 28 -18 49 -45 74 l-39 35 -148 0 c-135 0 -179 5 -238 24 -14 4
-28 1 -38 -9z m246 -40 l158 -1 39 -38 c25 -24 41 -50 44 -72 3 -19 22 -53 42
-76 20 -24 48 -67 63 -98 34 -70 115 -193 163 -246 20 -23 40 -51 44 -63 3
-11 10 -21 15 -21 4 0 21 -12 38 -27 16 -16 41 -37 53 -47 13 -11 75 -65 137
-120 62 -56 136 -118 165 -139 29 -21 66 -51 82 -67 43 -41 147 -110 166 -110
9 0 43 -30 75 -66 33 -37 85 -93 116 -125 65 -66 58 -73 -40 -42 -45 15 -57
23 -69 50 -12 29 -34 43 -195 122 -99 49 -187 87 -194 84 -8 -3 -14 -18 -14
-34 0 -33 -2 -34 -33 -15 -40 26 -92 21 -128 -11 -15 -12 -22 -11 -62 12 -25
14 -55 25 -65 25 -12 0 -24 11 -31 29 -19 43 -203 191 -240 191 -6 0 -28 15
-48 33 -21 18 -54 44 -73 57 -19 13 -47 34 -61 47 -26 24 -270 130 -321 140
-23 4 -28 1 -34 -23 -4 -15 -8 -47 -8 -71 -1 -55 -21 -54 -52 0 -18 33 -31 42
-90 62 -50 18 -78 35 -104 63 -63 70 -110 79 -110 23 0 -23 12 -42 50 -79 59
-58 64 -77 19 -68 -19 4 -48 24 -73 50 -34 36 -49 45 -91 51 -42 6 -57 14 -97
55 -26 27 -55 53 -66 59 -10 5 -36 39 -57 75 -46 78 -62 87 -93 50 -23 -26
-25 -27 -50 -11 -25 15 -27 20 -23 72 3 63 -15 95 -54 95 -21 0 -45 34 -45 64
0 8 19 23 43 34 24 11 55 36 70 55 25 33 29 35 106 39 48 3 87 10 97 19 13 11
52 14 169 13 142 -1 153 -2 183 -24 30 -22 35 -23 83 -12 61 14 73 9 65 -29
-4 -22 -1 -32 14 -41 13 -9 20 -24 20 -45 0 -41 28 -63 131 -102 90 -35 115
-38 138 -17 14 12 23 11 71 -8 50 -20 57 -27 83 -82 34 -70 50 -89 141 -162
43 -34 83 -78 107 -117 42 -66 92 -112 175 -160 74 -43 168 -107 172 -117 11
-26 122 -53 122 -30 0 20 -37 82 -60 100 -14 11 -70 50 -125 87 -109 73 -125
88 -125 120 0 23 -29 54 -71 76 -32 17 -101 99 -151 181 -32 54 -117 139 -150
151 -9 3 -8 9 5 19 12 9 18 23 15 39 -2 19 -10 25 -36 27 -19 2 -44 -4 -57
-12 -32 -21 -84 -20 -114 1 -13 9 -44 20 -68 24 -24 5 -64 20 -88 35 -43 25
-45 28 -45 71 l0 46 38 -9 c20 -4 108 -9 194 -9z m-334 -977 c7 -10 41 -32 74
-49 50 -25 71 -30 117 -28 71 4 99 -11 103 -53 3 -28 10 -36 48 -55 25 -12 54
-22 65 -23 11 0 34 -12 50 -25 l30 -25 -27 0 c-23 0 -28 -5 -28 -24 0 -14 10
-30 25 -40 34 -22 32 -36 -5 -36 -38 0 -48 -22 -26 -55 14 -22 24 -25 71 -25
29 0 64 -4 77 -9 16 -6 42 -3 83 10 77 24 116 24 148 -1 38 -30 67 -25 108 20
22 24 50 43 68 46 24 5 31 12 31 30 0 34 24 51 81 59 48 7 53 6 79 -24 36 -39
52 -39 83 0 34 44 61 34 52 -19 -5 -29 0 -50 25 -100 32 -67 36 -92 19 -124
-14 -25 -60 -67 -75 -68 -18 0 -50 -43 -66 -90 -21 -60 -31 -155 -34 -325 -2
-123 0 -143 16 -167 11 -14 24 -47 31 -72 10 -40 9 -48 -10 -75 -25 -34 -27
-68 -6 -118 8 -19 15 -45 15 -57 0 -12 4 -26 8 -32 5 -5 17 -36 27 -69 9 -33
28 -77 41 -97 45 -70 114 -237 114 -276 0 -20 11 -64 24 -97 13 -33 29 -91 35
-130 6 -38 13 -87 16 -108 4 -27 19 -51 53 -85 26 -26 58 -70 71 -96 21 -44
23 -58 18 -132 -4 -49 -2 -84 3 -84 18 0 27 36 29 113 2 76 1 81 -39 148 -22
38 -49 73 -60 79 -32 17 -47 60 -55 153 -5 65 -15 105 -35 150 -16 34 -31 86
-34 116 -3 35 -17 78 -40 122 -20 38 -36 74 -36 82 0 7 -13 31 -29 53 -26 36
-50 99 -81 217 -7 26 -17 50 -21 53 -18 11 -8 63 17 93 25 30 25 31 10 81 -8
28 -25 64 -37 81 -19 27 -21 42 -20 152 1 67 6 140 11 162 5 22 10 57 10 77 0
51 34 124 67 144 15 10 40 29 56 43 22 20 36 25 68 22 51 -3 64 8 83 74 9 29
22 55 29 58 8 3 46 -11 86 -31 61 -30 83 -36 145 -37 50 -1 80 -7 97 -18 25
-18 99 -23 99 -7 0 23 -25 60 -44 66 -23 7 -76 53 -76 66 0 5 13 2 30 -7 16
-8 36 -15 44 -15 12 0 156 -168 156 -183 0 -3 -19 -5 -42 -4 -39 2 -43 0 -45
-23 -3 -30 47 -90 75 -90 33 0 127 -111 145 -171 3 -9 21 -19 41 -23 25 -5 41
-16 53 -37 18 -31 51 -46 78 -35 24 9 18 33 -18 73 -18 21 -39 47 -47 57 -15
20 -15 20 18 0 18 -10 44 -38 58 -62 14 -23 45 -66 69 -95 24 -29 59 -69 76
-90 27 -32 30 -40 18 -48 -22 -14 -27 -11 -53 30 -23 36 -27 38 -91 45 -36 4
-70 4 -74 2 -4 -3 -8 -37 -8 -75 0 -83 16 -107 65 -96 24 5 33 1 50 -19 11
-15 29 -26 40 -26 35 0 52 -11 52 -34 0 -31 43 -51 64 -30 14 14 14 76 1 121
-4 11 30 43 45 43 4 0 12 -24 19 -52 8 -33 26 -66 46 -88 24 -26 35 -50 43
-95 6 -33 15 -78 21 -100 6 -22 11 -60 11 -85 0 -44 7 -62 44 -114 10 -15 17
-29 14 -31 -3 -3 -19 15 -37 40 -32 45 -71 60 -86 34 -4 -6 -14 -8 -22 -5 -19
7 -49 -9 -57 -30 -4 -10 1 -25 11 -36 11 -12 16 -31 15 -49 -3 -26 -1 -29 27
-29 16 0 33 5 36 10 10 16 42 12 49 -6 3 -9 6 -38 6 -65 0 -44 2 -49 26 -55
33 -8 42 2 46 50 4 46 28 63 28 19 0 -34 34 -110 62 -140 12 -13 32 -23 45
-23 13 0 23 -4 23 -10 0 -5 -11 -10 -24 -10 -53 0 -44 -46 14 -79 27 -15 40
-29 40 -43 0 -12 11 -35 24 -52 23 -31 56 -90 56 -101 0 -3 -9 -5 -20 -5 -11
0 -20 5 -20 11 0 5 -20 28 -45 51 -29 27 -49 56 -60 88 -20 60 -36 75 -64 60
-12 -6 -21 -14 -21 -19 0 -4 -11 -20 -25 -35 -49 -53 -20 -125 52 -126 25 0
43 -27 43 -63 0 -16 8 -28 26 -35 31 -15 24 -31 -11 -25 -35 7 -43 -21 -16
-58 12 -16 19 -34 16 -39 -24 -39 57 -79 94 -46 10 9 27 16 39 16 25 0 35 26
30 83 -3 39 -1 42 24 45 23 3 28 -1 34 -25 4 -15 26 -44 48 -65 37 -33 39 -37
21 -43 -53 -17 -67 -44 -45 -85 9 -18 19 -21 55 -19 25 2 47 0 51 -3 10 -11
-38 -32 -86 -38 -37 -4 -48 -11 -65 -39 -11 -18 -34 -49 -51 -69 -27 -31 -36
-35 -78 -34 -26 0 -62 -6 -79 -13 -44 -18 -93 -72 -110 -120 -8 -22 -30 -74
-49 -115 -20 -41 -38 -99 -41 -128 -6 -48 -4 -54 18 -68 21 -14 25 -24 25 -66
0 -36 9 -67 30 -110 l31 -60 -61 -91 -60 -90 0 -77 c0 -56 -5 -86 -20 -115
-11 -22 -20 -50 -20 -63 0 -14 -16 -43 -37 -67 -46 -51 -69 -81 -90 -117 -22
-36 -83 -68 -130 -68 -28 0 -54 -10 -89 -32 -63 -42 -78 -61 -104 -130 -11
-32 -25 -60 -30 -63 -6 -4 -10 -31 -10 -61 0 -45 -4 -59 -23 -77 -33 -31 -47
-60 -47 -100 0 -30 -40 -145 -59 -172 -4 -5 -9 -43 -10 -83 -1 -40 -9 -98 -17
-128 -8 -30 -14 -70 -14 -89 0 -58 -15 -82 -57 -92 -32 -7 -39 -13 -41 -37 -2
-18 4 -40 18 -58 16 -22 19 -36 14 -64 -6 -30 -2 -40 22 -65 l29 -30 0 -157
c0 -127 3 -163 16 -187 10 -16 20 -60 24 -96 6 -59 4 -72 -19 -121 l-26 -55
20 -74 c11 -41 20 -77 20 -81 0 -5 7 -8 15 -8 19 0 19 26 -2 100 -16 59 -16
59 10 118 34 75 34 126 2 206 -23 57 -26 80 -29 235 l-4 172 36 29 36 29 -12
62 c-6 34 -18 69 -27 79 -26 29 -28 80 -6 160 12 41 21 103 21 137 0 49 7 77
31 130 17 38 35 94 38 126 6 43 14 64 35 86 21 22 30 44 36 88 8 58 42 150 70
188 8 11 35 35 59 53 35 25 55 32 91 32 25 0 56 7 68 16 22 15 22 15 23 -38 0
-29 5 -75 10 -103 20 -102 21 -115 5 -161 -20 -59 -20 -57 2 -45 41 22 49 98
23 211 -16 72 -14 167 6 198 23 37 94 124 116 142 10 8 19 31 21 51 2 20 9 46
16 59 7 12 14 59 17 104 6 88 13 105 79 204 24 36 44 73 44 82 0 9 -14 42 -31
73 -26 48 -29 63 -24 101 6 41 5 46 -24 72 -39 34 -39 56 0 141 17 38 46 100
64 138 18 39 41 77 51 86 26 22 90 42 112 35 25 -8 86 18 109 47 10 13 27 40
37 59 17 31 26 37 60 41 23 3 53 8 67 12 23 6 32 0 74 -52 26 -32 56 -61 66
-65 25 -10 40 -50 33 -86 -8 -38 14 -57 43 -37 12 9 23 25 25 37 2 13 11 24
21 26 13 3 17 -3 17 -27 0 -21 15 -48 50 -92 28 -34 50 -72 50 -83 0 -12 9
-36 20 -54 26 -42 25 -50 -5 -64 -34 -15 -31 -43 7 -79 40 -36 61 -37 86 -4
25 31 40 32 44 3 2 -12 14 -28 26 -34 37 -18 45 -29 29 -43 -11 -9 -21 -9 -40
0 -40 18 -77 4 -77 -29 0 -21 11 -35 47 -62 l46 -35 2 -78 c1 -43 7 -83 13
-89 6 -6 28 -11 49 -12 l38 -1 -1 45 c-1 25 -6 71 -11 103 -6 33 -6 60 -1 63
15 10 39 -18 33 -37 -4 -10 -3 -40 1 -66 6 -38 17 -58 57 -100 l50 -53 -11
-64 c-7 -35 -12 -94 -12 -132 0 -63 2 -70 32 -101 l32 -33 -21 -43 -22 -42 0
48 -1 49 -37 -3 c-21 -1 -46 2 -55 6 -37 15 -53 2 -52 -43 0 -23 -3 -42 -8
-42 -16 0 -7 -57 12 -75 23 -21 26 -41 6 -48 -19 -7 -36 12 -36 40 0 26 -38
47 -65 37 -10 -4 -21 5 -32 25 -28 49 -65 37 -82 -26 -6 -23 -16 -30 -55 -40
-61 -15 -76 -28 -76 -67 0 -43 16 -56 66 -56 33 0 51 7 84 35 48 40 60 42 84
16 16 -17 16 -22 2 -49 -8 -16 -18 -52 -22 -80 -6 -47 -4 -53 21 -76 19 -18
31 -41 36 -74 13 -78 10 -154 -5 -171 -8 -9 -19 -50 -24 -92 -8 -59 -18 -91
-50 -146 -41 -72 -62 -145 -62 -210 0 -31 8 -44 51 -84 l52 -48 -11 -43 c-6
-24 -14 -88 -17 -143 -5 -61 -14 -116 -25 -140 -16 -35 -27 -43 -82 -65 -69
-27 -131 -76 -155 -124 -9 -17 -31 -48 -51 -70 -32 -36 -34 -42 -28 -85 3 -25
9 -58 12 -72 4 -19 -3 -37 -31 -74 l-38 -49 7 -105 c5 -86 3 -110 -9 -125 -9
-12 -15 -41 -15 -72 0 -50 -2 -53 -70 -124 l-70 -73 -47 8 c-82 13 -125 9
-200 -18 -58 -20 -98 -26 -215 -32 -169 -8 -184 -15 -240 -109 -20 -33 -78
-110 -127 -170 -52 -63 -91 -119 -91 -131 0 -39 -36 -60 -98 -58 l-56 3 -87
-85 c-47 -47 -91 -85 -96 -85 -5 0 -34 7 -63 16 -73 22 -113 13 -166 -36 -50
-46 -76 -50 -92 -15 -15 32 -42 32 -76 0 -25 -23 -26 -27 -26 -147 0 -126 -14
-183 -55 -229 -11 -11 -14 -36 -11 -92 3 -72 1 -80 -25 -115 -24 -32 -28 -46
-29 -103 0 -49 5 -73 18 -90 23 -29 42 -134 42 -223 0 -59 2 -67 18 -64 13 2
18 15 20 53 4 61 -25 207 -50 255 -27 52 -23 98 14 156 30 44 33 56 33 124 0
61 5 84 25 120 21 40 25 60 28 170 3 115 14 170 33 170 4 0 11 -9 14 -20 15
-46 89 -33 157 28 l37 33 83 -13 83 -14 3 -143 c2 -101 7 -155 19 -185 29 -74
21 -109 -46 -189 -62 -75 -176 -293 -159 -303 17 -11 40 20 85 116 24 52 57
109 72 125 15 17 44 53 64 81 42 58 49 112 22 165 -12 21 -16 70 -19 190 l-3
161 76 78 76 77 56 -4 c78 -6 87 -24 71 -141 -17 -121 -27 -168 -52 -237 -14
-38 -20 -75 -17 -101 2 -23 -1 -52 -9 -65 -7 -14 -11 -41 -8 -64 7 -54 -26
-110 -60 -101 -31 8 -63 -18 -71 -57 -4 -17 -16 -50 -27 -71 -16 -32 -19 -53
-15 -104 3 -35 10 -69 16 -75 16 -16 25 17 17 69 -4 34 0 59 19 107 13 34 26
70 29 80 5 14 12 17 40 12 29 -6 36 -3 53 22 33 47 46 90 39 127 -4 20 -2 37
4 41 5 3 10 36 10 73 0 49 6 80 23 117 14 29 27 80 30 122 4 39 12 84 17 98
15 40 11 96 -9 134 -19 36 -19 36 28 127 3 6 34 45 69 85 34 41 87 110 116
154 30 45 60 86 67 92 8 6 79 14 158 18 113 6 159 13 215 32 39 13 79 27 89
30 26 8 128 -18 124 -31 -7 -20 -70 -56 -99 -56 -16 0 -49 -13 -73 -30 -24
-16 -47 -30 -52 -31 -20 -2 -93 -101 -93 -127 0 -181 -10 -439 -18 -482 -5
-30 -17 -73 -26 -95 -8 -22 -15 -48 -16 -58 0 -10 -12 -41 -26 -69 -21 -41
-25 -62 -22 -99 3 -28 0 -53 -6 -59 -7 -7 -12 -77 -13 -193 -1 -100 -7 -210
-13 -243 -9 -47 -9 -83 0 -150 6 -49 14 -134 17 -189 2 -55 11 -119 19 -143 8
-23 14 -47 14 -53 0 -6 16 -45 36 -87 32 -67 37 -86 35 -145 -2 -105 -62 -207
-114 -193 -13 3 -27 2 -31 -1 -18 -18 -267 6 -377 37 -78 21 -97 31 -123 59
-15 17 -31 21 -76 21 -56 0 -56 0 -128 70 -71 68 -118 91 -156 77 -8 -3 -34 0
-58 7 -41 13 -67 26 -149 75 -20 12 -60 24 -88 28 l-51 6 -21 56 c-24 65 -33
77 -70 96 -24 13 -32 13 -66 -1 -53 -22 -73 -43 -73 -76 0 -22 -8 -33 -36 -50
l-36 -21 7 -84 c4 -51 3 -83 -3 -83 -9 0 -23 -85 -26 -165 -1 -22 -8 -50 -14
-62 -7 -12 -12 -31 -12 -42 0 -29 -20 -71 -51 -107 -17 -21 -30 -52 -37 -93
-6 -33 -23 -82 -39 -108 -40 -69 -148 -179 -206 -211 -62 -33 -68 -52 -49
-147 16 -74 35 -107 58 -98 12 4 12 8 0 25 -8 10 -11 29 -8 40 3 13 -1 26 -12
34 -13 9 -16 23 -14 55 3 40 6 45 57 75 30 17 83 62 117 100 56 61 65 68 81
56 10 -7 42 -24 71 -38 49 -24 61 -26 165 -22 l112 3 3 -48 c2 -31 -2 -55 -12
-69 -9 -12 -16 -35 -16 -51 0 -18 -11 -42 -30 -63 -32 -37 -45 -87 -36 -137 6
-34 56 -88 149 -162 41 -33 47 -42 47 -76 0 -44 18 -59 73 -59 63 0 190 -57
256 -113 71 -62 188 -137 213 -137 30 0 20 19 -21 40 -22 11 -43 24 -46 30 -3
6 -23 19 -44 30 -21 10 -63 41 -92 68 -58 52 -191 112 -249 112 -51 0 -71 16
-68 55 1 19 0 36 -2 38 -3 3 -39 32 -80 67 -41 34 -83 75 -94 91 -26 41 -16
90 29 144 23 28 35 54 35 74 0 16 4 33 10 36 15 9 13 142 -2 152 -7 4 -69 8
-138 9 -108 0 -131 3 -166 21 -65 35 -71 47 -46 92 12 21 22 54 22 73 0 21 10
48 25 69 40 56 65 107 65 134 0 14 7 36 15 49 8 12 15 40 14 62 0 21 4 63 10
93 6 29 11 94 11 142 0 88 0 89 29 104 29 14 33 21 45 77 5 21 15 30 46 39 37
11 42 10 63 -9 13 -12 29 -39 36 -59 24 -70 35 -80 95 -87 30 -4 65 -15 78
-25 69 -53 190 -96 239 -86 22 5 38 0 73 -25 24 -17 49 -43 57 -56 20 -38 70
-64 123 -64 37 0 55 -6 85 -30 59 -48 244 -90 395 -90 34 0 67 -5 74 -12 9 -9
21 -9 50 0 53 16 52 17 52 -24 0 -22 12 -57 30 -89 17 -30 40 -82 51 -117 11
-35 34 -80 50 -100 61 -77 114 -309 79 -344 -16 -16 -18 -96 -3 -124 19 -38
17 -44 -37 -96 -30 -29 -50 -57 -50 -70 0 -35 29 -96 63 -132 l32 -34 -30 -24
c-19 -15 -43 -24 -66 -24 -59 0 -99 -11 -99 -28 0 -11 8 -13 38 -8 20 3 53 6
73 6 37 0 119 53 119 77 0 6 -14 27 -31 45 -17 18 -40 52 -51 76 l-21 43 46
47 c54 56 65 88 43 130 -21 40 -20 65 2 92 38 47 -11 298 -73 372 -13 15 -31
49 -40 75 -26 74 -68 163 -82 175 -27 22 -11 98 39 179 24 39 28 59 31 125 2
71 -1 86 -32 152 -49 107 -63 164 -72 287 -4 61 -12 133 -18 160 -14 72 -13
153 3 207 10 31 13 72 10 125 -9 130 -8 166 6 223 7 30 12 79 12 108 -1 40 5
66 23 100 14 26 25 59 25 75 0 15 8 44 19 65 21 43 35 132 32 214 -1 31 3 86
9 121 6 42 7 88 1 130 -5 37 -6 82 -1 102 16 70 108 140 204 156 56 9 89 36
141 114 18 28 59 75 89 105 54 53 56 56 56 109 0 34 6 61 15 71 17 18 20 74
10 147 -10 65 -3 90 36 139 32 41 33 48 13 150 -5 25 0 38 24 65 16 19 38 52
50 74 11 22 29 48 39 58 24 21 138 77 158 77 22 0 48 58 57 130 17 130 28 216
34 256 5 38 3 42 -33 69 -51 38 -71 65 -68 89 11 72 19 103 29 116 6 8 25 41
41 74 30 58 43 69 97 80 37 8 78 87 78 149 0 63 17 106 61 152 21 22 45 57 54
78 22 54 46 59 113 25 30 -16 64 -35 76 -43 11 -8 29 -15 38 -15 22 0 58 55
58 88 0 20 -4 23 -33 21 -42 -4 -57 6 -57 39 0 15 -7 37 -15 49 -13 19 -13 22
1 27 9 3 26 6 39 6 15 0 29 9 36 23 14 27 28 37 52 37 22 0 22 -32 1 -66 -14
-20 -15 -30 -6 -49 14 -29 46 -33 80 -9 29 20 41 10 19 -14 -23 -26 -21 -49 6
-63 33 -17 57 -50 57 -81 0 -32 24 -129 39 -157 12 -22 15 -91 3 -91 -4 0 -13
13 -20 29 -17 39 -60 81 -83 81 -25 0 -49 -27 -49 -55 0 -14 14 -40 31 -60
l31 -35 -26 -21 c-14 -11 -26 -26 -26 -33 0 -19 31 -44 60 -48 20 -2 26 -11
33 -45 9 -47 16 -51 51 -28 22 14 24 14 31 -2 4 -10 9 -65 12 -123 4 -82 9
-111 24 -132 14 -20 20 -49 23 -100 3 -80 32 -167 68 -205 21 -23 22 -26 10
-118 -6 -51 -10 -100 -8 -107 2 -7 7 -29 10 -48 10 -58 -17 -17 -47 70 -59
171 -80 219 -99 226 -42 13 -56 -27 -37 -106 3 -11 -7 -14 -46 -15 -42 0 -51
-4 -64 -27 -12 -21 -13 -31 -3 -53 15 -33 83 -64 140 -65 41 0 42 -1 42 -34 0
-24 11 -49 35 -80 28 -37 35 -55 35 -90 0 -55 15 -96 34 -96 19 0 53 47 62 86
4 16 14 37 22 47 9 10 19 37 23 60 6 41 7 42 8 7 0 -19 8 -70 16 -113 8 -43
12 -96 9 -117 -8 -48 15 -89 100 -177 58 -62 60 -63 111 -63 81 0 86 -16 36
-119 -4 -8 -30 -22 -57 -31 -45 -15 -51 -21 -80 -78 -26 -54 -30 -72 -28 -132
3 -70 17 -109 60 -167 l24 -32 -37 -3 c-30 -2 -38 -8 -43 -28 -12 -45 -3 -50
79 -50 124 0 153 39 86 114 -19 22 -35 45 -35 51 0 6 -11 26 -25 45 -31 42
-34 99 -6 124 11 10 22 28 25 42 6 23 18 28 63 24 16 -1 26 6 33 25 11 28 30
25 30 -5 0 -10 12 -28 28 -40 20 -16 24 -23 13 -27 -8 -3 -25 -16 -38 -29 -19
-19 -23 -34 -23 -84 0 -56 3 -63 39 -103 22 -23 43 -56 47 -72 10 -46 23 -55
70 -55 37 0 46 -4 58 -27 13 -25 82 -134 121 -190 9 -12 34 -27 58 -34 65 -17
72 -23 69 -57 -2 -17 3 -41 11 -54 11 -16 13 -36 8 -68 -6 -42 -7 -44 -19 -22
-8 13 -22 22 -37 22 -19 0 -26 7 -31 28 -3 15 -10 37 -15 50 -5 13 -9 32 -9
42 0 23 -28 40 -66 40 -14 0 -62 19 -106 42 -84 45 -109 45 -116 0 -2 -15 -12
-22 -35 -24 -27 -3 -32 -7 -35 -33 -2 -16 -15 -41 -28 -53 -33 -32 -31 -85 4
-90 13 -2 34 3 47 12 17 11 37 14 74 9 37 -4 57 -2 74 10 21 14 29 14 63 2 36
-12 39 -17 42 -53 3 -35 8 -42 47 -63 28 -16 60 -47 86 -84 35 -51 39 -61 30
-82 -6 -13 -11 -44 -11 -69 0 -34 6 -51 25 -69 35 -36 45 -31 45 25 0 39 4 51
20 60 31 16 55 4 76 -38 10 -20 31 -52 47 -70 17 -20 27 -44 27 -64 0 -19 9
-41 22 -55 l22 -24 -22 -6 c-18 -4 -22 -13 -22 -43 0 -25 -5 -40 -16 -44 -10
-4 -14 -16 -12 -38 3 -29 7 -33 35 -36 34 -3 47 -23 37 -54 -4 -15 -11 -18
-27 -13 -47 15 -60 11 -69 -20 -7 -25 -4 -33 13 -47 12 -10 29 -18 39 -18 12
0 22 -12 30 -36 10 -30 9 -38 -4 -53 -25 -27 -20 -60 9 -67 14 -4 29 -4 32 0
12 12 33 -17 33 -46 0 -37 35 -107 67 -133 18 -15 26 -34 31 -75 l7 -55 43 -3
42 -3 0 54 c0 42 -5 58 -21 73 -12 10 -35 48 -51 83 -27 61 -28 66 -16 125 7
33 18 67 25 74 16 17 16 25 -1 67 -18 42 -28 43 -55 9 l-20 -25 -15 30 c-13
24 -16 67 -16 211 l0 180 -30 42 c-17 23 -33 58 -36 79 -5 27 -22 53 -65 98
-49 52 -59 68 -59 97 0 19 -6 47 -14 62 -18 35 -33 177 -18 168 6 -4 14 -28
18 -54 9 -61 65 -172 113 -225 62 -69 121 -167 121 -203 0 -20 10 -44 25 -62
13 -16 29 -41 35 -56 13 -35 13 -113 0 -121 -21 -13 -4 -102 41 -219 21 -54
21 -59 6 -68 -22 -12 -21 -34 3 -65 11 -14 20 -40 20 -57 0 -17 8 -51 16 -76
9 -25 20 -81 25 -125 8 -75 17 -96 50 -107 5 -2 10 -44 12 -93 3 -59 10 -102
21 -123 20 -38 9 -62 -27 -62 -11 0 -47 -5 -79 -12 -52 -11 -62 -10 -110 10
-30 12 -59 22 -66 22 -18 0 -228 -68 -286 -93 -48 -20 -51 -21 -133 -4 -79 17
-88 17 -146 1 -40 -11 -74 -28 -97 -49 -43 -40 -71 -55 -102 -55 -29 0 -201
-44 -249 -64 -31 -13 -40 -12 -109 11 -41 14 -100 28 -130 32 l-55 6 3 50 c4
66 -4 92 -30 106 -18 10 -24 8 -35 -7 -7 -10 -13 -28 -13 -40 0 -20 -6 -23
-42 -26 -36 -3 -44 -7 -46 -26 -2 -13 2 -30 9 -38 10 -12 8 -19 -10 -37 -11
-13 -21 -34 -21 -47 0 -44 -26 -60 -101 -60 -58 0 -70 -3 -79 -20 -9 -16 -21
-20 -62 -20 -96 0 -168 -39 -168 -91 0 -29 -51 -37 -195 -33 -104 3 -134 0
-153 -12 -41 -27 -72 -11 -94 48 -2 4 -15 9 -29 12 -15 2 -41 12 -59 21 -17 9
-35 14 -38 10 -14 -13 17 -41 61 -54 26 -8 47 -20 47 -28 0 -44 78 -67 130
-38 18 11 64 14 173 15 l149 0 -76 -76 c-42 -42 -79 -87 -82 -101 -16 -63 29
-370 59 -399 16 -16 18 30 3 77 -19 55 -22 77 -32 219 l-6 95 81 85 c52 55 81
93 81 108 0 12 6 37 14 55 11 27 23 35 67 49 34 11 68 15 92 11 32 -5 41 -2
53 16 13 18 25 21 78 21 44 0 67 -5 76 -15 7 -8 23 -15 36 -15 13 0 24 -5 24
-11 0 -6 9 -9 20 -6 31 8 27 -56 -6 -95 -14 -17 -36 -52 -49 -78 -26 -51 -39
-60 -90 -60 -31 0 -35 -4 -60 -57 -14 -32 -30 -65 -36 -73 -25 -39 -49 -98
-49 -123 0 -27 -32 -97 -57 -125 -7 -7 -13 -20 -13 -27 0 -25 -43 -56 -75 -55
-45 3 -49 1 -35 -15 21 -26 78 -19 111 14 16 16 29 36 29 45 0 8 9 20 20 26
11 6 20 21 20 35 0 13 5 27 10 30 6 3 10 16 10 28 0 39 20 96 44 124 13 15 29
46 36 68 22 71 43 81 174 89 37 2 53 8 67 27 10 13 19 30 19 37 1 43 93 153
112 134 6 -6 6 -17 -1 -30 -6 -11 -11 -30 -11 -41 0 -16 6 -21 29 -21 16 0 34
6 41 14 6 8 21 16 33 18 17 2 23 11 25 36 2 17 8 32 14 32 16 0 47 43 48 67 0
12 13 34 28 50 16 15 31 34 33 41 5 15 106 46 217 66 73 14 80 17 146 70 55
44 127 57 207 38 76 -18 75 -17 59 -37 -7 -9 -29 -15 -54 -15 -23 0 -51 -7
-62 -15 -10 -8 -27 -15 -36 -15 -16 0 -61 -42 -108 -103 -20 -25 -20 -28 -4
-34 12 -4 21 0 28 12 25 42 80 95 100 95 11 0 30 7 40 15 11 8 36 15 56 15 29
0 45 8 81 43 39 37 63 49 188 90 l144 48 54 -22 c54 -22 76 -22 186 -3 36 7
37 6 37 -25 0 -18 -5 -42 -12 -54 -7 -13 -12 -88 -13 -197 -2 -96 -8 -195 -15
-220 -6 -25 -13 -72 -14 -105 -2 -33 -9 -82 -17 -110 -13 -48 -16 -50 -49 -50
-49 -1 -63 -12 -55 -44 3 -14 10 -64 14 -109 8 -89 18 -104 61 -100 22 3 25 8
26 43 1 22 -3 53 -7 68 -9 32 -2 60 15 54 11 -4 13 -13 15 -70 1 -15 12 -39
26 -53 23 -23 25 -31 19 -70 -4 -30 -12 -45 -25 -49 -10 -4 -20 -12 -20 -18
-1 -7 -2 -19 -3 -27 -1 -11 -11 -14 -38 -12 -34 3 -39 0 -54 -31 -24 -49 -14
-68 34 -66 47 3 62 -5 62 -35 0 -16 -8 -24 -32 -31 -31 -9 -33 -14 -38 -61 -3
-31 -20 -79 -43 -123 -41 -81 -44 -101 -21 -135 14 -23 14 -25 -20 -51 -36
-28 -44 -52 -27 -84 8 -13 2 -29 -24 -65 -33 -46 -34 -51 -28 -112 6 -60 4
-67 -20 -92 -15 -16 -40 -69 -60 -127 -25 -74 -47 -118 -85 -168 -68 -89 -86
-132 -74 -173 8 -25 5 -35 -14 -58 -13 -15 -24 -39 -24 -53 0 -32 -35 -86 -64
-99 -15 -6 -23 -21 -26 -50 -5 -33 -19 -56 -68 -110 -35 -38 -67 -85 -72 -104
-18 -65 -26 -69 -60 -33 -25 27 -81 53 -113 53 -22 0 -90 59 -125 108 -22 31
-50 66 -62 77 -12 11 -35 39 -51 61 -22 33 -27 49 -22 76 6 43 -8 73 -46 92
-19 10 -39 39 -64 88 -19 40 -45 82 -56 92 -11 10 -42 48 -67 82 -26 35 -51
64 -56 64 -25 0 0 -49 57 -115 40 -45 78 -103 98 -147 28 -60 40 -76 70 -90
26 -12 37 -24 37 -39 0 -20 -3 -21 -47 -14 -27 5 -77 8 -113 9 -52 1 -72 6
-94 23 -32 25 -62 29 -100 12 -30 -14 -53 0 -96 59 -16 23 -54 55 -83 72 -28
16 -77 57 -107 92 -54 62 -55 63 -52 119 4 63 -17 116 -61 158 -20 18 -27 37
-33 90 -4 36 -7 69 -6 74 2 7 -25 50 -64 105 -9 12 -25 64 -35 115 -10 51 -27
133 -38 182 -23 102 -20 146 15 221 28 60 29 64 8 64 -9 0 -26 -23 -41 -56
-24 -53 -25 -64 -20 -158 3 -62 13 -123 25 -158 11 -31 23 -83 27 -115 8 -74
22 -110 57 -151 31 -36 34 -46 48 -146 7 -55 15 -75 38 -100 16 -17 35 -41 41
-53 13 -26 18 -90 7 -100 -3 -4 -37 8 -74 26 -55 26 -82 33 -148 36 -100 4
-144 24 -208 96 -51 57 -56 83 -31 154 8 22 17 74 21 115 4 41 11 83 16 93 5
10 12 87 15 173 5 132 3 157 -10 172 -23 25 -57 103 -57 130 0 28 -62 107 -99
127 -60 33 -57 22 -69 225 -9 142 -28 152 -26 12 2 -189 6 -211 45 -243 19
-16 39 -29 45 -29 17 0 84 -104 84 -129 0 -12 15 -50 33 -84 l32 -62 -7 -125
c-5 -69 -13 -144 -18 -168 -6 -23 -10 -62 -10 -86 0 -23 -9 -69 -20 -101 -30
-86 -27 -127 13 -172 45 -53 96 -96 127 -109 14 -6 64 -13 110 -16 114 -6 185
-42 301 -152 48 -44 106 -95 130 -111 24 -17 54 -46 67 -65 13 -19 33 -40 45
-47 27 -15 74 -17 82 -3 10 17 35 11 69 -15 29 -22 44 -25 117 -26 112 -1 128
-7 155 -54 12 -22 44 -64 71 -95 27 -30 60 -71 73 -90 40 -56 71 -79 141 -100
48 -15 72 -29 88 -51 l22 -30 -20 -28 c-34 -47 -99 -100 -154 -126 -93 -43
-161 -86 -207 -130 -25 -23 -58 -50 -75 -58 -16 -8 -48 -34 -69 -56 -27 -27
-52 -43 -75 -47 -20 -3 -51 -10 -69 -16 -32 -9 -36 -7 -91 44 -97 89 -140 120
-199 141 -31 11 -62 24 -68 28 -6 5 -36 18 -67 28 -59 21 -144 25 -302 15 -83
-5 -92 -4 -109 15 -11 12 -24 21 -30 21 -16 0 -71 55 -112 113 -24 33 -34 58
-34 85 0 20 -8 51 -18 67 -49 81 -54 112 -54 295 1 96 4 193 6 215 18 138 18
184 1 268 -9 48 -14 100 -11 115 4 15 11 70 16 122 6 52 13 114 16 138 5 36 2
49 -20 81 -15 21 -31 56 -37 77 -18 71 -30 92 -71 124 -26 21 -51 56 -70 96
-32 69 -45 83 -54 61 -12 -31 94 -197 126 -197 8 0 35 -66 46 -115 4 -16 18
-47 32 -67 19 -29 23 -45 18 -70 -4 -18 -11 -71 -16 -118 -6 -47 -13 -106 -16
-133 -4 -30 0 -73 11 -118 14 -55 16 -87 10 -143 -5 -39 -9 -84 -9 -101 -1
-16 -6 -38 -12 -49 -10 -16 -13 -13 -28 24 -9 23 -19 65 -22 93 -2 29 -16 79
-31 111 -36 83 -51 154 -45 220 4 50 1 62 -30 114 -19 31 -47 90 -63 130 -20
51 -33 72 -46 72 -15 0 -14 -8 12 -77 17 -43 46 -103 65 -134 31 -51 34 -64
34 -130 0 -84 16 -153 50 -219 13 -25 25 -63 26 -85 4 -63 30 -145 62 -189 33
-48 38 -91 22 -203 -11 -72 -10 -83 10 -132 11 -30 30 -67 41 -82 17 -24 27
-79 14 -79 -34 0 -85 56 -85 94 0 8 -11 23 -24 33 -13 11 -35 42 -49 69 -15
30 -41 61 -65 78 -48 33 -51 41 -59 124 -5 48 -12 72 -31 94 -34 40 -52 22
-24 -24 11 -18 23 -55 26 -83 11 -81 24 -108 65 -137 22 -14 49 -46 62 -72 12
-25 33 -56 46 -68 13 -12 23 -27 23 -34 0 -33 28 -67 70 -89 43 -22 79 -57
139 -135 13 -18 48 -47 76 -67 l53 -34 103 4 c210 10 246 6 354 -43 33 -15 71
-31 85 -35 14 -4 42 -23 63 -41 20 -19 40 -34 45 -34 15 0 102 -86 95 -94 -5
-4 -21 -13 -38 -20 -16 -7 -55 -35 -85 -63 -57 -52 -96 -76 -143 -87 -16 -4
-44 -22 -63 -41 -23 -23 -44 -35 -63 -35 -30 0 -57 -23 -63 -55 -3 -19 -30
-35 -143 -86 -22 -10 -53 -21 -70 -24 -44 -9 -135 -75 -141 -102 -8 -30 -41
-53 -75 -53 -21 0 -28 6 -34 27 -3 15 -23 54 -43 86 -35 58 -48 106 -71 262
-13 89 -25 111 -64 124 -45 15 -65 38 -107 124 l-35 71 -75 31 c-92 37 -153
94 -170 157 -8 29 -11 109 -7 251 4 201 5 209 28 233 27 29 34 76 47 309 6
114 13 159 27 187 18 36 18 41 2 107 -9 38 -17 82 -17 97 0 16 -12 53 -25 83
-20 41 -28 52 -37 43 -9 -9 -7 -23 10 -57 12 -25 22 -65 22 -88 0 -23 8 -64
17 -90 17 -46 17 -50 -1 -80 -13 -24 -19 -62 -23 -144 -3 -62 -9 -113 -12
-113 -12 1 -38 25 -48 45 -5 11 -10 74 -11 140 -1 67 -6 152 -12 190 -5 39
-10 94 -10 123 0 39 -4 52 -15 52 -12 0 -15 -14 -15 -64 0 -34 4 -76 9 -92 5
-16 13 -105 16 -199 l7 -170 45 -41 c40 -37 43 -43 33 -68 -5 -15 -10 -47 -10
-71 0 -32 -7 -51 -25 -73 -14 -17 -25 -35 -25 -41 0 -30 -92 16 -156 77 -144
140 -161 177 -129 288 27 97 28 112 11 154 -9 22 -16 61 -16 85 0 51 -19 62
-22 13 -3 -53 0 -81 13 -121 10 -29 10 -43 2 -56 -20 -31 -36 -138 -28 -186 5
-39 18 -60 75 -124 87 -99 122 -128 188 -157 54 -24 58 -33 54 -99 0 -11 -2
-90 -3 -175 -1 -167 5 -199 56 -266 22 -29 151 -104 179 -104 20 0 52 -42 64
-86 16 -54 45 -90 93 -114 42 -22 84 -89 76 -120 -8 -30 29 -193 54 -239 13
-24 32 -58 41 -75 9 -17 17 -36 18 -41 0 -11 -97 -45 -126 -45 -9 0 -56 -13
-106 -30 -106 -36 -108 -36 -108 -10 0 30 -29 70 -52 70 -11 0 -28 -4 -38 -10
-27 -15 -61 -78 -54 -104 7 -30 -49 -58 -100 -49 -40 6 -66 -9 -66 -38 0 -22
-8 -27 -62 -39 -24 -5 -65 -16 -91 -26 -45 -16 -53 -16 -125 0 -42 9 -87 13
-98 10 -15 -4 -32 4 -58 26 -28 25 -36 39 -36 67 0 48 -27 83 -120 153 -114
86 -123 100 -115 176 5 41 3 64 -4 68 -6 4 -11 29 -11 56 0 36 -10 71 -35 124
-19 41 -35 77 -35 80 0 2 -13 34 -30 69 -26 57 -36 68 -77 88 -27 12 -72 40
-100 62 -50 37 -53 42 -53 82 0 24 -9 83 -21 132 -13 55 -19 105 -16 133 3 25
-1 87 -10 138 l-15 93 60 63 c34 35 64 76 68 91 4 15 22 57 40 92 19 35 34 71
34 79 0 30 61 140 105 191 25 28 45 60 45 71 0 10 9 27 20 37 11 10 20 24 20
32 0 8 26 43 58 79 46 52 61 64 80 59 28 -7 88 23 126 63 46 50 21 57 -35 10
-42 -35 -58 -42 -104 -46 -33 -3 -55 -9 -55 -16 0 -7 -23 -34 -50 -61 -29 -28
-50 -58 -50 -70 0 -12 -11 -32 -25 -45 -14 -13 -25 -33 -25 -45 0 -12 -9 -30
-20 -40 -22 -20 -22 -20 -39 13 -10 19 -20 22 -71 22 -32 0 -62 5 -65 10 -3 6
-35 10 -71 10 -53 0 -64 -3 -64 -16 0 -14 7 -16 43 -11 30 4 50 2 64 -8 11 -8
46 -15 79 -17 l59 -3 3 -36 c2 -25 -6 -55 -27 -96 -17 -33 -31 -67 -31 -74 0
-8 -19 -55 -43 -106 -30 -66 -58 -108 -100 -151 -60 -63 -69 -90 -47 -146 10
-27 4 -56 -11 -56 -5 0 -20 25 -34 56 l-25 57 -63 -6 c-62 -6 -64 -5 -81 24
-14 24 -24 29 -55 29 -50 0 -117 34 -135 68 -21 41 -44 58 -58 44 -9 -9 -7
-17 9 -34 11 -13 25 -33 31 -44 14 -26 96 -67 139 -68 24 -1 41 -11 62 -36 26
-32 30 -34 55 -22 52 24 74 16 98 -35 22 -45 33 -55 72 -68 17 -5 18 -12 13
-73 -5 -50 -2 -87 14 -147 11 -44 19 -96 18 -115 -1 -19 -1 -42 0 -51 1 -18
109 -105 149 -120 41 -16 66 -44 92 -102 12 -28 40 -89 62 -134 32 -68 37 -89
32 -121 -4 -24 -2 -42 5 -46 6 -4 8 -30 4 -70 -3 -39 -1 -71 6 -84 6 -12 53
-55 104 -95 113 -90 118 -96 128 -155 6 -33 17 -54 36 -70 24 -19 26 -24 13
-32 -8 -5 -27 -10 -41 -10 -15 0 -59 -17 -99 -37 -60 -31 -75 -35 -91 -25 -10
7 -24 12 -31 12 -7 0 -20 15 -29 33 -19 39 -60 57 -84 37 -14 -11 -16 -24 -11
-61 l7 -48 -35 6 c-27 4 -47 -3 -106 -37 -58 -34 -85 -44 -134 -47 -34 -3 -79
-12 -101 -19 -22 -8 -52 -14 -66 -14 -17 0 -43 -17 -82 -55 -49 -49 -61 -55
-97 -55 -43 0 -90 -33 -90 -64 0 -22 -18 -29 -83 -37 -43 -5 -71 -16 -102 -38
-34 -24 -54 -31 -92 -31 -33 0 -66 -9 -107 -30 -32 -17 -73 -30 -90 -30 -17 0
-68 -6 -113 -14 l-82 -13 -26 27 c-20 21 -24 33 -19 57 5 25 1 33 -23 50 -15
11 -37 23 -48 27 -31 9 -54 119 -34 155 9 15 14 43 12 66 -6 70 -6 79 5 110 6
17 15 48 21 70 6 22 17 49 26 60 8 11 25 36 38 55 12 19 36 41 52 49 36 17 45
28 45 61 0 16 12 35 35 53 19 15 35 34 35 42 0 8 13 22 29 31 18 11 33 31 41
57 6 21 14 45 17 53 3 8 -1 14 -9 14 -15 0 -38 -40 -38 -65 0 -8 -9 -15 -20
-15 -11 0 -23 -7 -26 -15 -3 -8 -15 -17 -26 -21 -14 -4 -17 -9 -9 -13 17 -11
5 -34 -28 -53 -22 -12 -30 -25 -33 -49 -2 -24 -11 -37 -33 -49 -42 -23 -122
-145 -127 -196 -3 -22 -13 -55 -24 -72 -15 -27 -16 -36 -6 -65 14 -40 15 -67
3 -67 -18 0 -70 71 -82 110 -7 24 -28 55 -49 74 -56 50 -75 137 -74 331 1 131
4 158 24 210 12 33 26 64 30 69 5 5 23 -17 41 -49 42 -74 67 -86 122 -57 23
12 59 28 79 36 65 25 125 83 137 132 15 57 14 74 -3 74 -8 0 -16 -16 -20 -41
-5 -33 -17 -52 -54 -85 -26 -24 -63 -49 -82 -54 -19 -5 -50 -19 -67 -30 -18
-11 -38 -17 -45 -15 -7 3 -26 31 -43 63 -24 45 -36 58 -57 60 -33 4 -48 -22
-79 -135 -19 -70 -21 -95 -16 -239 4 -120 9 -169 21 -192 9 -17 16 -38 16 -46
0 -9 20 -34 45 -57 29 -26 45 -50 45 -65 0 -13 20 -47 44 -77 34 -42 44 -63
48 -103 3 -27 9 -57 13 -67 6 -14 2 -17 -27 -17 -22 0 -42 7 -53 20 -22 24
-80 44 -103 35 -16 -6 -15 -8 2 -21 11 -8 26 -14 34 -14 7 0 28 -11 46 -25 18
-14 46 -25 62 -25 17 0 34 -4 40 -9 5 -5 26 -14 46 -20 52 -17 62 -33 37 -59
-23 -25 -82 -30 -135 -10 -25 9 -45 9 -87 -1 -47 -12 -57 -11 -85 3 -17 9 -44
16 -59 16 -38 0 -49 9 -57 47 -7 33 -42 63 -73 63 -9 0 -29 -11 -43 -25 l-27
-26 -49 22 c-27 11 -74 22 -104 24 -43 1 -79 13 -160 52 -167 81 -197 93 -229
93 -16 0 -34 7 -38 15 -5 8 -32 27 -62 43 -35 20 -60 43 -75 68 -17 30 -29 40
-56 45 -19 3 -63 24 -98 47 -35 22 -68 42 -74 44 -7 3 -7 16 1 43 19 68 14
148 -10 179 -19 24 -21 36 -16 94 6 57 11 71 37 95 16 15 30 33 30 39 0 17 41
58 58 58 8 0 27 -11 42 -24 16 -13 47 -26 70 -30 38 -6 49 -2 108 35 67 42
124 86 173 134 22 20 37 25 77 25 63 0 86 18 71 58 -6 15 -21 36 -34 47 -21
18 -23 24 -15 75 5 30 9 78 9 106 1 47 4 52 41 80 21 16 47 43 57 61 26 48 80
79 151 86 52 6 69 3 112 -17 37 -17 62 -22 90 -19 24 4 59 -2 99 -16 34 -11
72 -21 86 -21 33 0 94 -30 99 -49 2 -9 7 -28 10 -42 4 -18 18 -31 47 -44 40
-19 42 -19 73 0 24 15 56 21 139 25 61 3 107 9 107 15 0 15 -230 6 -255 -10
-29 -18 -85 6 -85 38 0 52 -55 92 -144 103 -28 4 -68 15 -90 26 -29 15 -49 18
-86 13 -39 -5 -57 -2 -96 17 -46 23 -52 24 -104 11 -30 -7 -61 -10 -68 -8 -8
3 -27 -6 -44 -20 -16 -14 -34 -25 -39 -25 -5 0 -18 -17 -28 -37 -11 -21 -36
-49 -56 -63 -42 -30 -43 -34 -50 -176 -5 -108 -5 -111 20 -134 40 -38 33 -50
-31 -50 -49 0 -59 -4 -89 -33 -56 -54 -112 -98 -171 -133 -63 -38 -98 -37
-135 2 -34 36 -90 33 -123 -7 -14 -17 -26 -35 -26 -41 0 -6 -13 -26 -30 -45
-22 -24 -31 -45 -32 -76 -3 -73 2 -118 19 -150 17 -34 13 -141 -6 -160 -15
-15 -82 50 -129 123 -19 30 -45 66 -58 80 -30 33 -74 119 -74 146 0 13 -14 32
-33 47 -30 23 -39 40 -81 157 -9 25 -31 70 -48 100 -54 92 -79 176 -88 285 -4
55 -12 114 -18 130 -39 107 -72 231 -72 273 0 37 -6 56 -24 76 -19 23 -26 47
-35 127 -6 55 -11 120 -11 145 0 43 -39 174 -60 199 -5 7 -7 39 -3 78 4 52 10
68 24 72 10 3 20 14 23 23 3 10 35 30 71 46 36 15 81 41 101 57 46 36 58 37
51 2 -3 -15 -3 -33 0 -40 6 -15 74 -53 96 -53 27 0 107 52 133 85 14 19 41 45
60 60 l34 26 50 -42 c45 -38 53 -41 91 -36 37 5 55 -1 156 -55 l113 -60 -6
-49 c-5 -38 -2 -55 13 -81 11 -18 23 -48 26 -67 4 -18 17 -54 29 -79 29 -64
44 -102 78 -208 46 -139 67 -162 191 -211 57 -22 125 -46 151 -53 26 -7 53
-19 59 -26 19 -23 47 -16 64 16 8 16 24 34 35 40 28 15 25 30 -5 30 -19 0 -31
-10 -47 -35 -18 -32 -22 -34 -37 -22 -9 8 -61 29 -116 46 -142 47 -190 74
-222 123 -14 24 -30 58 -35 78 -5 19 -13 51 -18 70 -5 20 -27 76 -50 127 -22
50 -42 105 -44 121 -2 17 -13 43 -25 57 -36 47 -22 105 27 105 15 0 37 7 49
15 18 13 40 14 120 9 95 -7 98 -8 139 -46 23 -21 52 -60 64 -86 32 -69 98
-172 133 -210 30 -31 31 -34 18 -65 -26 -65 -25 -68 46 -148 80 -90 104 -110
200 -172 90 -58 127 -77 148 -77 10 0 50 -16 91 -35 75 -36 104 -43 104 -25 0
14 -155 90 -183 90 -13 0 -46 14 -73 31 -27 18 -74 48 -104 67 -54 34 -154
128 -197 185 -21 29 -22 31 -6 59 14 22 24 28 53 28 20 0 41 5 47 11 21 21 58
-1 154 -94 94 -90 138 -120 189 -131 14 -3 37 -17 52 -31 15 -14 32 -25 37
-25 6 0 23 16 38 35 15 19 33 35 40 35 7 0 32 -11 57 -25 52 -29 56 -30 56
-10 0 20 -81 65 -119 65 -25 0 -36 -6 -49 -30 -20 -35 -23 -36 -47 -10 -10 11
-23 20 -29 20 -50 0 -93 28 -201 130 -101 96 -120 110 -150 110 -18 0 -37 -4
-40 -10 -3 -5 -19 -10 -35 -10 -21 0 -38 11 -67 44 -36 41 -108 156 -144 231
-8 16 -33 48 -55 71 -37 37 -48 43 -100 48 -165 18 -183 18 -206 2 -25 -18
-59 -21 -73 -7 -6 5 -64 37 -129 71 -104 54 -125 61 -157 56 -33 -5 -43 -1
-83 31 l-45 38 5 55 c9 96 10 98 77 132 59 31 67 33 172 33 99 0 116 3 169 28
70 32 71 32 142 8 30 -11 62 -17 70 -14 9 3 28 -4 44 -16 16 -11 36 -21 45
-21 9 0 29 -7 45 -15 16 -9 51 -18 77 -21 61 -8 155 -60 235 -129 35 -30 69
-55 76 -55 8 0 45 -30 83 -66 48 -47 70 -77 75 -99 8 -46 40 -95 62 -95 9 0
49 -32 87 -71 101 -102 115 -107 270 -107 80 0 147 6 175 14 25 8 55 14 68 14
13 0 22 6 22 15 0 19 -40 19 -104 0 -31 -10 -91 -15 -166 -15 -110 0 -118 1
-161 28 -24 16 -69 56 -99 90 -30 34 -61 62 -69 62 -23 0 -51 31 -51 57 0 13
-6 36 -14 51 -20 38 -113 126 -161 151 -41 23 -24 22 31 0 35 -14 84 -5 84 15
0 7 13 30 30 51 27 34 30 45 30 112 l0 75 53 -7 c28 -4 61 -12 72 -18 11 -6
56 -11 100 -11 65 -1 87 3 117 21 27 16 47 20 73 16 39 -6 48 9 16 27 -29 15
-60 12 -95 -9 -50 -31 -120 -35 -206 -12 -144 39 -165 28 -166 -85 0 -67 -2
-75 -27 -94 -15 -12 -27 -30 -27 -41 0 -26 -21 -24 -82 7 -28 14 -70 32 -93
39 -23 7 -63 26 -87 43 -27 18 -78 39 -129 52 -46 11 -88 25 -93 30 -6 6 -20
10 -33 10 -13 0 -32 9 -44 21 -12 12 -31 19 -47 18 -15 -1 -51 5 -81 14 -73
23 -97 21 -156 -8 -44 -21 -64 -24 -158 -25 -102 0 -111 -2 -175 -34 -38 -19
-74 -42 -82 -51 -8 -9 -17 -47 -21 -83 -6 -63 -9 -68 -57 -113 -28 -26 -58
-59 -67 -72 -9 -14 -30 -29 -46 -32 -16 -4 -33 -14 -38 -23 -8 -15 -12 -15
-45 3 -30 16 -35 25 -38 60 -3 35 -6 40 -30 43 -18 2 -40 -8 -70 -30 -41 -31
-85 -54 -151 -78 -16 -6 -31 -19 -34 -30 -12 -47 -53 -8 -53 50 0 17 -7 44
-15 59 -8 16 -17 48 -21 72 -3 24 -15 56 -25 71 -12 17 -19 44 -19 73 0 43
-37 159 -79 250 -11 22 -22 51 -24 65 -17 83 -49 176 -77 224 -29 52 -31 61
-25 119 4 43 2 77 -9 112 -9 28 -16 68 -16 90 -1 22 -7 51 -15 65 -20 34 -18
60 5 113 17 39 25 46 53 49 26 2 36 10 50 41 21 41 37 48 37 16 0 -30 53 -79
85 -79 14 0 36 -5 48 -12 12 -6 35 -15 52 -19 16 -4 49 -15 73 -23 32 -12 53
-14 85 -7 140 31 147 31 177 16 15 -8 30 -18 32 -22 1 -5 24 -25 49 -45 71
-57 161 -83 217 -63 17 6 42 67 42 103 0 21 13 40 50 75 56 53 78 57 148 30
37 -14 51 -15 89 -5 25 7 77 15 116 18 l72 6 35 -53 c34 -53 36 -54 100 -65
90 -15 110 -27 110 -68 0 -29 5 -36 31 -45 25 -9 38 -8 62 4 33 16 26 19 201
-73 43 -23 100 -44 125 -48 48 -7 101 -48 101 -78 0 -20 38 -46 67 -46 32 0
29 17 -8 35 -17 9 -37 31 -45 50 -17 40 -28 47 -113 69 -36 9 -103 38 -150 65
-107 60 -153 76 -180 62 -36 -20 -61 -14 -61 14 0 40 -39 71 -106 85 -32 6
-64 13 -70 15 -13 4 -74 91 -74 105 0 5 13 25 30 43 17 19 30 46 30 60 0 27
20 37 75 37 46 0 192 -73 239 -119 37 -36 47 -41 88 -41 26 0 50 -4 53 -10 3
-5 41 -10 84 -10 116 0 230 -41 304 -108 15 -14 27 -32 27 -39 0 -8 20 -35 43
-61 24 -26 56 -68 71 -93 14 -26 53 -78 85 -117 33 -38 67 -85 77 -103 9 -19
31 -52 49 -74 18 -22 35 -52 39 -67 3 -15 34 -51 72 -85 37 -32 78 -68 92 -81
18 -16 28 -19 36 -12 8 8 -14 34 -77 93 -48 45 -87 87 -87 92 0 6 -16 33 -36
60 -20 28 -44 66 -55 87 -10 20 -42 63 -70 95 -29 32 -71 87 -95 123 -23 36
-59 83 -78 105 -20 22 -36 45 -36 50 0 6 -14 27 -31 48 -29 35 -29 37 -9 37
30 0 59 -16 103 -58 21 -21 37 -46 37 -59 0 -12 19 -45 43 -72 23 -27 73 -87
112 -133 106 -126 144 -160 228 -201 50 -25 87 -52 107 -77 37 -47 145 -127
225 -168 35 -18 86 -57 124 -96 52 -53 68 -63 82 -55 10 5 27 9 39 9 35 0 17
25 -21 28 -25 3 -49 18 -89 57 -31 29 -81 65 -111 80 -73 37 -129 77 -213 156
-40 37 -103 83 -145 104 -40 22 -84 50 -96 64 -13 14 -52 58 -87 96 -35 39
-76 89 -91 111 -15 23 -39 52 -52 64 -14 13 -25 34 -25 46 0 28 -40 76 -88
106 -26 16 -59 25 -112 29 -41 4 -95 14 -120 24 -27 11 -82 20 -140 23 -52 2
-99 8 -105 13 -5 5 -29 9 -55 9 -40 0 -48 4 -74 36 -28 36 -171 114 -207 114
-39 0 -47 10 -37 43 18 55 24 62 64 70 21 5 53 13 69 19 17 6 53 13 80 16 56
5 75 16 75 44 0 28 24 32 79 13 39 -15 54 -16 81 -6 54 18 187 14 248 -9 56
-21 117 -26 127 -10 3 5 -7 12 -22 15 -15 3 -48 13 -73 22 -54 20 -232 29
-284 14 -29 -7 -47 -6 -80 6 -50 19 -96 11 -96 -15 0 -28 -20 -42 -60 -42 -19
0 -55 -9 -79 -20 -47 -22 -67 -25 -75 -12 -7 12 23 124 38 142 42 49 60 216
31 286 -8 20 -12 40 -9 45 7 12 64 12 64 0 0 -14 160 -78 230 -92 87 -16 118
-35 122 -73 2 -24 9 -33 33 -40 17 -5 47 -22 67 -38 37 -28 58 -35 58 -20 0
16 -68 73 -96 81 -23 6 -29 13 -30 34 -1 15 -3 29 -5 30 -33 26 -85 47 -129
52 -54 7 -200 65 -231 91 -19 17 -81 18 -97 2 -15 -15 -16 -84 -2 -93 6 -3 10
-36 10 -73 0 -68 -22 -148 -54 -193 -9 -13 -16 -33 -16 -46 0 -12 -4 -25 -10
-28 -5 -3 -10 -17 -10 -31 0 -14 -7 -36 -16 -50 -9 -13 -20 -39 -23 -57 -5
-24 -18 -40 -54 -62 -37 -24 -47 -36 -47 -58 0 -18 -13 -44 -36 -70 -34 -41
-38 -42 -127 -55 -113 -17 -129 -17 -193 -1 -66 16 -95 8 -150 -46 -36 -34
-48 -53 -51 -82 -14 -131 -99 -125 -271 19 -37 32 -60 34 -191 17 -83 -11 -89
-11 -161 16 -41 15 -88 29 -105 32 -42 7 -75 41 -75 75 0 24 -4 28 -30 28 -29
0 -30 1 -30 51 0 38 -9 69 -32 116 -26 54 -33 81 -39 168 -5 68 -13 112 -24
128 -10 16 -14 34 -9 51 6 26 7 26 25 10 10 -9 21 -25 24 -35 10 -30 41 -22
65 16 19 31 22 47 18 113 -4 84 -23 133 -83 216 -37 51 -44 89 -20 120 8 11
15 34 15 52 0 17 7 37 15 44 19 16 19 51 0 177 -23 151 -31 189 -63 288 -25
80 -28 98 -22 165 7 73 4 100 -31 265 -7 33 -13 94 -14 135 -1 41 -5 98 -10
125 -7 46 -6 49 9 35 14 -14 26 -47 56 -160 5 -19 10 -57 10 -83 0 -48 0 -48
32 -45 37 3 45 22 47 103 1 56 -40 198 -64 225 -16 18 -37 127 -28 143 2 4 14
2 25 -4 22 -12 44 -7 157 33 63 22 140 26 196 10 22 -7 72 -16 110 -22 39 -5
91 -18 115 -29 63 -29 100 -27 145 9 20 16 62 41 91 55 53 25 55 25 106 10 29
-8 85 -31 123 -51 39 -20 120 -58 180 -86 117 -53 148 -77 227 -176 39 -49 66
-71 119 -97 81 -41 119 -86 117 -136 -1 -34 34 -99 54 -99 4 0 15 -17 23 -37
9 -20 37 -60 63 -88 26 -28 52 -60 58 -70 9 -15 15 -17 24 -9 9 9 8 19 -4 42
-9 17 -20 34 -26 37 -6 4 -29 32 -52 63 -22 31 -57 74 -77 95 -31 33 -35 43
-33 83 2 43 -1 47 -65 109 -49 49 -73 65 -94 65 -23 0 -36 11 -67 53 -59 80
-141 149 -208 176 -32 13 -108 49 -169 79 -127 63 -206 92 -247 92 -34 0 -73
-19 -149 -73 l-57 -39 -88 32 c-55 20 -105 32 -131 31 -50 -2 -64 15 -26 31
43 18 63 39 63 65 0 13 7 39 14 58 12 29 20 35 45 35 43 0 78 15 124 55 36 31
47 35 99 35 33 0 68 5 79 10 19 11 25 9 150 -57 19 -9 62 -13 150 -11 273 4
311 -13 565 -252 50 -47 116 -72 144 -55 21 13 9 25 -32 32 -31 4 -56 18 -88
48 -168 157 -203 186 -257 213 -74 38 -214 56 -350 46 l-91 -7 -67 38 c-37 20
-63 41 -58 45 32 33 384 34 490 3 44 -13 58 -13 83 -3 23 9 63 11 148 7 64 -4
126 -9 137 -11 11 -3 30 -5 43 -5 36 -1 148 -125 173 -190 33 -90 80 -159 115
-171 44 -15 90 -67 108 -125 20 -60 97 -177 132 -199 13 -9 35 -35 49 -57 14
-22 42 -58 62 -80 30 -33 36 -47 38 -92 2 -56 34 -163 59 -199 9 -13 16 -44
17 -73 0 -27 10 -79 22 -114 18 -53 28 -68 57 -84 19 -10 41 -27 50 -37 23
-26 119 -65 131 -53 11 11 -19 35 -61 48 -14 4 -39 21 -57 37 -17 17 -41 35
-54 42 -25 13 -61 114 -57 160 3 28 5 27 94 -57 66 -63 93 -96 102 -124 13
-43 76 -111 86 -94 4 6 -9 32 -29 58 -33 43 -35 49 -19 58 39 23 67 52 60 64
-5 8 -16 5 -37 -10 -34 -24 -29 -26 -109 50 -64 61 -137 121 -147 121 -12 0
-63 102 -63 125 0 9 -5 25 -10 35 -13 25 -2 70 17 70 27 0 69 38 88 79 10 22
27 43 39 47 12 3 29 13 39 22 29 26 39 1 47 -120 5 -78 14 -127 28 -158 11
-25 23 -61 27 -80 13 -60 41 -103 109 -167 63 -60 86 -75 86 -53 0 5 -31 46
-70 89 -62 70 -74 91 -101 173 -17 51 -35 98 -39 103 -4 6 -10 59 -14 120 -4
60 -12 115 -18 122 -16 20 -63 16 -83 -7 -10 -11 -25 -20 -34 -20 -9 0 -27
-21 -41 -47 -14 -26 -37 -54 -51 -62 -25 -14 -27 -12 -63 25 -20 21 -45 57
-56 79 -10 22 -41 62 -69 88 -64 61 -110 127 -127 184 -18 61 -47 98 -100 129
-24 14 -44 30 -44 34 0 5 -12 22 -26 39 -27 33 -69 130 -59 139 3 3 29 9 58
12 51 7 53 6 112 -39 55 -44 117 -71 160 -71 9 0 28 9 42 20 19 15 41 20 87
20 35 0 67 -5 74 -12 7 -7 12 -31 12 -54 0 -36 3 -43 25 -48 18 -5 25 -13 25
-30 0 -35 47 -52 97 -35 21 7 84 13 139 13 87 1 105 4 124 21 33 30 54 75 41
88 -12 12 -51 -18 -51 -39 0 -29 -60 -47 -135 -41 -49 5 -83 2 -112 -8 -51
-18 -73 -11 -73 21 0 17 -8 27 -25 34 -22 8 -25 15 -25 59 0 27 -4 52 -8 55
-5 3 -49 6 -98 7 -69 2 -96 -2 -115 -14 -22 -15 -31 -15 -77 -4 -49 13 -141
81 -134 100 1 4 13 25 27 47 22 36 27 38 62 33 49 -6 148 35 158 66 5 17 15
21 46 21 35 0 42 4 60 34 l20 35 35 -24 c20 -13 42 -21 54 -18 13 4 22 -1 26
-13 11 -30 96 -114 116 -114 25 0 22 12 -8 41 -15 13 -44 48 -66 77 -35 47
-43 53 -65 47 -19 -4 -31 0 -45 14 -31 34 -72 27 -97 -15 -19 -31 -25 -35 -50
-29 -24 5 -33 2 -46 -19 -26 -39 -64 -58 -124 -62 -78 -6 -82 -8 -116 -67
l-30 -52 -68 -9 -68 -9 -72 72 c-56 56 -77 71 -94 68 -13 -2 -84 0 -158 4
-110 7 -141 6 -170 -7 -28 -12 -40 -12 -58 -2 -15 8 -95 12 -264 12 -230 1
-243 0 -270 -20 -28 -21 -55 -29 -149 -42 -49 -7 -68 -17 -125 -63 -15 -12
-48 -24 -74 -26 -43 -5 -48 -9 -65 -47 -10 -23 -21 -53 -25 -68 -8 -40 -86
-78 -158 -78 -33 0 -87 -11 -142 -30 -107 -36 -145 -39 -145 -10 0 12 -7 34
-15 51 -16 30 -14 77 7 130 7 21 6 35 -7 60 -11 21 -20 73 -25 148 -4 64 -13
139 -18 166 -6 28 -16 84 -22 125 -6 41 -22 109 -35 150 -45 139 -48 157 -42
235 5 60 3 91 -13 148 -11 39 -20 83 -20 98 0 15 -11 46 -24 70 -17 33 -26 74
-35 164 -7 66 -19 132 -27 147 -8 16 -14 56 -14 97 0 38 -5 103 -10 145 -10
69 -9 79 11 118 12 24 28 50 36 60 17 19 9 104 -12 112 -10 3 -10 16 -3 54 8
40 18 57 48 81 34 27 39 37 45 88 6 45 14 64 36 86 15 16 33 45 40 65 6 20 22
48 35 62 12 14 35 52 50 85 15 33 29 54 32 47 2 -6 -8 -37 -22 -68 -14 -31
-26 -66 -26 -79 0 -36 -21 -87 -52 -127 -26 -34 -68 -131 -68 -158 0 -14 73
-13 88 2 15 15 23 7 16 -18 -3 -12 -20 -26 -40 -33 -38 -14 -42 -23 -46 -126
-3 -56 -10 -83 -37 -135 -33 -62 -34 -68 -32 -170 1 -99 3 -106 27 -129 23
-21 25 -28 18 -65 -4 -22 -8 -66 -9 -96 -1 -30 -5 -65 -9 -77 -4 -13 -1 -34 8
-52 9 -17 16 -43 16 -59 0 -44 16 -52 102 -52 69 0 79 -2 89 -21 7 -14 11 -78
10 -178 -1 -148 -3 -158 -26 -190 -19 -27 -23 -43 -20 -82 3 -28 -4 -80 -15
-125 -31 -121 -28 -157 19 -205 51 -54 75 -50 79 11 2 38 8 48 32 62 40 23 42
69 4 87 -30 13 -29 31 2 111 16 43 16 47 -1 84 -16 33 -17 47 -7 109 6 41 19
82 31 98 25 33 26 59 6 114 -21 58 -18 96 10 149 18 34 25 63 25 102 0 53 -3
59 -50 112 -84 94 -79 115 42 177 80 40 89 41 125 17 14 -9 60 -29 102 -43 94
-32 104 -47 103 -167 -1 -94 12 -131 53 -158 14 -9 34 -31 45 -49 13 -22 34
-38 58 -46 20 -6 62 -25 92 -41 48 -26 62 -29 110 -24 55 6 55 6 100 -39 38
-39 49 -45 82 -43 30 1 46 -5 71 -29 18 -17 39 -33 48 -36 11 -4 19 -23 24
-56 5 -35 12 -52 25 -56 9 -3 25 -26 35 -50 10 -27 30 -54 48 -67 18 -12 36
-28 40 -35 12 -19 27 -16 27 6 0 10 -16 31 -35 46 -20 14 -43 44 -51 65 -8 20
-26 47 -40 59 -16 14 -24 31 -24 52 0 35 -16 69 -32 69 -7 0 -25 12 -40 27
-20 19 -43 29 -76 33 -33 3 -47 10 -47 20 0 21 67 17 153 -9 37 -11 105 -31
152 -44 47 -14 100 -31 118 -38 29 -12 37 -12 63 4 17 9 50 17 74 17 51 0 103
20 130 50 11 12 33 29 48 37 25 13 31 13 52 -1 15 -10 26 -30 31 -53 10 -61
36 -147 47 -162 18 -22 148 -78 193 -84 53 -6 112 -46 151 -101 19 -27 41 -46
59 -50 58 -13 84 -29 102 -60 14 -24 30 -34 68 -43 87 -22 124 -26 124 -15 0
19 -43 42 -93 48 -42 6 -52 12 -74 45 -23 35 -67 59 -107 59 -6 0 -33 24 -60
53 -58 59 -111 88 -207 112 -116 29 -154 66 -165 162 -8 70 -23 102 -56 119
-41 21 -78 10 -133 -38 -42 -37 -53 -42 -115 -47 -37 -4 -74 -12 -81 -18 -11
-8 -34 -4 -99 18 -47 16 -98 29 -113 29 -16 0 -37 5 -48 11 -42 22 -136 40
-199 37 -49 -2 -72 2 -90 15 -17 12 -44 17 -91 17 -50 0 -72 5 -90 19 -14 10
-44 25 -68 32 -29 9 -50 23 -61 41 -9 16 -35 44 -58 63 l-40 35 0 92 c0 51 -5
107 -10 125 -8 26 -7 34 7 47 33 30 40 24 55 -46 4 -18 19 -35 44 -48 20 -12
52 -32 71 -46 29 -21 41 -23 83 -18 39 5 63 1 124 -21 62 -23 85 -26 130 -21
48 5 60 3 106 -23 55 -31 162 -53 264 -55 46 -1 54 2 86 37 19 20 43 37 52 37
23 0 76 28 76 40 0 12 -47 13 -54 1 -3 -4 -18 -11 -34 -14 -15 -3 -45 -22 -65
-42 -32 -31 -43 -36 -70 -32 -18 3 -68 10 -112 17 -55 8 -96 20 -133 42 -48
27 -59 29 -108 23 -53 -6 -143 13 -168 36 -6 5 -18 9 -27 9 -28 0 -116 76
-144 125 -28 47 -64 66 -88 46 -8 -6 -29 -8 -51 -4 -30 5 -41 1 -62 -18 l-24
-23 -68 22 c-37 13 -94 38 -127 57 -33 19 -71 39 -85 45 -65 26 -69 34 -34 86
33 49 42 104 20 126 -12 13 -16 36 -16 97 0 68 -3 82 -20 94 -11 8 -23 28 -26
45 -4 17 -13 37 -20 43 -20 17 -17 26 14 41 17 9 28 22 30 40 2 14 12 34 23
44 10 9 19 27 19 38 1 33 65 96 98 96 44 -1 100 -17 117 -34 13 -12 37 -16
110 -16 103 0 101 1 168 -97 58 -83 83 -112 98 -113 9 0 23 -7 30 -16 10 -12
23 -14 52 -10 32 5 50 0 107 -30 50 -26 77 -34 94 -30 14 3 45 -1 68 -9 24 -8
86 -18 138 -22 105 -7 106 -8 188 -114 58 -75 210 -188 263 -194 32 -4 94 -38
182 -99 l58 -40 57 12 c33 7 86 9 127 6 82 -8 108 -23 205 -125 58 -61 70 -69
102 -69 20 0 48 4 62 10 39 14 108 -20 184 -91 36 -34 79 -70 96 -80 17 -10
51 -49 77 -86 25 -37 60 -77 77 -88 38 -25 41 -53 7 -93 -30 -36 -31 -47 -7
-64 31 -22 42 -70 30 -135 -17 -89 -17 -421 0 -461 8 -22 11 -50 6 -78 -4 -29
-3 -44 5 -44 31 0 42 100 15 151 -11 23 -13 38 -6 59 7 18 7 70 1 148 -8 101
-7 130 6 173 8 29 15 67 15 84 0 30 18 55 69 94 l25 18 -20 28 c-10 15 -23 33
-28 40 -5 7 -6 20 -3 29 5 14 15 10 58 -23 29 -22 72 -65 95 -97 47 -63 51
-80 45 -215 -2 -50 2 -77 18 -112 28 -61 27 -77 -8 -121 -38 -47 -47 -106 -31
-188 13 -63 13 -63 -24 -139 -32 -67 -35 -79 -25 -107 16 -47 43 -43 37 6 -4
28 2 51 24 92 29 54 29 57 23 157 l-7 102 31 47 c36 54 41 107 15 156 -13 26
-15 49 -10 122 8 103 -1 141 -45 198 -16 20 -29 41 -29 46 0 5 -9 17 -19 26
-10 10 -22 34 -26 54 -4 20 -13 44 -22 54 -13 14 -13 19 3 43 13 21 15 31 7
44 -6 10 -9 29 -6 44 8 38 -21 46 -68 19 -21 -12 -52 -22 -68 -22 -39 0 -53
-26 -45 -80 11 -67 -20 -49 -90 54 -29 42 -65 80 -92 98 -24 15 -65 50 -92 77
-26 27 -71 61 -101 76 -52 26 -57 27 -108 15 -66 -16 -88 -7 -139 60 -20 26
-57 63 -83 82 -42 32 -54 35 -139 42 -58 4 -107 3 -133 -4 -33 -9 -44 -9 -57
3 -32 28 -179 114 -206 121 -80 20 -224 130 -288 221 -44 61 -80 85 -130 85
-61 0 -138 13 -132 21 5 8 -15 10 -126 14 -19 0 -62 16 -94 34 -42 23 -70 32
-96 30 -41 -3 -113 26 -107 44 2 6 30 21 63 33 170 64 209 83 224 107 8 14 22
28 30 30 17 4 70 169 70 216 0 13 16 46 36 73 27 38 33 53 24 62 -8 8 -18 2
-40 -24 -20 -24 -37 -68 -60 -155 -22 -87 -37 -125 -51 -133 -11 -7 -24 -24
-29 -38 -5 -13 -18 -27 -27 -30 -10 -4 -42 -17 -72 -30 -38 -17 -57 -21 -66
-14 -9 7 -14 7 -18 -3 -3 -7 -25 -24 -50 -37 -42 -22 -46 -23 -70 -7 -13 9
-37 38 -52 64 -25 45 -25 49 -9 58 10 6 29 21 42 33 23 22 24 29 19 87 -6 57
-4 65 13 70 11 3 37 26 58 51 32 36 46 44 73 44 19 0 58 9 87 20 29 11 66 20
82 20 20 0 30 5 30 15 0 22 -68 19 -125 -5 -26 -11 -65 -20 -88 -20 -38 -1
-46 -5 -80 -50 -22 -26 -49 -51 -62 -54 -32 -8 -37 -29 -20 -77 14 -37 14 -45
0 -65 -24 -37 -63 -51 -166 -58 -110 -8 -112 -7 -149 82 -18 42 -27 52 -46 52
-13 0 -28 9 -34 19 -17 33 -1 216 26 295 13 38 24 84 24 102 0 24 8 38 35 58
l34 27 -6 78 c-5 74 -4 81 21 113 18 24 26 47 26 75 l0 41 43 -5 c33 -4 47 0
66 16 13 12 29 21 36 21 6 0 17 11 23 25 14 30 55 34 92 8 15 -11 53 -20 96
-24 55 -4 78 -11 105 -31 19 -14 53 -29 76 -33 22 -3 49 -13 60 -20 10 -8 29
-15 42 -15 14 0 49 -24 93 -65 85 -78 173 -125 237 -125 l46 0 38 -80 c34 -74
37 -86 37 -173 0 -108 17 -151 71 -176 23 -11 35 -24 37 -41 6 -51 13 -70 27
-70 12 0 13 10 9 48 -8 67 -9 69 -52 91 -51 26 -63 58 -69 180 -3 86 -8 109
-27 140 -37 58 -40 78 -14 85 55 14 80 7 121 -36 44 -49 101 -133 112 -168 4
-14 42 -61 84 -107 143 -154 141 -151 134 -216 -5 -51 -3 -60 21 -91 14 -19
26 -39 26 -43 0 -8 91 -158 104 -170 2 -3 9 -2 15 2 12 7 -20 78 -39 90 -6 4
-24 35 -41 68 -16 34 -39 77 -51 96 -17 27 -19 37 -10 52 17 27 15 66 -6 87
-10 10 -31 36 -47 57 -16 22 -57 69 -91 105 -35 36 -70 81 -78 101 -8 20 -42
72 -74 116 -70 94 -78 97 -207 88 -69 -5 -100 -3 -133 9 -54 19 -165 98 -200
142 -16 20 -36 34 -48 34 -12 0 -41 9 -65 20 -24 11 -56 20 -71 20 -15 0 -30
5 -33 10 -15 23 -86 50 -135 50 -31 0 -65 8 -88 20 -20 10 -45 21 -55 24 -16
5 -17 16 -15 83 3 78 3 78 37 94 23 11 38 27 48 55 23 61 33 106 33 147 0 22
7 64 16 95 22 76 14 228 -16 289 -22 47 -26 99 -8 138 16 35 54 33 109 -7 54
-39 128 -49 177 -24 44 23 51 21 67 -19 8 -19 25 -39 36 -46 12 -6 74 -16 137
-21 64 -5 123 -15 132 -21 9 -7 54 -54 100 -106 94 -105 157 -151 207 -151 28
0 48 -14 129 -90 53 -49 99 -90 103 -90 5 0 11 -22 14 -49 3 -27 15 -67 25
-88 11 -21 30 -57 42 -80 19 -36 20 -48 11 -74 -9 -25 -7 -42 5 -78 9 -25 18
-78 21 -118 7 -91 30 -133 72 -133 43 0 91 -59 105 -131 7 -31 127 -169 177
-204 38 -25 66 -83 75 -153 3 -19 11 -44 20 -57 20 -30 9 -149 -17 -187 -27
-37 -25 -110 3 -148 12 -17 27 -30 33 -30 6 0 21 -13 33 -30 13 -16 29 -30 37
-30 8 0 40 -12 71 -26 49 -22 55 -28 49 -47 -4 -12 -8 -38 -9 -56 -1 -32 2
-36 31 -42 17 -3 51 -23 74 -43 48 -40 62 -41 67 -5 6 40 22 52 63 45 21 -3
41 -2 44 4 11 17 61 11 96 -13 32 -21 34 -27 39 -87 3 -36 12 -79 22 -95 9
-17 21 -56 27 -88 6 -32 18 -74 27 -94 16 -33 104 -113 125 -113 5 0 9 -24 9
-52 0 -35 9 -71 24 -105 20 -43 33 -56 76 -78 28 -14 53 -31 55 -38 2 -7 6
-24 9 -39 4 -16 13 -28 22 -28 12 0 14 9 11 42 -5 44 -33 76 -88 98 -37 16
-72 94 -71 159 1 43 -2 53 -26 71 -15 12 -41 28 -59 35 -38 16 -69 71 -83 147
-6 29 -19 70 -29 93 -11 22 -22 63 -25 92 -5 46 -2 55 23 83 26 31 29 31 69
20 42 -11 91 -49 257 -198 78 -70 97 -98 88 -127 -19 -63 -30 -141 -22 -150
14 -15 26 10 38 80 20 111 9 151 -50 191 -16 10 -29 22 -29 25 0 15 -200 180
-236 196 -49 21 -103 18 -130 -7 -24 -24 -37 -25 -54 -5 -7 9 -29 15 -51 15
-32 0 -41 5 -51 25 -6 14 -23 28 -37 31 -47 10 -52 14 -63 44 -7 22 -18 33
-39 37 -19 3 -29 12 -29 23 0 26 -25 43 -52 34 -28 -8 -38 -22 -38 -51 0 -28
-1 -28 -50 -3 -22 11 -46 20 -55 20 -9 0 -32 16 -52 35 -20 19 -39 35 -42 35
-12 0 -45 71 -44 92 1 11 9 28 17 37 9 10 16 29 16 42 0 14 7 49 15 77 15 50
15 55 -4 90 -11 20 -22 51 -25 67 -13 80 -41 138 -77 161 -54 33 -179 179
-179 207 0 13 -17 48 -38 78 -32 46 -43 54 -73 57 -43 4 -59 30 -59 95 0 24
-7 70 -16 102 -9 33 -15 87 -15 121 1 49 -3 67 -23 97 -20 29 -56 114 -56 131
0 2 15 -2 33 -8 35 -12 214 -187 228 -222 8 -23 105 -84 134 -84 30 0 10 24
-43 53 -28 15 -60 42 -71 60 -11 18 -48 60 -83 93 -35 33 -75 75 -91 92 -15
18 -35 32 -45 32 -29 0 -272 213 -272 238 0 29 -69 155 -109 198 -25 27 -63
71 -83 96 -24 29 -57 55 -95 72 -67 32 -215 167 -224 206 -3 14 -13 42 -22 63
-13 29 -21 37 -42 37 -43 0 -85 -27 -85 -54 0 -38 37 -113 61 -127 20 -10 25
-9 37 10 8 11 19 21 25 21 5 0 47 -36 92 -79 49 -47 102 -88 131 -100 46 -21
124 -85 124 -103 0 -5 -19 1 -42 13 -38 19 -62 22 -188 24 -165 3 -197 12
-232 65 -29 42 -49 47 -99 25 -49 -23 -96 -15 -158 25 -26 16 -61 30 -78 30
l-30 0 -7 80 c-4 51 -3 88 4 100 6 12 8 40 4 69 -4 28 -1 63 5 84 10 30 9 39
-9 70 -26 44 -20 57 25 57 21 0 44 9 62 24 24 20 37 24 70 19 32 -4 48 0 81
21 36 22 42 31 42 60 0 44 53 87 117 94 30 3 49 12 59 26 8 11 26 37 39 56 13
19 40 58 60 86 25 37 35 62 35 90 0 27 9 51 30 78 24 32 30 50 30 90 0 44 4
55 30 79 16 16 35 40 42 55 17 35 87 50 123 26 39 -26 115 -45 207 -53 69 -6
102 -15 150 -39 35 -18 100 -43 146 -56 46 -13 100 -36 120 -50 20 -14 59 -42
87 -61 51 -36 92 -44 113 -23 9 9 19 5 42 -17 26 -25 40 -30 80 -30 47 0 53
-3 146 -84 77 -67 101 -95 121 -139 28 -63 81 -136 128 -174 21 -18 38 -46 50
-80 18 -57 40 -88 62 -88 19 0 16 12 -12 61 -14 24 -25 52 -25 61 0 9 -29 47
-65 84 -40 42 -79 96 -102 142 -27 53 -53 86 -88 115 -27 23 -74 63 -104 90
-50 44 -57 48 -91 42 -33 -6 -43 -2 -74 25 -35 32 -53 34 -96 16 -15 -6 -91
39 -160 93 -14 11 -71 33 -127 49 -56 16 -114 39 -130 50 -37 26 -96 41 -158
40 -77 -2 -182 36 -240 87 -50 43 -50 43 -36 76 32 79 45 246 21 274 -12 14
-6 61 10 80 16 19 1 64 -35 107 -14 16 -25 36 -25 43 0 24 -35 37 -64 24 -44
-21 -52 -8 -59 91 -8 113 9 158 71 183 21 9 53 28 71 42 24 21 38 26 59 21 68
-17 77 -15 112 18 48 45 105 76 141 76 24 0 29 4 29 25 0 13 -7 28 -15 32 -12
7 -13 14 -3 40 9 25 19 33 42 35 42 4 43 22 2 59 -22 19 -36 41 -36 56 0 30
-74 111 -109 120 -14 3 -42 14 -62 24 -30 15 -38 26 -48 64 -9 38 -18 48 -48
63 l-36 17 34 5 c29 5 40 0 79 -34 25 -22 51 -48 58 -58z m1381 -339 c11 -17
42 -44 70 -60 49 -28 50 -31 37 -52 -8 -12 -19 -41 -26 -65 -10 -39 -14 -43
-38 -40 -24 3 -28 8 -32 48 -3 25 -18 71 -33 103 -40 80 -21 136 22 66z
m-1604 -2659 c25 -11 52 -32 62 -46 9 -14 41 -39 70 -56 50 -28 93 -83 93
-118 0 -20 -47 -10 -86 19 -38 27 -195 192 -202 212 -6 14 15 11 63 -11z
m4259 -1542 c-3 -35 -11 -80 -19 -101 -8 -20 -15 -61 -15 -90 0 -59 -37 -150
-65 -160 -51 -20 -59 14 -24 112 15 46 19 79 17 143 -3 83 -3 83 32 120 19 21
45 38 57 38 21 0 22 -3 17 -62z m-2962 -490 c2 -14 12 -24 28 -28 14 -3 30
-15 35 -27 19 -38 36 -52 68 -55 20 -2 32 -8 32 -18 0 -11 -12 -15 -47 -14
-42 0 -48 -3 -59 -28 l-11 -28 -38 30 c-21 17 -47 30 -59 30 -18 0 -20 4 -15
28 4 15 13 41 21 59 7 18 13 42 13 53 0 27 28 26 32 -2z m284 -984 c-4 -9 -1
-22 4 -30 8 -9 7 -20 -6 -39 -16 -25 -16 -27 5 -56 29 -40 19 -50 -15 -16 -29
30 -44 33 -62 15 -17 -17 -15 -103 3 -118 13 -11 10 -15 -17 -29 -32 -16 -34
-15 -52 7 -16 21 -17 25 -3 40 9 9 23 39 32 65 13 39 14 55 5 83 -16 48 -7 67
28 59 21 -4 35 0 53 14 29 25 33 25 25 5z m-3037 -519 c10 -17 9 -28 -8 -68
-30 -68 -28 -112 5 -134 l26 -17 -30 -25 c-22 -18 -32 -37 -34 -60 l-3 -35
-28 41 c-25 37 -27 46 -21 94 4 30 13 71 20 93 8 21 14 63 14 93 0 34 6 63 17
80 l18 27 6 -35 c3 -19 11 -43 18 -54z m6407 -2699 c-8 -68 10 -96 62 -96 20
0 69 -11 107 -25 39 -13 79 -25 91 -25 32 0 34 -9 8 -35 -13 -13 -24 -31 -24
-40 0 -26 -31 -65 -52 -65 -16 0 -19 -5 -14 -27 5 -24 1 -30 -29 -45 l-35 -18
15 30 c14 28 14 31 -5 50 -28 28 -45 25 -96 -17 -35 -29 -48 -50 -60 -91 -16
-55 -51 -89 -79 -78 -14 5 -14 9 0 36 8 16 29 45 45 64 20 23 30 44 29 62 -3
50 0 63 22 83 27 25 22 65 -8 69 -15 2 -32 -6 -47 -23 -32 -35 -72 -32 -69 5
5 46 12 66 33 90 22 26 26 60 8 78 -13 13 -10 14 42 16 32 1 35 4 38 34 2 20
7 30 14 26 6 -4 8 -26 4 -58z"/>
<path d="M6837 8140 c-20 -16 -27 -30 -27 -56 0 -29 -6 -38 -35 -55 -24 -15
-35 -28 -35 -44 0 -15 -11 -32 -30 -45 -37 -26 -39 -58 -6 -89 32 -30 65 -23
116 27 21 20 49 45 63 54 25 17 25 21 23 120 -1 95 -3 103 -22 106 -11 2 -32
-7 -47 -18z m47 -95 l3 -87 -36 -23 c-20 -13 -49 -37 -64 -54 -34 -36 -50 -39
-71 -10 -17 25 -12 46 15 54 10 4 22 21 27 38 5 18 19 37 31 44 30 14 41 31
41 65 0 24 37 74 48 64 2 -3 5 -43 6 -91z"/>
<path d="M2881 15450 c-13 -11 -38 -20 -56 -20 -18 0 -43 -8 -56 -19 -22 -18
-23 -18 -6 -76 16 -56 16 -58 -5 -75 -24 -19 -19 -47 9 -56 10 -3 35 -14 56
-25 57 -30 78 -13 101 87 10 44 27 101 38 128 21 54 18 61 -27 70 -22 4 -37 0
-54 -14z m53 -18 c3 -5 -3 -31 -13 -58 -11 -27 -22 -72 -26 -99 -4 -28 -12
-58 -17 -68 -9 -17 -11 -17 -26 -4 -9 9 -30 19 -45 22 -26 7 -27 9 -12 24 19
22 19 42 0 88 -19 45 -9 60 50 69 25 3 50 12 56 20 13 16 25 18 33 6z"/>
<path d="M2701 15176 c-12 -15 -1 -59 18 -71 6 -3 11 -24 11 -45 0 -31 5 -43
26 -56 24 -16 26 -16 54 5 40 29 45 26 21 -13 -29 -46 -27 -72 8 -90 21 -11
30 -25 34 -51 8 -47 23 -65 56 -65 19 0 34 10 49 30 27 36 40 37 104 5 67 -34
141 -35 162 -2 8 12 18 34 21 50 7 27 7 27 -45 27 -45 0 -57 5 -93 35 -22 19
-44 35 -47 35 -4 0 -5 22 -2 48 3 35 0 51 -11 61 -21 16 -72 10 -73 -9 -1 -8
-2 -21 -3 -27 -2 -26 -18 -12 -31 27 -10 30 -20 42 -39 47 -14 3 -53 21 -87
39 -64 36 -114 43 -133 20z m130 -56 c25 -15 55 -30 65 -31 11 -2 28 -22 39
-46 10 -23 24 -44 31 -47 20 -8 58 18 64 44 9 39 22 6 15 -39 -5 -34 -2 -42
20 -58 14 -10 40 -30 56 -45 23 -21 42 -28 70 -28 39 0 45 -5 31 -27 -15 -24
-56 -24 -106 2 -32 16 -66 25 -96 25 -40 0 -49 -4 -69 -31 -27 -36 -34 -31
-54 36 -11 38 -19 51 -35 53 -28 4 -28 22 -1 56 39 50 3 95 -52 63 -40 -23
-59 -9 -59 44 0 21 -4 41 -10 44 -5 3 -10 11 -10 17 0 16 48 0 101 -32z"/>
<path d="M3302 14898 c-7 -7 -12 -27 -12 -44 0 -26 -8 -39 -35 -60 -44 -34
-44 -51 1 -70 45 -19 87 -11 113 22 16 20 18 35 14 82 -6 57 -22 81 -53 82 -9
0 -21 -5 -28 -12z"/>
<path d="M2546 14883 c-10 -11 -6 -129 5 -164 19 -56 47 -79 95 -79 24 0 46
-4 49 -10 10 -16 71 -12 85 5 10 12 11 24 2 51 -9 30 -7 41 9 68 25 43 17 62
-31 70 -53 8 -70 0 -70 -35 0 -23 -5 -29 -20 -29 -17 0 -19 3 -10 19 14 27 13
71 -2 75 -7 2 -34 10 -60 19 -25 8 -49 13 -52 10z m86 -74 c-15 -60 -14 -69 8
-77 12 -5 35 -6 51 -4 25 4 29 9 29 37 0 29 2 32 25 27 29 -5 31 -14 9 -33
-16 -13 -15 -50 2 -93 6 -17 4 -18 -22 -12 -16 4 -51 11 -79 14 -44 6 -52 11
-67 42 -9 19 -17 58 -18 87 l0 52 33 -14 c17 -8 31 -20 29 -26z"/>
<path d="M1920 14667 c-43 -15 -48 -36 -22 -90 11 -23 25 -61 31 -83 12 -45
77 -114 109 -114 9 0 40 -14 67 -30 79 -47 105 -38 139 44 21 51 20 59 -9 95
-19 22 -24 36 -19 55 6 25 4 26 -33 26 -30 0 -59 12 -126 55 -96 61 -88 59
-137 42z m131 -77 c43 -29 85 -50 102 -50 16 0 27 -5 27 -14 0 -7 11 -30 25
-50 l24 -36 -19 -45 c-11 -25 -22 -45 -25 -45 -3 0 -32 14 -65 30 -33 17 -67
30 -75 30 -25 0 -81 68 -95 114 -6 23 -18 55 -25 72 -8 18 -11 35 -8 38 18 17
66 1 134 -44z"/>
<path d="M2014 12899 c-3 -6 -22 -17 -40 -25 -19 -8 -34 -20 -34 -27 0 -6 15
-37 33 -67 l33 -54 79 -12 c142 -21 270 -87 358 -186 34 -37 77 -79 97 -92 19
-13 61 -48 93 -79 63 -59 106 -74 149 -51 13 7 26 10 31 7 4 -3 19 -2 33 1 21
6 25 12 22 38 -3 28 -8 33 -58 50 -63 21 -95 52 -110 108 -6 22 -22 57 -35 77
-27 38 -31 53 -15 53 5 0 23 -26 39 -58 35 -70 48 -81 98 -89 21 -3 55 -14 76
-25 84 -42 76 32 -10 91 -18 12 -59 55 -92 95 -41 50 -72 78 -103 91 -23 10
-63 33 -88 50 -36 25 -60 33 -112 38 -66 6 -173 32 -193 47 -36 26 -237 42
-251 19z m252 -54 c58 -20 136 -39 172 -42 37 -3 74 -11 82 -19 8 -7 51 -31
94 -53 44 -22 87 -52 96 -66 9 -14 42 -52 74 -85 49 -52 54 -60 34 -60 -53 0
-70 13 -93 64 -29 65 -60 98 -88 94 -19 -3 -22 -9 -21 -46 0 -28 8 -50 21 -65
12 -12 26 -41 33 -65 15 -58 62 -108 121 -129 56 -20 63 -33 18 -33 -17 0 -39
-5 -50 -10 -23 -13 -72 9 -92 41 -6 11 -39 39 -72 64 -33 24 -94 79 -135 122
-62 65 -91 86 -170 125 -92 45 -170 68 -230 68 -23 0 -35 8 -56 40 l-26 39 28
25 c44 39 125 36 260 -9z"/>
<path d="M2130 10648 c-16 -25 -20 -43 -16 -74 3 -27 0 -48 -9 -60 -20 -26
-18 -50 6 -114 12 -30 24 -74 26 -97 6 -50 41 -88 72 -78 17 5 21 14 21 53 0
27 -7 57 -16 70 -13 18 -13 29 -4 57 9 29 9 43 -5 78 -10 28 -15 66 -13 117 3
71 2 75 -19 78 -16 2 -28 -6 -43 -30z"/>
</g>
</svg>
