<?xml version="1.0" standalone="no"?>
<!DOCTYPE svg PUBLIC "-//W3C//DTD SVG 20010904//EN"
 "http://www.w3.org/TR/2001/REC-SVG-20010904/DTD/svg10.dtd">
<svg version="1.0" xmlns="http://www.w3.org/2000/svg"
 width="1200.000000pt" height="1600.000000pt" viewBox="0 0 1200.000000 1600.000000"
 preserveAspectRatio="xMidYMid meet">
<metadata>
Created by potrace 1.16, written by Peter Selinger 2001-2019
</metadata>
<g transform="translate(0.000000,1600.000000) scale(0.100000,-0.100000)"
fill="#000000" stroke="none">
<path d="M3936 15565 c-11 -11 -16 -35 -16 -75 l0 -59 63 -36 c35 -19 76 -35
90 -35 15 0 41 -9 59 -20 39 -24 114 -26 142 -5 11 8 29 15 40 14 20 0 20 -1
-1 -9 -31 -12 -29 -45 2 -67 57 -40 118 -104 150 -157 47 -78 124 -164 167
-187 25 -13 40 -28 44 -47 3 -15 8 -34 10 -42 2 -8 21 -26 41 -40 20 -14 41
-29 47 -35 6 -5 27 -19 46 -29 56 -31 150 -104 150 -117 0 -17 -22 -9 -55 19
-54 45 -141 104 -182 122 -53 24 -130 95 -153 141 -19 36 -36 54 -177 184 -46
42 -65 68 -74 101 -16 54 -27 64 -98 92 -65 26 -79 27 -103 5 -18 -16 -24 -15
-116 23 l-97 40 -3 42 c-2 29 -9 45 -23 52 -13 8 -19 21 -19 47 l0 35 -67 -4
c-56 -4 -73 -1 -96 15 -41 28 -306 36 -364 11 -21 -9 -74 -20 -118 -23 -77 -6
-80 -7 -103 -41 -14 -21 -42 -43 -71 -56 -27 -12 -52 -27 -56 -34 -7 -11 19
-96 36 -114 4 -5 19 -8 33 -8 31 0 39 -22 31 -80 -6 -46 4 -66 42 -86 32 -17
54 -15 79 9 l23 21 28 -53 c15 -29 37 -61 48 -71 115 -105 133 -118 188 -132
70 -18 74 -20 92 -55 8 -16 27 -33 42 -38 125 -47 213 -56 213 -24 0 13 -18
26 -60 45 -33 15 -60 31 -60 35 0 4 -21 29 -47 54 -26 26 -44 50 -40 54 4 4
27 -13 50 -38 27 -30 59 -51 92 -63 87 -30 92 -33 112 -73 18 -34 24 -38 62
-41 23 -2 49 2 56 8 17 14 14 83 -5 105 -21 26 -4 28 40 5 23 -12 81 -36 129
-55 81 -30 168 -86 262 -164 20 -17 52 -38 70 -46 71 -33 202 -143 219 -185 9
-22 19 -30 39 -30 14 0 44 -12 66 -25 49 -30 69 -31 102 -5 31 24 56 25 88 4
36 -23 69 -15 73 19 2 15 5 27 8 27 2 0 22 -11 44 -25 22 -14 42 -25 45 -25
12 0 241 -114 247 -124 4 -6 8 -20 8 -32 0 -17 11 -24 58 -37 31 -9 73 -19 92
-22 30 -5 90 -48 90 -65 0 -8 -108 -5 -145 4 -58 15 -285 139 -285 157 0 5
-12 22 -28 38 -19 21 -41 31 -76 36 -45 7 -50 6 -72 -21 l-23 -29 -27 29 c-25
27 -31 28 -85 23 -81 -9 -107 -23 -111 -60 -3 -27 -8 -32 -55 -46 -43 -12 -53
-20 -53 -37 0 -31 -25 -37 -63 -14 -39 24 -80 25 -162 3 -50 -13 -76 -15 -131
-7 -73 9 -92 27 -36 32 42 4 51 26 22 58 -26 26 -19 30 28 13 42 -15 77 3 62
31 -11 21 -79 60 -103 60 -8 0 -22 9 -32 20 -10 11 -27 20 -39 20 -11 0 -40 8
-63 18 -35 14 -43 22 -43 44 0 17 -11 35 -31 52 -27 23 -36 25 -84 20 -46 -6
-62 -3 -108 19 -29 15 -67 41 -84 59 -81 85 -86 88 -136 88 -51 0 -66 10 -123
86 l-21 28 -42 -27 c-22 -15 -41 -33 -41 -41 0 -25 49 -61 138 -101 88 -38 90
-40 95 -77 7 -51 18 -62 80 -82 63 -20 138 -89 142 -131 2 -15 11 -35 19 -44
21 -23 20 -31 -4 -31 -11 0 -20 -7 -20 -15 0 -9 -8 -27 -17 -41 -12 -19 -14
-30 -6 -42 8 -13 1 -20 -41 -40 -28 -13 -65 -37 -83 -54 -29 -28 -35 -29 -75
-22 -56 10 -67 8 -103 -25 -16 -15 -47 -34 -67 -44 -23 -10 -48 -33 -64 -58
-25 -41 -26 -47 -22 -147 6 -123 15 -137 86 -128 23 3 42 2 42 -3 0 -5 16 -32
36 -61 28 -41 33 -54 23 -66 -14 -17 -15 -80 -1 -159 7 -38 7 -64 1 -69 -5 -6
-9 -22 -9 -36 0 -33 -30 -117 -53 -150 -9 -13 -17 -34 -17 -45 0 -27 -39 -89
-72 -115 -24 -18 -26 -24 -17 -48 13 -34 4 -68 -29 -112 -18 -24 -27 -48 -28
-75 0 -30 -11 -56 -42 -101 -23 -34 -49 -67 -57 -74 -8 -7 -15 -21 -15 -31 0
-19 -34 -44 -49 -35 -14 9 -93 -30 -128 -63 -27 -24 -32 -35 -27 -58 5 -25 1
-31 -31 -46 -31 -15 -43 -16 -72 -6 -32 10 -37 9 -63 -16 -18 -18 -42 -29 -65
-31 -46 -3 -65 -19 -65 -55 0 -19 -5 -29 -15 -29 -11 0 -15 -13 -15 -54 0 -57
11 -76 34 -56 12 9 15 1 18 -42 2 -29 1 -58 -4 -64 -5 -6 -7 -60 -6 -120 1
-60 -2 -136 -6 -169 -7 -51 -5 -69 12 -110 11 -28 25 -76 32 -107 11 -50 11
-66 -5 -125 -10 -37 -21 -99 -25 -138 -12 -112 -31 -156 -76 -180 l-39 -20 -1
-93 c-1 -85 -3 -94 -27 -122 -15 -17 -34 -30 -42 -30 -8 0 -19 -9 -25 -19 -8
-17 -14 -18 -39 -8 -22 8 -36 8 -55 -1 -24 -10 -26 -16 -20 -50 5 -32 2 -43
-21 -71 -27 -31 -28 -35 -22 -117 5 -81 4 -86 -17 -94 -33 -12 -43 -30 -49
-91 -3 -31 -13 -71 -22 -89 -11 -21 -20 -71 -24 -139 -4 -59 -10 -112 -14
-118 -4 -6 -2 -23 5 -37 10 -22 8 -29 -9 -49 -11 -12 -23 -34 -27 -49 -3 -14
-19 -39 -35 -55 -16 -16 -32 -43 -36 -61 -3 -18 -15 -37 -26 -42 -11 -6 -19
-21 -19 -35 0 -17 -9 -29 -30 -40 -35 -18 -38 -41 -10 -87 11 -18 20 -43 20
-55 0 -12 9 -27 20 -33 17 -9 20 -21 20 -89 0 -58 4 -82 15 -91 21 -18 19 -36
-14 -94 -16 -28 -29 -64 -29 -79 1 -34 -37 -77 -67 -77 -39 0 -45 -17 -25 -79
10 -31 21 -68 24 -83 4 -15 29 -54 56 -87 42 -50 50 -67 50 -100 0 -23 -9 -55
-20 -73 -23 -39 -27 -131 -8 -202 10 -39 10 -48 -4 -63 -9 -10 -23 -38 -31
-63 l-16 -45 -2 70 c-2 39 -1 79 0 90 7 44 0 138 -11 158 -17 33 -27 37 -110
37 -50 0 -79 4 -84 12 -5 7 -8 92 -7 190 1 162 0 178 -18 194 -16 15 -19 31
-19 112 0 88 2 98 32 150 26 47 32 67 34 127 2 94 8 109 46 126 53 23 59 109
7 109 -10 0 -21 -4 -24 -10 -3 -5 -13 -10 -22 -10 -22 0 -9 44 28 95 38 52 60
100 66 144 2 20 16 62 29 94 31 71 30 130 -2 135 -18 3 -28 -10 -58 -75 -21
-43 -48 -89 -60 -103 -13 -14 -29 -41 -35 -61 -7 -20 -27 -51 -46 -68 -31 -28
-35 -36 -34 -79 1 -45 -2 -52 -45 -93 -44 -42 -46 -47 -48 -102 0 -33 3 -62 9
-65 27 -18 24 -53 -7 -104 -28 -44 -33 -63 -34 -123 -1 -39 4 -84 11 -103 9
-21 11 -54 8 -96 -4 -47 -2 -75 10 -103 18 -42 20 -51 30 -172 6 -64 15 -97
36 -138 17 -32 29 -71 29 -92 0 -20 5 -52 11 -71 6 -19 11 -85 10 -146 -2 -71
2 -114 8 -119 6 -3 11 -16 11 -29 0 -13 9 -49 21 -82 43 -123 59 -211 79 -434
6 -69 15 -135 20 -148 13 -30 13 -81 0 -119 -8 -23 -7 -41 4 -74 10 -28 12
-47 6 -53 -6 -6 -10 -43 -10 -84 0 -61 5 -83 29 -130 16 -31 35 -73 42 -92 15
-42 24 -144 14 -168 -6 -15 -8 -15 -15 3 -5 11 -9 43 -9 71 -1 29 -8 65 -16
80 -8 16 -15 36 -15 44 0 8 -9 33 -21 54 -11 22 -23 64 -26 95 -7 88 -11 101
-33 101 -40 0 -65 -95 -38 -143 15 -27 29 -124 33 -232 1 -44 13 -123 25 -175
28 -121 36 -224 20 -254 -10 -19 -6 -41 23 -137 19 -63 43 -157 52 -209 9 -52
21 -116 26 -142 11 -47 1 -88 -21 -88 -6 0 -10 -17 -10 -39 0 -23 -8 -48 -20
-64 -31 -40 -17 -90 53 -178 35 -45 57 -116 57 -184 0 -73 -16 -83 -63 -40
-29 27 -37 41 -37 68 0 19 -7 51 -15 70 -8 20 -15 56 -15 81 0 60 -8 76 -36
76 -39 0 -48 -31 -28 -103 9 -34 20 -85 24 -114 5 -28 11 -56 14 -62 4 -5 11
-35 17 -65 5 -31 16 -68 24 -83 9 -17 15 -57 15 -100 0 -73 27 -170 56 -204
17 -19 19 -151 4 -180 -7 -12 -21 -19 -40 -19 -31 0 -38 -7 -59 -60 -22 -57
-24 -104 -7 -138 9 -17 16 -51 16 -75 0 -25 7 -64 15 -87 11 -30 13 -62 9
-109 -6 -62 -4 -69 25 -117 29 -46 71 -179 71 -223 0 -10 11 -32 25 -51 14
-19 25 -40 25 -48 0 -8 16 -56 35 -107 25 -67 33 -102 29 -125 -5 -22 -2 -36
11 -50 10 -11 19 -36 22 -55 2 -20 15 -61 28 -92 14 -30 25 -69 25 -85 0 -16
7 -43 16 -60 12 -23 14 -45 9 -89 -5 -44 -3 -65 7 -82 36 -56 57 -145 67 -287
10 -123 15 -150 33 -175 14 -19 23 -46 24 -75 1 -25 15 -87 33 -138 17 -51 31
-101 31 -110 0 -9 7 -30 16 -47 9 -18 16 -64 18 -120 4 -89 39 -217 71 -255
17 -21 75 -142 75 -158 0 -26 42 -105 70 -131 16 -14 31 -37 34 -51 10 -55 85
-167 193 -292 39 -46 76 -76 113 -95 30 -15 79 -44 108 -66 30 -22 61 -37 73
-35 14 2 28 -9 47 -36 15 -22 46 -49 69 -61 23 -11 53 -31 66 -43 13 -12 35
-22 50 -22 14 0 50 -11 79 -24 117 -52 194 -90 216 -107 16 -12 41 -17 85 -17
41 0 78 -7 110 -21 63 -27 81 -26 101 4 9 14 22 25 30 25 19 0 46 -33 46 -57
0 -28 31 -53 65 -53 16 0 49 -7 73 -17 36 -14 51 -14 97 -4 42 9 59 10 76 0
15 -7 44 -9 87 -5 61 6 67 5 93 -20 28 -26 30 -27 116 -20 114 9 201 28 253
55 25 13 59 21 89 21 39 0 59 7 99 34 36 24 67 36 109 41 64 8 83 18 83 46 0
31 28 49 76 49 41 0 49 5 99 55 36 36 64 55 79 55 13 0 40 7 59 15 20 8 61 15
90 15 53 0 87 13 196 76 25 14 35 16 38 7 7 -19 38 -16 58 7 13 15 16 29 11
58 -3 22 -3 42 1 45 11 11 43 -24 43 -47 0 -16 10 -24 40 -34 58 -18 78 -15
135 17 29 16 70 33 91 36 21 4 64 15 94 25 50 16 62 17 127 4 79 -15 89 -14
174 16 33 11 70 20 83 20 26 0 42 15 48 45 3 17 10 20 43 17 27 -1 55 6 85 22
43 22 45 25 43 63 -2 31 2 44 22 63 24 23 26 23 39 5 11 -16 11 -21 0 -33 -48
-48 31 -57 147 -16 41 14 97 29 124 34 28 4 70 15 94 24 24 9 58 16 77 16 52
0 84 17 99 53 16 38 86 92 130 100 30 5 191 72 211 89 7 4 14 21 17 37 5 25
13 30 57 41 36 9 56 20 71 41 11 16 32 32 47 35 47 12 95 41 149 91 54 49 158
99 233 110 49 8 89 30 119 65 14 17 40 37 57 44 18 8 49 31 69 51 41 43 103
83 222 143 100 51 200 155 241 251 11 25 42 70 70 100 54 59 75 99 66 123 -3
9 4 19 17 26 38 21 68 63 69 97 0 21 10 44 30 66 32 37 36 56 20 88 -14 25 4
63 73 154 39 52 60 93 82 160 17 53 41 104 58 124 28 32 29 38 24 100 -5 60
-3 68 25 109 24 35 29 51 25 80 -4 32 0 42 31 74 l36 38 -18 36 -17 37 38 74
c20 41 40 96 43 121 4 43 8 48 38 57 28 8 32 13 32 46 0 44 -25 69 -69 69 -26
0 -32 4 -29 18 2 13 13 17 43 17 35 0 40 3 48 32 5 17 17 33 27 36 13 3 19 20
24 67 7 58 6 64 -18 89 -19 20 -26 38 -26 68 0 59 -8 73 -40 73 -34 0 -63 -25
-56 -49 12 -44 17 -121 7 -121 -10 0 -16 26 -26 119 -3 29 -8 57 -10 62 -3 4
14 9 37 11 55 4 65 24 77 153 5 53 18 127 27 165 16 61 17 78 5 144 -7 42 -9
81 -5 88 7 12 22 120 29 208 1 25 9 57 16 73 11 24 10 33 -6 65 -13 25 -20 67
-23 133 -4 88 -6 98 -27 107 -23 11 -35 47 -35 105 0 17 -4 44 -10 61 -5 17
-16 58 -25 91 -9 33 -20 73 -25 89 -7 21 -6 32 2 37 14 9 6 62 -20 120 -30 67
-45 149 -31 165 8 9 10 41 7 89 -4 66 -9 80 -37 115 -18 23 -31 50 -31 67 0
29 -48 107 -142 232 -60 79 -98 160 -98 207 0 29 -8 44 -40 77 -52 51 -70 41
-52 -30 6 -27 14 -75 18 -108 4 -33 13 -72 20 -87 8 -15 14 -45 14 -68 0 -37
6 -46 60 -98 38 -37 60 -66 60 -81 0 -24 24 -76 48 -103 20 -24 23 -48 26
-243 3 -166 3 -171 30 -213 15 -23 31 -40 36 -37 18 11 22 -18 10 -78 -11 -57
-10 -66 9 -111 22 -51 21 -67 -2 -47 -16 13 -40 66 -59 131 -11 40 -16 45 -41
45 -21 -1 -26 3 -21 15 25 58 1 137 -44 142 -14 2 -27 9 -30 15 -2 9 5 11 27
7 44 -9 61 9 61 66 0 49 -9 60 -51 60 -30 0 -22 15 13 25 33 10 52 45 25 45
-8 0 -20 6 -26 14 -10 11 -8 16 8 21 37 11 43 39 16 65 -17 16 -25 34 -25 56
0 19 -9 44 -24 61 -13 15 -33 47 -44 70 -25 47 -56 73 -90 73 -33 0 -72 -29
-72 -53 0 -14 -3 -18 -10 -11 -7 7 -6 22 5 47 8 20 15 46 15 57 0 29 -92 142
-134 164 -32 17 -36 24 -36 58 0 36 -3 40 -42 58 -55 25 -73 25 -115 -1 -31
-20 -35 -20 -58 -5 -31 21 -44 20 -75 -4 -30 -23 -40 -25 -40 -6 0 7 11 21 25
30 17 11 25 26 25 46 0 25 4 29 33 32 27 2 33 8 35 31 2 15 5 27 7 27 1 0 41
-21 89 -46 47 -25 95 -44 108 -42 19 3 24 -4 36 -47 20 -72 35 -99 57 -104 31
-5 45 -21 45 -50 0 -35 17 -51 53 -51 28 0 29 1 22 38 -3 20 -7 67 -9 103 -1
37 -8 74 -15 82 -8 10 -10 27 -6 46 7 35 -16 55 -77 65 -26 5 -46 18 -68 44
-16 20 -30 40 -30 45 0 5 -17 34 -38 65 -21 32 -42 66 -48 77 -8 14 -25 21
-60 25 -45 5 -50 8 -59 38 -5 19 -29 56 -52 83 -36 43 -41 54 -36 82 9 47 21
67 49 77 32 13 32 49 -1 80 -14 13 -25 32 -25 41 0 19 -28 39 -55 39 -8 0 -21
-11 -27 -25 -9 -20 -18 -25 -50 -25 -32 0 -40 -4 -48 -26 -6 -15 -20 -38 -31
-53 -18 -22 -20 -34 -14 -81 4 -30 13 -62 20 -70 7 -8 16 -26 20 -39 4 -13 23
-41 43 -63 35 -39 35 -41 17 -54 -22 -16 -125 -19 -125 -4 0 6 20 10 45 10 56
0 58 12 11 77 -75 106 -83 154 -40 256 14 34 28 64 29 65 2 2 23 8 46 13 24 6
48 14 55 19 6 6 21 41 34 79 24 69 24 70 5 91 -15 17 -29 21 -67 19 -47 -3
-50 -1 -109 57 -88 87 -102 112 -94 177 4 29 2 71 -4 93 -6 21 -11 71 -12 109
-2 39 -8 79 -16 90 -7 11 -13 38 -13 60 0 53 -11 67 -46 63 -26 -3 -29 -7 -32
-42 -2 -21 4 -56 12 -77 22 -53 20 -104 -3 -126 -10 -10 -24 -36 -32 -58 -12
-38 -13 -39 -20 -15 -4 14 -7 38 -8 53 -1 15 -8 30 -16 33 -21 8 -55 71 -55
103 0 37 -17 51 -62 51 -45 0 -97 20 -117 43 -11 14 -11 20 -1 32 10 12 24 14
63 9 l50 -7 -7 69 c-4 37 -4 65 1 61 10 -11 71 -170 88 -232 24 -84 73 -128
104 -92 9 11 8 27 -3 70 -12 46 -13 74 -4 156 l11 100 -31 36 c-18 20 -32 42
-32 50 0 7 -5 26 -12 42 -7 15 -13 42 -13 58 -4 97 -7 114 -23 133 -15 17 -20
45 -25 131 -4 60 -12 121 -19 136 -10 23 -16 26 -45 22 -27 -5 -33 -3 -33 13
0 35 -12 50 -40 50 -39 0 -47 17 -16 32 35 15 33 33 -10 85 -20 25 -33 50 -30
58 8 23 22 18 45 -14 21 -29 64 -121 56 -121 -2 0 1 -13 6 -30 10 -28 40 -47
58 -36 20 12 21 68 2 105 -12 23 -16 42 -11 51 10 15 2 68 -12 86 -12 16 -38
119 -38 150 0 35 -28 80 -59 94 -25 11 -25 12 -6 22 46 24 54 68 13 68 -11 0
-22 8 -25 20 -7 27 -12 25 -44 -12 -32 -39 -48 -31 -31 15 7 19 12 48 12 65 0
31 -2 32 -41 32 -31 0 -47 -6 -69 -29 -16 -16 -46 -33 -67 -38 -45 -10 -53
-32 -26 -71 10 -15 20 -43 23 -62 5 -32 8 -35 43 -38 40 -3 46 -12 22 -32 -12
-10 -29 -6 -92 25 -67 33 -83 37 -127 31 -41 -4 -60 -1 -109 21 -55 25 -62 32
-84 82 -14 31 -21 57 -16 58 64 23 81 67 42 109 -19 21 -20 24 -5 30 19 7 21
27 4 54 -15 23 -4 37 16 21 8 -7 25 -9 42 -5 26 7 27 6 21 -23 -7 -36 15 -73
44 -73 11 0 22 8 25 18 3 9 13 34 24 55 23 45 18 61 -28 105 l-34 33 7 72 c3
39 11 79 16 89 5 9 9 35 9 57 0 36 -7 49 -55 101 -55 59 -55 60 -55 124 0 73
-12 89 -62 84 l-33 -3 3 -69 c2 -37 10 -84 18 -102 13 -30 13 -35 -1 -40 -33
-13 -46 16 -44 90 2 39 0 77 -5 84 -4 7 -25 24 -47 38 -45 28 -44 48 1 31 25
-9 36 -9 58 4 36 20 38 68 4 85 -13 6 -31 27 -40 45 -21 43 -50 48 -82 14 -27
-29 -42 -31 -60 -10 -11 13 -10 18 8 31 27 19 28 55 3 103 -11 20 -22 48 -25
63 -4 15 -26 50 -51 78 -30 34 -45 60 -45 78 0 16 -5 33 -12 40 -15 15 -64 16
-73 2 -10 -16 -25 -1 -25 23 0 15 -10 26 -30 35 -16 8 -44 32 -62 55 -17 23
-40 50 -50 60 -10 10 -18 24 -18 31 0 25 -35 46 -75 43 -31 -1 -40 2 -43 16
-2 12 3 17 20 17 13 0 32 6 42 13 25 18 8 57 -43 97 -25 20 -41 42 -43 59 -3
25 -6 26 -58 26 l-55 0 3 -62 c3 -62 2 -63 -23 -63 -14 0 -28 -7 -31 -15 -4
-8 -15 -15 -25 -15 -15 0 -19 7 -19 34 0 19 -6 38 -12 42 -9 6 -5 10 12 14 14
3 26 14 28 24 5 23 -17 66 -33 66 -7 0 -15 14 -19 32 -8 42 -33 68 -66 68 -55
0 -64 38 -21 88 31 36 32 36 51 -21 7 -21 39 -66 75 -104 60 -63 66 -67 92
-57 44 15 42 53 -6 127 -22 34 -43 75 -47 90 -4 17 -19 34 -38 45 -29 15 -30
17 -8 20 17 3 22 10 22 31 0 33 -14 48 -50 53 -19 2 -31 16 -52 58 -15 30 -27
67 -27 82 -1 29 -14 41 -46 44 -30 2 -45 -15 -45 -52 0 -19 -5 -34 -11 -34 -8
0 -10 17 -5 55 5 49 4 55 -15 66 -12 6 -37 9 -55 6 -29 -5 -34 -3 -34 14 0 11
-7 22 -15 25 -27 11 -16 26 14 19 22 -5 30 -2 36 12 6 15 13 11 49 -31 37 -42
47 -48 70 -42 36 9 34 39 -8 87 -34 40 -46 79 -46 154 0 22 -7 62 -15 89 -8
27 -15 62 -15 77 0 18 -14 44 -39 73 -23 26 -41 60 -46 83 -12 65 -40 80 -90
47 -22 -14 -25 -24 -25 -72 l0 -55 -23 21 c-13 12 -35 22 -49 22 -17 0 -32 9
-43 26 -15 23 -21 26 -56 20 -21 -3 -39 -3 -40 1 0 5 -2 31 -3 60 l-3 52 46
-5 c44 -6 62 -18 86 -58 23 -38 105 -18 105 25 0 12 -26 51 -58 87 -77 89
-122 147 -122 160 0 6 -22 29 -49 52 -26 22 -60 63 -75 90 -15 28 -31 50 -36
50 -5 0 -25 14 -43 30 -20 17 -46 30 -61 30 -17 0 -26 5 -26 16 0 34 -171 232
-209 241 -28 6 -89 37 -133 66 -15 10 -45 42 -67 70 -70 91 -126 147 -147 147
-19 0 -101 56 -159 109 -16 15 -60 49 -97 75 -37 25 -73 55 -80 65 -8 11 -41
41 -73 68 -100 80 -229 195 -239 212 -5 9 -25 35 -45 57 -20 23 -54 71 -76
105 -22 35 -46 70 -52 77 -7 7 -16 25 -20 40 -7 30 -72 130 -97 151 -9 8 -19
31 -22 52 -5 28 -18 49 -45 74 l-39 35 -148 0 c-135 0 -179 5 -238 24 -14 4
-28 1 -38 -9z m246 -40 l158 -1 39 -38 c25 -24 41 -50 44 -72 3 -19 22 -53 42
-76 20 -24 48 -67 63 -98 34 -70 115 -193 163 -246 20 -23 40 -51 44 -63 3
-11 10 -21 15 -21 4 0 21 -12 38 -27 16 -16 41 -37 53 -47 13 -11 75 -65 137
-120 62 -56 136 -118 165 -139 29 -21 66 -51 82 -67 43 -41 147 -110 166 -110
9 0 43 -30 75 -66 33 -37 85 -93 116 -125 65 -66 58 -73 -40 -42 -45 15 -57
23 -69 50 -12 29 -34 43 -195 122 -99 49 -187 87 -194 84 -8 -3 -14 -18 -14
-34 0 -33 -2 -34 -33 -15 -40 26 -92 21 -128 -11 -15 -12 -22 -11 -62 12 -25
14 -55 25 -65 25 -12 0 -24 11 -31 29 -19 43 -203 191 -240 191 -6 0 -28 15
-48 33 -21 18 -54 44 -73 57 -19 13 -47 34 -61 47 -26 24 -270 130 -321 140
-23 4 -28 1 -34 -23 -4 -15 -8 -47 -8 -71 -1 -55 -21 -54 -52 0 -18 33 -31 42
-90 62 -50 18 -78 35 -104 63 -63 70 -110 79 -110 23 0 -23 12 -42 50 -79 59
-58 64 -77 19 -68 -19 4 -48 24 -73 50 -34 36 -49 45 -91 51 -42 6 -57 14 -97
55 -26 27 -55 53 -66 59 -10 5 -36 39 -57 75 -46 78 -62 87 -93 50 -23 -26
-25 -27 -50 -11 -25 15 -27 20 -23 72 3 63 -15 95 -54 95 -21 0 -45 34 -45 64
0 8 19 23 43 34 24 11 55 36 70 55 25 33 29 35 106 39 48 3 87 10 97 19 13 11
52 14 169 13 142 -1 153 -2 183 -24 30 -22 35 -23 83 -12 61 14 73 9 65 -29
-4 -22 -1 -32 14 -41 13 -9 20 -24 20 -45 0 -41 28 -63 131 -102 90 -35 115
-38 138 -17 14 12 23 11 71 -8 50 -20 57 -27 83 -82 34 -70 50 -89 141 -162
43 -34 83 -78 107 -117 42 -66 92 -112 175 -160 74 -43 168 -107 172 -117 11
-26 122 -53 122 -30 0 20 -37 82 -60 100 -14 11 -70 50 -125 87 -109 73 -125
88 -125 120 0 23 -29 54 -71 76 -32 17 -101 99 -151 181 -32 54 -117 139 -150
151 -9 3 -8 9 5 19 12 9 18 23 15 39 -2 19 -10 25 -36 27 -19 2 -44 -4 -57
-12 -32 -21 -84 -20 -114 1 -13 9 -44 20 -68 24 -24 5 -64 20 -88 35 -43 25
-45 28 -45 71 l0 46 38 -9 c20 -4 108 -9 194 -9z m-334 -977 c7 -10 41 -32 74
-49 50 -25 71 -30 117 -28 71 4 99 -11 103 -53 3 -28 10 -36 48 -55 25 -12 54
-22 65 -23 11 0 34 -12 50 -25 l30 -25 -27 0 c-23 0 -28 -5 -28 -24 0 -14 10
-30 25 -40 34 -22 32 -36 -5 -36 -38 0 -48 -22 -26 -55 14 -22 24 -25 71 -25
29 0 64 -4 77 -9 16 -6 42 -3 83 10 77 24 116 24 148 -1 38 -30 67 -25 108 20
22 24 50 43 68 46 24 5 31 12 31 30 0 34 24 51 81 59 48 7 53 6 79 -24 36 -39
52 -39 83 1 l25 31 46 -22 c26 -12 52 -32 58 -46 6 -14 34 -38 62 -55 28 -16
58 -34 66 -39 8 -6 50 -27 93 -47 66 -32 89 -38 151 -39 50 -1 80 -7 97 -18
25 -18 99 -23 99 -7 0 23 -25 60 -44 66 -23 7 -76 53 -76 66 0 5 13 2 30 -7
16 -8 36 -15 44 -15 12 0 156 -168 156 -183 0 -3 -19 -5 -42 -4 -39 2 -43 0
-45 -23 -3 -30 47 -90 75 -90 33 0 127 -111 145 -171 3 -9 21 -19 41 -23 25
-5 41 -16 53 -37 18 -31 51 -46 78 -35 24 9 18 33 -18 73 -18 21 -39 47 -47
57 -15 20 -15 20 18 0 18 -10 44 -38 58 -62 14 -23 45 -66 69 -95 24 -29 59
-69 76 -90 27 -32 30 -40 18 -48 -22 -14 -27 -11 -53 30 -23 36 -27 38 -91 45
-36 4 -70 4 -74 2 -4 -3 -8 -37 -8 -75 0 -83 16 -107 65 -96 24 5 33 1 50 -19
11 -15 29 -26 40 -26 35 0 52 -11 52 -34 0 -31 43 -51 64 -30 14 14 14 76 1
121 -4 11 30 43 45 43 4 0 12 -24 19 -52 8 -33 26 -66 46 -88 24 -26 35 -50
43 -95 6 -33 15 -78 21 -100 6 -22 11 -60 11 -85 0 -44 7 -62 44 -114 10 -15
17 -29 14 -31 -3 -3 -19 15 -37 40 -32 45 -71 60 -86 34 -4 -6 -14 -8 -22 -5
-19 7 -49 -9 -57 -30 -4 -10 1 -25 11 -36 11 -12 16 -31 15 -49 -3 -26 -1 -29
27 -29 16 0 33 5 36 10 10 16 42 12 49 -6 3 -9 6 -38 6 -65 0 -44 2 -49 26
-55 33 -8 42 2 46 50 4 46 28 63 28 19 0 -34 34 -110 62 -140 12 -13 32 -23
45 -23 13 0 23 -4 23 -10 0 -5 -11 -10 -24 -10 -53 0 -44 -46 14 -79 27 -15
40 -29 40 -43 0 -12 11 -35 24 -52 23 -31 56 -90 56 -101 0 -3 -9 -5 -20 -5
-11 0 -20 5 -20 11 0 5 -20 28 -45 51 -29 27 -49 56 -60 88 -20 60 -36 75 -64
60 -12 -6 -21 -14 -21 -19 0 -4 -11 -20 -25 -35 -49 -53 -20 -125 52 -126 25
0 43 -27 43 -63 0 -16 8 -28 26 -35 31 -15 24 -31 -11 -25 -35 7 -43 -21 -16
-58 12 -16 19 -34 16 -39 -24 -39 57 -79 94 -46 10 9 27 16 39 16 25 0 35 26
30 83 -3 39 -1 42 24 45 23 3 28 -1 34 -25 4 -15 26 -44 48 -65 37 -33 39 -37
21 -43 -53 -17 -67 -44 -45 -85 9 -17 20 -21 53 -20 59 3 61 2 47 -15 -13 -16
-6 -35 15 -35 8 0 35 -26 61 -57 25 -32 55 -61 65 -65 25 -10 40 -50 33 -86
-8 -38 14 -57 43 -37 12 9 23 25 25 37 2 13 11 24 21 26 13 3 17 -3 17 -27 0
-21 15 -48 50 -92 28 -34 50 -72 50 -83 0 -12 9 -36 20 -54 26 -42 25 -50 -5
-64 -34 -15 -31 -43 7 -79 40 -36 61 -37 86 -4 25 31 40 32 44 3 2 -12 14 -28
26 -34 37 -18 45 -29 29 -43 -11 -9 -21 -9 -40 0 -40 18 -77 4 -77 -29 0 -21
11 -35 47 -62 l46 -35 2 -78 c1 -43 7 -83 13 -89 6 -6 28 -11 49 -12 l38 -1
-1 45 c-1 25 -6 71 -11 103 -6 33 -6 60 -1 63 15 10 39 -18 33 -37 -4 -10 -3
-40 1 -66 6 -38 17 -58 57 -100 l50 -53 -11 -64 c-7 -35 -12 -94 -12 -132 0
-63 2 -70 32 -101 l32 -33 -21 -43 -22 -42 0 48 -1 49 -37 -3 c-21 -1 -46 2
-55 6 -37 15 -53 2 -52 -43 0 -23 -3 -42 -8 -42 -16 0 -7 -57 12 -75 23 -21
26 -41 6 -48 -19 -7 -36 12 -36 40 0 26 -38 47 -65 37 -10 -4 -21 5 -32 25
-28 49 -65 37 -82 -26 -6 -23 -16 -30 -55 -40 -61 -15 -76 -28 -76 -67 0 -43
16 -56 66 -56 33 0 51 7 84 35 50 42 62 43 88 10 11 -14 28 -25 39 -25 12 0
23 -11 31 -32 19 -49 41 -71 107 -102 33 -15 69 -32 80 -37 15 -7 29 -6 48 4
25 13 32 12 84 -15 31 -16 65 -35 77 -43 11 -8 29 -15 38 -15 22 0 58 55 58
88 0 20 -4 23 -33 21 -42 -4 -57 6 -57 39 0 15 -7 37 -15 49 -13 19 -13 22 1
27 9 3 26 6 39 6 15 0 29 9 36 23 14 27 28 37 52 37 22 0 22 -32 1 -66 -14
-20 -15 -30 -6 -49 14 -29 46 -33 80 -9 29 20 41 10 19 -14 -23 -26 -21 -49 6
-63 33 -17 57 -50 57 -81 0 -32 24 -129 39 -157 12 -22 15 -91 3 -91 -4 0 -13
13 -20 29 -17 39 -60 81 -83 81 -25 0 -49 -27 -49 -55 0 -14 14 -40 31 -60
l31 -35 -26 -21 c-14 -11 -26 -26 -26 -33 0 -19 31 -44 60 -48 20 -2 26 -11
33 -45 9 -47 16 -51 51 -28 22 14 24 14 31 -2 4 -10 9 -65 12 -123 4 -82 9
-111 24 -132 14 -20 20 -49 23 -100 3 -80 32 -167 68 -205 21 -23 22 -26 10
-118 -6 -51 -10 -100 -8 -107 2 -7 7 -29 10 -48 10 -58 -17 -17 -47 70 -59
171 -80 219 -99 226 -42 13 -56 -27 -37 -106 3 -11 -7 -14 -46 -15 -42 0 -51
-4 -64 -27 -12 -21 -13 -31 -3 -53 15 -33 83 -64 140 -65 41 0 42 -1 42 -34 0
-24 11 -49 35 -80 28 -37 35 -55 35 -90 0 -55 15 -96 34 -96 19 0 53 47 62 86
4 16 14 37 22 47 9 10 19 37 23 60 6 41 7 42 8 7 0 -19 8 -70 16 -113 8 -43
12 -96 9 -117 -8 -48 15 -89 100 -177 58 -62 60 -63 111 -63 81 0 86 -16 36
-119 -4 -8 -30 -22 -57 -31 -45 -15 -51 -21 -80 -78 -26 -54 -30 -72 -28 -132
3 -70 17 -109 60 -167 l24 -32 -37 -3 c-30 -2 -38 -8 -43 -28 -12 -45 -3 -50
79 -50 124 0 153 39 86 114 -19 22 -35 45 -35 51 0 6 -11 26 -25 45 -31 42
-34 99 -6 124 11 10 22 28 25 42 6 23 18 28 63 24 16 -1 26 6 33 25 11 28 30
25 30 -5 0 -10 12 -28 28 -40 20 -16 24 -23 13 -27 -8 -3 -25 -16 -38 -29 -19
-19 -23 -34 -23 -84 0 -56 3 -63 39 -103 22 -23 43 -56 47 -72 10 -46 23 -55
70 -55 37 0 46 -4 58 -27 13 -25 82 -134 121 -190 9 -12 34 -27 58 -34 65 -17
72 -23 69 -57 -2 -17 3 -41 11 -54 11 -16 13 -36 8 -68 -6 -42 -7 -44 -19 -22
-8 13 -22 22 -37 22 -19 0 -26 7 -31 28 -3 15 -10 37 -15 50 -5 13 -9 32 -9
42 0 23 -28 40 -66 40 -14 0 -62 19 -106 42 -84 45 -109 45 -116 0 -2 -15 -12
-22 -35 -24 -27 -3 -32 -7 -35 -33 -2 -16 -15 -41 -28 -53 -33 -32 -31 -85 4
-90 13 -2 34 3 47 12 17 11 37 14 74 9 37 -4 57 -2 74 10 21 14 29 14 63 2 36
-12 39 -17 42 -53 3 -35 8 -42 47 -63 28 -16 60 -47 86 -84 35 -51 39 -61 30
-82 -6 -13 -11 -44 -11 -69 0 -34 6 -51 25 -69 35 -36 45 -31 45 25 0 39 4 51
20 60 31 16 55 4 76 -38 10 -20 31 -52 47 -70 17 -20 27 -44 27 -64 0 -19 9
-41 22 -55 l22 -24 -22 -6 c-18 -4 -22 -13 -22 -43 0 -25 -5 -40 -16 -44 -10
-4 -14 -16 -12 -38 3 -29 7 -33 35 -36 34 -3 47 -23 37 -54 -4 -15 -11 -18
-27 -13 -47 15 -60 11 -69 -20 -7 -25 -4 -33 13 -47 12 -10 29 -18 39 -18 12
0 22 -12 30 -36 10 -30 9 -38 -4 -53 -25 -27 -20 -60 9 -67 14 -4 29 -4 32 0
12 12 33 -17 33 -46 0 -37 35 -107 67 -133 18 -15 26 -34 31 -75 l7 -55 43 -3
42 -3 0 54 c0 42 -5 58 -21 73 -12 10 -35 48 -51 83 -27 61 -28 66 -16 125 7
33 18 67 25 74 16 17 16 25 -1 67 -18 42 -28 43 -55 9 l-20 -25 -15 30 c-13
24 -16 67 -16 211 l0 180 -30 42 c-17 23 -33 58 -36 79 -5 27 -22 53 -65 98
-49 52 -59 68 -59 97 0 19 -6 47 -14 62 -18 35 -33 177 -18 168 6 -4 14 -28
18 -54 9 -61 65 -172 113 -225 62 -69 121 -167 121 -203 0 -20 10 -44 25 -62
13 -16 29 -41 35 -56 13 -35 13 -113 0 -121 -21 -13 -4 -102 41 -219 21 -54
21 -59 6 -68 -22 -12 -21 -34 3 -65 11 -14 20 -40 20 -57 0 -17 8 -51 16 -76
9 -25 20 -81 25 -125 8 -75 17 -96 50 -107 5 -2 10 -44 12 -93 3 -59 10 -101
21 -123 16 -30 16 -36 2 -51 -10 -11 -13 -28 -9 -57 3 -25 0 -51 -7 -65 -9
-16 -14 -80 -15 -199 -2 -96 -8 -195 -15 -220 -6 -25 -13 -72 -14 -105 -2 -33
-9 -82 -17 -110 -13 -48 -16 -50 -49 -50 -49 -1 -63 -12 -55 -44 3 -14 10 -64
14 -109 8 -89 18 -104 61 -100 22 3 25 8 26 43 1 22 -3 53 -7 68 -9 32 -2 60
15 54 11 -4 13 -13 15 -70 1 -15 12 -39 26 -53 23 -23 25 -31 19 -70 -4 -30
-12 -45 -25 -49 -10 -4 -20 -12 -20 -18 -1 -7 -2 -19 -3 -27 -1 -11 -11 -14
-38 -12 -34 3 -39 0 -54 -31 -24 -49 -14 -68 34 -66 47 3 62 -5 62 -35 0 -16
-8 -24 -32 -31 -31 -9 -33 -14 -38 -61 -3 -31 -20 -79 -43 -123 -41 -81 -44
-101 -21 -135 14 -23 14 -25 -20 -51 -36 -28 -44 -52 -27 -84 8 -13 2 -29 -24
-65 -33 -46 -34 -51 -28 -112 6 -60 4 -67 -20 -92 -15 -16 -40 -69 -60 -127
-25 -74 -47 -118 -85 -168 -68 -89 -86 -132 -74 -173 8 -25 5 -35 -14 -58 -13
-15 -24 -39 -24 -53 0 -32 -35 -86 -64 -99 -15 -6 -23 -21 -26 -50 -5 -33 -19
-56 -68 -110 -36 -40 -67 -84 -72 -105 -18 -65 -144 -200 -224 -239 -111 -54
-170 -91 -223 -141 -28 -27 -57 -49 -63 -49 -6 0 -35 -23 -64 -50 -53 -50 -64
-55 -186 -76 -19 -4 -42 -12 -50 -18 -8 -7 -26 -17 -40 -23 -14 -6 -50 -33
-80 -60 -57 -52 -96 -76 -143 -87 -16 -4 -44 -22 -63 -41 -23 -23 -44 -35 -63
-35 -30 0 -57 -23 -63 -55 -3 -19 -30 -35 -143 -86 -22 -10 -53 -21 -70 -24
-44 -9 -135 -75 -141 -102 -8 -32 -42 -53 -85 -53 -20 0 -62 -9 -95 -20 -32
-11 -67 -20 -78 -20 -10 0 -58 -13 -108 -30 -106 -36 -108 -36 -108 -10 0 30
-29 70 -52 70 -11 0 -28 -4 -38 -10 -27 -15 -61 -78 -54 -104 7 -30 -49 -58
-100 -49 -40 6 -66 -9 -66 -38 0 -22 -8 -27 -62 -39 -24 -5 -65 -16 -91 -26
-44 -15 -54 -16 -125 -1 -87 18 -145 15 -168 -8 -8 -8 -28 -15 -44 -15 -15 0
-60 -17 -100 -37 -60 -31 -75 -35 -91 -25 -10 7 -24 12 -31 12 -7 0 -20 15
-29 33 -19 39 -60 57 -84 37 -14 -11 -16 -24 -11 -61 l7 -48 -35 6 c-27 4 -47
-3 -106 -37 -58 -34 -85 -44 -134 -47 -34 -3 -79 -12 -101 -19 -22 -8 -52 -14
-66 -14 -17 0 -43 -17 -82 -55 -49 -49 -61 -55 -97 -55 -43 0 -90 -33 -90 -64
0 -22 -18 -29 -83 -37 -43 -5 -71 -16 -102 -38 -34 -24 -54 -31 -92 -31 -33 0
-66 -9 -107 -30 -32 -17 -73 -30 -90 -30 -17 0 -68 -6 -113 -14 l-82 -13 -28
29 c-27 28 -30 29 -91 22 -43 -4 -77 -2 -103 6 -32 11 -49 11 -92 0 -46 -11
-58 -10 -85 4 -17 9 -44 16 -59 16 -38 0 -49 9 -57 47 -7 33 -42 63 -73 63 -9
0 -29 -11 -43 -25 l-27 -26 -49 22 c-27 11 -74 22 -104 24 -43 1 -79 13 -160
52 -167 81 -197 93 -229 93 -16 0 -34 7 -38 15 -5 8 -32 27 -62 43 -35 20 -60
43 -75 68 -17 31 -29 40 -57 44 -19 4 -55 20 -80 37 -24 17 -62 38 -84 47 -51
21 -127 95 -172 166 -20 30 -46 66 -59 80 -30 33 -74 119 -74 146 0 13 -14 32
-33 47 -30 23 -39 40 -81 157 -9 25 -31 70 -48 100 -54 92 -79 176 -88 285 -4
55 -12 114 -18 130 -39 107 -72 231 -72 273 0 37 -6 56 -24 76 -19 23 -26 47
-35 127 -6 55 -11 120 -11 145 0 41 -38 172 -58 198 -5 6 -9 46 -10 88 0 53
-6 85 -16 100 -9 12 -16 37 -16 56 0 18 -7 46 -15 61 -8 16 -17 48 -21 72 -3
24 -15 56 -25 71 -12 17 -19 44 -19 73 0 43 -37 159 -79 250 -11 22 -22 51
-24 65 -17 83 -49 176 -77 224 -29 52 -31 61 -25 119 4 43 2 77 -9 112 -9 28
-16 68 -16 90 -1 22 -7 51 -15 65 -20 34 -18 60 5 114 18 39 25 46 50 46 46 0
60 30 60 128 0 75 -4 92 -32 149 -26 54 -33 81 -39 168 -5 68 -13 112 -24 128
-10 16 -14 34 -9 51 6 26 7 26 25 10 10 -9 21 -25 24 -35 10 -30 41 -22 65 16
19 31 22 47 18 113 -4 84 -23 133 -83 216 -37 51 -44 89 -20 120 8 11 15 34
15 52 0 17 7 37 15 44 19 16 19 51 0 177 -23 151 -31 189 -63 288 -25 80 -28
98 -22 165 7 73 4 100 -31 265 -7 33 -13 94 -14 135 -1 41 -5 98 -10 125 -7
46 -6 49 9 35 14 -14 26 -47 56 -160 5 -19 10 -57 10 -83 0 -48 0 -48 32 -45
37 3 45 22 47 102 1 55 -42 208 -64 226 -8 7 -17 28 -20 49 -3 20 -8 48 -10
64 -3 19 0 27 10 27 20 0 20 62 0 101 -16 30 -14 77 7 130 7 21 6 35 -7 60
-11 21 -20 73 -25 148 -4 64 -13 139 -18 166 -6 28 -16 84 -22 125 -6 41 -22
109 -35 150 -45 139 -48 157 -42 235 5 60 3 91 -13 148 -11 39 -20 83 -20 98
0 15 -11 46 -24 70 -17 33 -26 74 -35 164 -7 66 -19 132 -27 147 -8 16 -14 56
-14 97 0 38 -5 103 -10 145 -10 69 -9 79 11 118 12 24 28 50 36 60 17 19 9
104 -12 112 -10 3 -10 16 -3 54 8 40 18 57 48 81 34 27 39 37 45 88 6 45 14
64 36 86 15 16 33 45 40 65 6 20 22 48 35 62 12 14 35 52 50 85 15 33 29 54
32 47 2 -6 -8 -37 -22 -68 -14 -31 -26 -66 -26 -79 0 -36 -21 -87 -52 -127
-26 -34 -68 -131 -68 -158 0 -14 73 -13 88 2 15 15 23 7 16 -18 -3 -12 -20
-26 -40 -33 -38 -14 -42 -23 -46 -126 -3 -56 -10 -83 -37 -135 -33 -62 -34
-68 -32 -170 1 -99 3 -106 27 -129 23 -21 25 -28 18 -65 -4 -22 -8 -66 -9 -96
-1 -30 -5 -65 -9 -77 -4 -13 -1 -34 8 -52 9 -17 16 -43 16 -59 0 -44 16 -52
102 -52 69 0 79 -2 89 -21 7 -14 11 -78 10 -178 -1 -148 -3 -158 -26 -190 -19
-27 -23 -43 -20 -82 3 -28 -4 -80 -15 -125 -31 -121 -28 -157 19 -205 51 -54
75 -50 79 11 2 38 8 48 32 62 40 23 42 69 4 87 -30 13 -29 31 2 111 16 43 16
47 -1 84 -16 33 -17 47 -7 109 6 41 19 82 31 98 25 33 26 59 6 114 -21 58 -18
96 10 149 18 35 25 62 25 105 0 51 -3 61 -30 86 -45 43 -82 101 -91 142 -4 21
-11 50 -15 66 -6 25 -4 27 22 27 53 0 71 10 72 38 2 62 10 95 32 123 29 41 38
100 16 121 -12 13 -16 36 -16 97 0 68 -3 82 -20 94 -11 8 -23 28 -26 45 -4 17
-13 37 -20 43 -20 17 -17 26 14 41 17 9 28 22 30 40 2 14 12 34 23 44 10 9 19
27 19 39 0 12 12 32 26 46 14 13 37 48 51 77 14 29 31 52 40 52 12 0 14 6 8
28 -5 15 -7 77 -6 137 2 86 8 125 27 179 13 38 24 84 24 102 0 24 8 38 35 58
l34 27 -6 78 c-5 74 -4 81 21 113 18 24 26 47 26 75 l0 41 43 -5 c33 -4 47 0
66 16 13 12 29 21 36 21 6 0 17 11 23 25 6 14 18 25 25 25 10 0 13 22 13 97
l-1 98 34 16 c23 11 38 27 48 55 23 61 33 106 33 147 0 22 7 64 16 95 23 77
14 228 -16 291 -17 35 -20 53 -15 90 8 47 16 239 15 345 0 33 4 74 10 92 9 26
7 37 -10 67 -26 44 -20 57 25 57 21 0 44 9 62 24 24 20 37 24 70 19 32 -4 48
0 81 21 36 22 42 31 42 60 0 44 53 87 117 94 30 3 49 12 59 26 8 11 26 37 39
56 13 19 40 58 60 86 25 37 35 62 35 90 0 27 9 51 30 78 24 32 30 50 30 90 0
44 4 55 31 80 33 32 49 64 49 101 0 13 8 30 18 37 19 13 46 80 64 158 12 52
11 179 -2 195 -12 14 -6 61 10 80 16 19 1 64 -35 107 -14 16 -25 36 -25 43 0
24 -35 37 -64 24 -44 -21 -52 -8 -59 91 -8 113 9 158 71 183 21 9 53 28 71 42
24 21 38 26 59 21 68 -17 77 -15 112 18 48 45 105 76 141 76 24 0 29 4 29 25
0 13 -7 28 -15 32 -12 7 -13 14 -3 40 9 25 19 33 42 35 42 4 43 22 2 59 -22
19 -36 41 -36 56 0 30 -74 111 -109 120 -14 3 -42 14 -62 24 -30 15 -38 26
-48 64 -9 38 -18 48 -48 63 l-36 17 34 5 c29 5 40 0 79 -34 25 -22 51 -48 58
-58z m-1679 -6533 c10 -17 9 -28 -8 -68 -30 -68 -28 -112 5 -134 l26 -17 -30
-25 c-22 -18 -32 -37 -34 -60 l-3 -35 -28 41 c-25 37 -27 46 -21 94 4 30 13
71 20 93 8 21 14 63 14 93 0 34 6 63 17 80 l18 27 6 -35 c3 -19 11 -43 18 -54z"/>
<path d="M2881 15450 c-13 -11 -38 -20 -56 -20 -18 0 -43 -8 -56 -19 -22 -18
-23 -18 -6 -76 16 -56 16 -58 -5 -75 -24 -19 -19 -47 9 -56 10 -3 35 -14 56
-25 57 -30 78 -13 101 87 10 44 27 101 38 128 21 54 18 61 -27 70 -22 4 -37 0
-54 -14z m53 -18 c3 -5 -3 -31 -13 -58 -11 -27 -22 -72 -26 -99 -4 -28 -12
-58 -17 -68 -9 -17 -11 -17 -26 -4 -9 9 -30 19 -45 22 -26 7 -27 9 -12 24 19
22 19 42 0 88 -19 45 -9 60 50 69 25 3 50 12 56 20 13 16 25 18 33 6z"/>
<path d="M2701 15176 c-12 -15 -1 -59 18 -71 6 -3 11 -24 11 -45 0 -31 5 -43
26 -56 24 -16 26 -16 54 5 40 29 45 26 21 -13 -29 -46 -27 -72 8 -90 21 -11
30 -25 34 -51 8 -47 23 -65 56 -65 19 0 34 10 49 30 27 36 40 37 104 5 67 -34
141 -35 162 -2 8 12 18 34 21 50 7 27 7 27 -45 27 -45 0 -57 5 -93 35 -22 19
-44 35 -47 35 -4 0 -5 22 -2 48 3 35 0 51 -11 61 -21 16 -72 10 -73 -9 -1 -8
-2 -21 -3 -27 -2 -26 -18 -12 -31 27 -10 30 -20 42 -39 47 -14 3 -53 21 -87
39 -64 36 -114 43 -133 20z m130 -56 c25 -15 55 -30 65 -31 11 -2 28 -22 39
-46 10 -23 24 -44 31 -47 20 -8 58 18 64 44 9 39 22 6 15 -39 -5 -34 -2 -42
20 -58 14 -10 40 -30 56 -45 23 -21 42 -28 70 -28 39 0 45 -5 31 -27 -15 -24
-56 -24 -106 2 -32 16 -66 25 -96 25 -40 0 -49 -4 -69 -31 -27 -36 -34 -31
-54 36 -11 38 -19 51 -35 53 -28 4 -28 22 -1 56 39 50 3 95 -52 63 -40 -23
-59 -9 -59 44 0 21 -4 41 -10 44 -5 3 -10 11 -10 17 0 16 48 0 101 -32z"/>
<path d="M3302 14898 c-7 -7 -12 -27 -12 -44 0 -26 -8 -39 -35 -60 -44 -34
-44 -51 1 -70 45 -19 87 -11 113 22 16 20 18 35 14 82 -6 57 -22 81 -53 82 -9
0 -21 -5 -28 -12z"/>
<path d="M2546 14883 c-10 -11 -6 -129 5 -164 19 -56 47 -79 95 -79 24 0 46
-4 49 -10 10 -16 71 -12 85 5 10 12 11 24 2 51 -9 30 -7 41 9 68 25 43 17 62
-31 70 -53 8 -70 0 -70 -35 0 -23 -5 -29 -20 -29 -17 0 -19 3 -10 19 14 27 13
71 -2 75 -7 2 -34 10 -60 19 -25 8 -49 13 -52 10z m86 -74 c-15 -60 -14 -69 8
-77 12 -5 35 -6 51 -4 25 4 29 9 29 37 0 29 2 32 25 27 29 -5 31 -14 9 -33
-16 -13 -15 -50 2 -93 6 -17 4 -18 -22 -12 -16 4 -51 11 -79 14 -44 6 -52 11
-67 42 -9 19 -17 58 -18 87 l0 52 33 -14 c17 -8 31 -20 29 -26z"/>
<path d="M1920 14667 c-43 -15 -48 -36 -22 -90 11 -23 25 -61 31 -83 12 -45
77 -114 109 -114 9 0 40 -14 67 -30 79 -47 105 -38 139 44 21 51 20 59 -9 95
-19 22 -24 36 -19 55 6 25 4 26 -33 26 -30 0 -59 12 -126 55 -96 61 -88 59
-137 42z m131 -77 c43 -29 85 -50 102 -50 16 0 27 -5 27 -14 0 -7 11 -30 25
-50 l24 -36 -19 -45 c-11 -25 -22 -45 -25 -45 -3 0 -32 14 -65 30 -33 17 -67
30 -75 30 -25 0 -81 68 -95 114 -6 23 -18 55 -25 72 -8 18 -11 35 -8 38 18 17
66 1 134 -44z"/>
<path d="M2014 12899 c-3 -6 -22 -17 -40 -25 -19 -8 -34 -20 -34 -27 0 -6 15
-37 33 -67 l33 -54 79 -12 c142 -21 270 -87 358 -186 34 -37 77 -79 97 -92 19
-13 61 -48 93 -79 63 -59 106 -74 149 -51 13 7 26 10 31 7 4 -3 19 -2 33 1 21
6 25 12 22 38 -3 28 -8 33 -58 50 -63 21 -95 52 -110 108 -6 22 -22 57 -35 77
-27 38 -31 53 -15 53 5 0 23 -26 39 -58 35 -70 48 -81 98 -89 21 -3 55 -14 76
-25 84 -42 76 32 -10 91 -18 12 -59 55 -92 95 -41 50 -72 78 -103 91 -23 10
-63 33 -88 50 -36 25 -60 33 -112 38 -66 6 -173 32 -193 47 -36 26 -237 42
-251 19z m252 -54 c58 -20 136 -39 172 -42 37 -3 74 -11 82 -19 8 -7 51 -31
94 -53 44 -22 87 -52 96 -66 9 -14 42 -52 74 -85 49 -52 54 -60 34 -60 -53 0
-70 13 -93 64 -29 65 -60 98 -88 94 -19 -3 -22 -9 -21 -46 0 -28 8 -50 21 -65
12 -12 26 -41 33 -65 15 -58 62 -108 121 -129 56 -20 63 -33 18 -33 -17 0 -39
-5 -50 -10 -23 -13 -72 9 -92 41 -6 11 -39 39 -72 64 -33 24 -94 79 -135 122
-62 65 -91 86 -170 125 -92 45 -170 68 -230 68 -23 0 -35 8 -56 40 l-26 39 28
25 c44 39 125 36 260 -9z"/>
<path d="M2130 10648 c-16 -25 -20 -43 -16 -74 3 -27 0 -48 -9 -60 -20 -26
-18 -50 6 -114 12 -30 24 -74 26 -97 6 -50 41 -88 72 -78 17 5 21 14 21 53 0
27 -7 57 -16 70 -13 18 -13 29 -4 57 9 29 9 43 -5 78 -10 28 -15 66 -13 117 3
71 2 75 -19 78 -16 2 -28 -6 -43 -30z"/>
</g>
</svg>
